<svg width="21" height="23" viewBox="0 0 21 23" fill="none" xmlns="http://www.w3.org/2000/svg">
<path fill-rule="evenodd" clip-rule="evenodd" d="M14.7558 0C15.1987 0 15.5581 0.346128 15.5581 0.772606L15.5586 1.64597C17.1205 1.74909 18.4178 2.2643 19.336 3.15028C20.3383 4.11964 20.8657 5.51342 20.8604 7.18534V16.5833C20.8604 20.0158 18.5968 22.1481 14.9542 22.1481H5.90616C2.26362 22.1481 0 19.9859 0 16.505V7.18328C0 3.94574 2.0187 1.86758 5.31104 1.64632L5.31169 0.772606C5.31169 0.346128 5.67113 0 6.11401 0C6.5569 0 6.91634 0.346128 6.91634 0.772606L6.91601 1.62659H13.9529L13.9534 0.772606C13.9534 0.346128 14.3129 0 14.7558 0ZM19.2557 9.17238H1.60464V16.505C1.60464 19.1484 3.13226 20.6029 5.90616 20.6029H14.9542C17.7281 20.6029 19.2558 19.1752 19.2558 16.5833L19.2557 9.17238ZM15.1919 15.6543C15.6348 15.6543 15.9942 16.0005 15.9942 16.4269C15.9942 16.8534 15.6348 17.1996 15.1919 17.1996C14.749 17.1996 14.3853 16.8534 14.3853 16.4269C14.3853 16.0005 14.7394 15.6543 15.1823 15.6543H15.1919ZM10.4448 15.6543C10.8877 15.6543 11.2472 16.0005 11.2472 16.4269C11.2472 16.8534 10.8877 17.1996 10.4448 17.1996C10.002 17.1996 9.63824 16.8534 9.63824 16.4269C9.63824 16.0005 9.99233 15.6543 10.4352 15.6543H10.4448ZM5.68782 15.6543C6.1307 15.6543 6.49014 16.0005 6.49014 16.4269C6.49014 16.8534 6.1307 17.1996 5.68782 17.1996C5.24494 17.1996 4.88015 16.8534 4.88015 16.4269C4.88015 16.0005 5.23531 15.6543 5.67819 15.6543H5.68782ZM15.1919 11.6505C15.6348 11.6505 15.9942 11.9966 15.9942 12.4231C15.9942 12.8496 15.6348 13.1957 15.1919 13.1957C14.749 13.1957 14.3853 12.8496 14.3853 12.4231C14.3853 11.9966 14.7394 11.6505 15.1823 11.6505H15.1919ZM10.4448 11.6505C10.8877 11.6505 11.2472 11.9966 11.2472 12.4231C11.2472 12.8496 10.8877 13.1957 10.4448 13.1957C10.002 13.1957 9.63824 12.8496 9.63824 12.4231C9.63824 11.9966 9.99233 11.6505 10.4352 11.6505H10.4448ZM5.68782 11.6505C6.1307 11.6505 6.49014 11.9966 6.49014 12.4231C6.49014 12.8496 6.1307 13.1957 5.68782 13.1957C5.24494 13.1957 4.88015 12.8496 4.88015 12.4231C4.88015 11.9966 5.23531 11.6505 5.67819 11.6505H5.68782ZM13.9529 3.17181H6.91601L6.91634 4.1628C6.91634 4.58928 6.5569 4.93541 6.11401 4.93541C5.67113 4.93541 5.31169 4.58928 5.31169 4.1628L5.31112 3.19519C2.91461 3.38906 1.60464 4.78795 1.60464 7.18328V7.62717H19.2557L19.2558 7.18328C19.26 5.91106 18.9048 4.92212 18.1999 4.24223C17.581 3.64455 16.6764 3.28759 15.559 3.19569L15.5581 4.1628C15.5581 4.58928 15.1987 4.93541 14.7558 4.93541C14.3129 4.93541 13.9534 4.58928 13.9534 4.1628L13.9529 3.17181Z" fill="#7B7B7B"/>
</svg>
