<svg width="39" height="37" viewBox="0 0 39 37" fill="none" xmlns="http://www.w3.org/2000/svg">
<path d="M33.4691 29.0186C34.2491 27.7852 34.71 26.3581 34.71 24.8076C34.71 20.4205 31.1468 16.879 26.7327 16.879C22.3186 16.879 18.7555 20.4205 18.7555 24.8076C18.7555 29.1948 22.3186 32.7362 26.715 32.7362C28.275 32.7362 29.7286 32.2781 30.9518 31.5029L36.4827 37L39 34.4981L33.4691 29.0186ZM26.7327 29.2124C25.5573 29.2124 24.4301 28.7483 23.599 27.9223C22.7678 27.0962 22.3009 25.9758 22.3009 24.8076C22.3009 23.6394 22.7678 22.519 23.599 21.693C24.4301 20.8669 25.5573 20.4029 26.7327 20.4029C27.9081 20.4029 29.0354 20.8669 29.8665 21.693C30.6976 22.519 31.1645 23.6394 31.1645 24.8076C31.1645 25.9758 30.6976 27.0962 29.8665 27.9223C29.0354 28.7483 27.9081 29.2124 26.7327 29.2124ZM26.0945 14.2362C24.7827 14.2714 23.5241 14.5533 22.3718 15.029L21.3968 13.5667L14.6605 24.4552L9.32455 18.2533L2.88955 28.49L0 26.4286L8.86364 12.3333L14.1818 18.5L21.2727 7.04762L26.0945 14.2362ZM30.6859 15.1171C29.5514 14.6238 28.3282 14.3243 27.0518 14.2538L36.1282 0L39 2.07905L30.6859 15.1171Z" fill="#2FA5A9"/>
</svg>
