<svg width="37" height="37" viewBox="0 0 37 37" fill="none" xmlns="http://www.w3.org/2000/svg">
<path d="M18.5 37C8.28245 37 0 28.7176 0 18.5C0 8.28245 8.28245 0 18.5 0C28.7176 0 37 8.28245 37 18.5C36.9889 28.712 28.712 36.9889 18.5 37ZM18.5 3.7C15.5728 3.7 12.7114 4.56801 10.2776 6.19425C7.84371 7.8205 5.94676 10.1319 4.82658 12.8363C3.70641 15.5406 3.41332 18.5164 3.98438 21.3873C4.55544 24.2583 5.965 26.8954 8.03482 28.9652C10.1046 31.035 12.7417 32.4446 15.6127 33.0156C18.4836 33.5867 21.4594 33.2936 24.1637 32.1734C26.8681 31.0532 29.1795 29.1563 30.8057 26.7224C32.432 24.2886 33.3 21.4272 33.3 18.5C33.2956 14.5761 31.7349 10.8143 28.9603 8.03969C26.1857 5.2651 22.4239 3.70441 18.5 3.7ZM27.75 20.35H16.65V9.25H20.35V16.65H27.75V20.35Z" fill="#2FA5A9"/>
</svg>
