<svg width="23" height="23" viewBox="0 0 23 23" fill="none" xmlns="http://www.w3.org/2000/svg">
<path d="M11.5 0C17.8517 0 23 5.1483 23 11.5C23 17.8517 17.8517 23 11.5 23C5.1483 23 0 17.8517 0 11.5C0 5.1483 5.1483 0 11.5 0ZM11.5 1.725C6.101 1.725 1.725 6.101 1.725 11.5C1.725 16.899 6.101 21.275 11.5 21.275C16.899 21.275 21.275 16.899 21.275 11.5C21.275 6.101 16.899 1.725 11.5 1.725ZM11.1108 5.86086C11.5475 5.86086 11.9084 6.18534 11.9655 6.60632L11.9733 6.72336L11.9729 11.8065L15.8882 14.143C16.2632 14.3668 16.4069 14.8303 16.2402 15.2211L16.1871 15.3256C15.9633 15.7006 15.4998 15.8443 15.109 15.6777L15.0045 15.6245L10.669 13.0381C10.4454 12.9047 10.2961 12.679 10.258 12.4259L10.2483 12.2974V6.72336C10.2483 6.24701 10.6345 5.86086 11.1108 5.86086Z" fill="#2FA5A9"/>
</svg>
