<svg width="320" height="298" viewBox="0 0 320 298" fill="none" xmlns="http://www.w3.org/2000/svg">
<path d="M160 297.971C248.366 297.971 320 261.298 320 216.06C320 170.822 248.366 134.15 160 134.15C71.6344 134.15 0 170.822 0 216.06C0 261.298 71.6344 297.971 160 297.971Z" fill="#FAFAFA"/>
<path d="M251.216 268.938C275.292 268.938 294.809 256.882 294.809 242.01C294.809 227.138 275.292 215.082 251.216 215.082C227.14 215.082 207.623 227.138 207.623 242.01C207.623 256.882 227.14 268.938 251.216 268.938Z" fill="#E0E0E0"/>
<path d="M147.733 193.691L119.8 177.569C119.336 177.331 118.822 177.207 118.301 177.207C117.78 177.207 117.267 177.331 116.803 177.569L24.2206 231.029C24.0392 231.09 23.8814 231.206 23.7696 231.361C23.6578 231.516 23.5977 231.703 23.5977 231.894C23.5977 232.085 23.6578 232.272 23.7696 232.427C23.8814 232.582 24.0392 232.698 24.2206 232.759L52.1476 248.888C52.6128 249.12 53.1257 249.241 53.6458 249.241C54.1659 249.241 54.6788 249.12 55.144 248.888L63.3961 244.121L139.475 200.314L147.74 195.454C147.927 195.393 148.09 195.275 148.205 195.116C148.32 194.957 148.382 194.766 148.381 194.57C148.38 194.373 148.317 194.182 148.201 194.024C148.084 193.866 147.921 193.749 147.733 193.691Z" fill="#E0E0E0"/>
<path d="M273.303 231.995L268.986 229.702C268.986 229.702 269.409 208.626 273.779 192.303C278.257 175.591 291.289 157.129 303.603 164.047C315.918 170.966 294.031 185.184 287.448 198.906C280.865 212.628 273.303 231.995 273.303 231.995Z" fill="#2FA5A9"/>
<path opacity="0.15" d="M273.303 231.995L268.986 229.702C268.986 229.702 269.409 208.626 273.779 192.303C278.257 175.591 291.289 157.129 303.603 164.047C315.918 170.966 294.031 185.184 287.448 198.906C280.865 212.628 273.303 231.995 273.303 231.995Z" fill="black"/>
<path d="M272.733 226.994C272.676 226.992 272.62 226.979 272.567 226.955C272.515 226.932 272.468 226.898 272.429 226.857C272.39 226.815 272.359 226.766 272.339 226.712C272.318 226.659 272.309 226.602 272.311 226.545C273.236 193.838 287.534 173.868 299.5 166.709C299.6 166.649 299.719 166.632 299.832 166.66C299.944 166.688 300.041 166.76 300.1 166.86C300.16 166.959 300.177 167.078 300.149 167.191C300.121 167.303 300.049 167.4 299.949 167.46C288.171 174.505 274.101 194.213 273.182 226.565C273.181 226.622 273.169 226.68 273.146 226.733C273.123 226.785 273.089 226.833 273.048 226.873C273.006 226.913 272.956 226.944 272.902 226.965C272.848 226.986 272.791 226.995 272.733 226.994Z" fill="white"/>
<path d="M275.255 233L271.4 231.023C271.4 231.023 271.876 220.672 279.807 207.185C286.845 195.206 301.11 185.821 307.103 189.166C311.756 191.753 312.828 197.424 308.37 201.198C303.913 204.973 283.333 212.889 275.255 233Z" fill="#2FA5A9"/>
<path d="M273.706 229.695C274.376 229.829 274.611 228.174 274.745 227.751C275 226.96 275.268 226.183 275.563 225.405C276.14 223.893 276.796 222.411 277.527 220.967C278.935 218.189 280.583 215.54 282.454 213.05C284.202 210.719 286.108 208.511 288.159 206.441C290.009 204.579 291.955 202.816 293.991 201.158C295.693 199.764 297.463 198.443 299.28 197.203C300.62 196.292 301.961 195.42 303.362 194.602C304.093 194.173 304.824 193.751 305.581 193.362L305.796 193.255C305.916 193.196 306.007 193.092 306.051 192.966C306.094 192.84 306.086 192.701 306.027 192.581C305.968 192.461 305.864 192.369 305.738 192.326C305.612 192.283 305.473 192.291 305.353 192.35C304.884 192.578 304.435 192.832 304.012 193.087C302.833 193.758 301.68 194.428 300.547 195.179C298.866 196.265 297.226 197.413 295.626 198.624C293.642 200.126 291.736 201.719 289.908 203.404C287.825 205.312 285.863 207.349 284.036 209.504C282.055 211.827 280.261 214.304 278.673 216.912C276.983 219.671 275.569 222.59 274.45 225.626C274.24 226.212 274.039 226.795 273.847 227.376C273.565 227.956 273.394 228.583 273.344 229.226C273.352 229.328 273.388 229.426 273.449 229.509C273.509 229.592 273.591 229.656 273.686 229.695H273.706Z" fill="white"/>
<path d="M54.9492 213.614C54.9492 213.614 55.0565 200.468 49.888 189.588C44.7196 178.708 36.6351 171.348 28.4367 169.665C20.2383 167.983 12.6767 174.753 20.855 181.061C29.0333 187.369 44.056 194.669 48.8557 215.102L54.9492 213.614Z" fill="#2FA5A9"/>
<path opacity="0.15" d="M54.9492 213.614C54.9492 213.614 55.0565 200.468 49.888 189.588C44.7196 178.708 36.6351 171.348 28.4367 169.665C20.2383 167.983 12.6767 174.753 20.855 181.061C29.0333 187.369 44.056 194.669 48.8557 215.102L54.9492 213.614Z" fill="black"/>
<path d="M51.5308 211.341C51.4453 211.341 51.363 211.309 51.3007 211.25C51.2383 211.191 51.2008 211.111 51.1957 211.026C49.9354 189.984 32.6 176.302 24.0329 173.969C23.9479 173.945 23.8755 173.889 23.8316 173.813C23.7876 173.736 23.7757 173.645 23.7983 173.56C23.8219 173.473 23.8787 173.399 23.9565 173.354C24.0343 173.309 24.1268 173.296 24.2139 173.319C32.9285 175.698 50.5856 189.608 51.866 210.986C51.8681 211.074 51.8368 211.159 51.7783 211.225C51.7199 211.291 51.6386 211.333 51.5509 211.341H51.5308Z" fill="white"/>
<path d="M56.0067 231.659C57.6674 229.564 58.7818 227.089 59.2498 224.456C59.7178 221.824 59.5248 219.116 58.6882 216.577C58.2015 215.043 57.4231 213.618 56.3955 212.38C55.571 211.408 54.3845 210.905 53.4192 210.094C51.3411 208.371 48.9278 206.541 48.177 203.806C47.5737 201.628 47.7011 199.563 46.4944 197.518C45.7835 196.238 44.6513 195.243 43.2901 194.703C41.5137 194.033 39.5563 194.475 37.6793 194.703C34.9979 195.005 32.9868 194.079 30.6674 192.846C28.1133 191.505 25.1303 190.446 22.3617 191.271C21.4613 191.537 20.627 191.99 19.9128 192.6C19.1987 193.21 18.6207 193.963 18.2162 194.811C17.8117 195.658 17.5898 196.581 17.5649 197.52C17.5399 198.459 17.7125 199.392 18.0714 200.26C18.6882 201.762 19.8278 202.982 20.6657 204.376C21.5036 205.77 21.9461 207.366 21.3361 208.888C20.8668 210.014 19.9953 210.899 19.6468 212.045C18.6546 215.061 19.211 217.743 22.2075 219.298C25.3381 220.9 30.2518 219.694 31.8204 223.629C32.4103 225.124 32.4304 226.779 32.7522 228.355C33.4126 231.525 35.256 234.325 37.9072 236.184C41.507 238.685 46.3939 238.075 50.1277 236.332C52.4217 235.249 54.4339 233.65 56.0067 231.659Z" fill="#2FA5A9"/>
<path d="M27.7853 212.621C27.8586 212.634 27.9339 212.622 27.9998 212.588C30.6401 211.567 33.4736 211.144 36.297 211.348C39.1203 211.552 41.8635 212.378 44.3297 213.768C44.4141 213.813 44.5131 213.823 44.6048 213.795C44.6965 213.767 44.7736 213.705 44.819 213.62C44.8426 213.579 44.8576 213.534 44.8632 213.486C44.8689 213.439 44.865 213.391 44.8519 213.346C44.8388 213.3 44.8167 213.258 44.7868 213.221C44.757 213.184 44.7201 213.153 44.6782 213.131C42.116 211.692 39.2668 210.839 36.3355 210.632C33.4041 210.426 30.4635 210.872 27.725 211.938C27.6606 211.973 27.6085 212.027 27.5755 212.093C27.5426 212.158 27.5304 212.232 27.5406 212.305C27.5508 212.378 27.5829 212.446 27.6326 212.5C27.6823 212.554 27.7472 212.592 27.8188 212.608L27.7853 212.621Z" fill="white"/>
<path d="M51.1951 231.773C51.1074 231.775 51.0224 231.743 50.9584 231.682C50.8945 231.622 50.8567 231.539 50.8533 231.452C50.2298 216.302 35.0195 200.28 24.8234 195.923C24.7822 195.906 24.7448 195.881 24.7134 195.85C24.6819 195.818 24.657 195.781 24.6402 195.74C24.6233 195.698 24.6149 195.654 24.6152 195.61C24.6156 195.565 24.6249 195.521 24.6424 195.48C24.6791 195.398 24.7469 195.333 24.8311 195.301C24.9152 195.268 25.0089 195.27 25.0916 195.306C35.4485 199.744 50.8935 216.033 51.5303 231.438C51.5321 231.483 51.525 231.528 51.5095 231.57C51.4939 231.612 51.4702 231.651 51.4397 231.684C51.4092 231.717 51.3725 231.744 51.3317 231.762C51.2909 231.781 51.2467 231.792 51.2018 231.793L51.1951 231.773Z" fill="white"/>
<path d="M135.151 15.2961L59.2803 59.0837C58.529 59.5741 57.9046 60.2356 57.4583 61.014C57.0121 61.7924 56.7566 62.6654 56.7129 63.5616V242.231C56.7129 243.867 57.8659 244.53 59.2803 243.706L135.151 199.905C135.897 199.415 136.518 198.758 136.964 197.985C137.41 197.212 137.668 196.345 137.718 195.454V16.7575C137.718 15.1219 136.565 14.4515 135.151 15.2961ZM134.025 182.214C134.025 183.615 133.039 184.507 131.826 185.204L62.3506 225.331C61.1439 226.002 60.1518 225.465 60.1518 224.058V75.4738C60.1521 74.7055 60.3548 73.9509 60.7397 73.2859C61.1245 72.621 61.6778 72.0693 62.3439 71.6863L131.819 31.5522C132.042 31.4227 132.295 31.3542 132.553 31.3536C132.811 31.353 133.064 31.4203 133.288 31.5487C133.512 31.6771 133.697 31.8622 133.827 32.0852C133.956 32.3082 134.024 32.5614 134.025 32.8192V182.214Z" fill="#455A64"/>
<path d="M134.023 182.214C134.023 183.615 133.038 184.507 131.825 185.204L62.3491 225.331C61.1425 226.002 60.1504 225.465 60.1504 224.058V75.4738C60.1507 74.7055 60.3534 73.9509 60.7383 73.2859C61.1231 72.621 61.6764 72.0692 62.3424 71.6863L131.818 31.5522C132.041 31.4227 132.294 31.3542 132.552 31.3536C132.81 31.353 133.063 31.4202 133.287 31.5487C133.51 31.6771 133.696 31.8621 133.825 32.0852C133.955 32.3082 134.023 32.5614 134.023 32.8192V182.214Z" fill="#263238"/>
<path d="M62.3491 225.331L131.825 185.217C132.312 184.954 132.763 184.627 133.165 184.245L60.1504 143.126V224.058C60.1504 225.465 61.1425 226.029 62.3491 225.331Z" fill="#37474F"/>
<path d="M128.399 179.607V33.5297L62.3424 71.6863C61.6764 72.0692 61.1231 72.621 60.7383 73.2859C60.3534 73.9508 60.1507 74.7055 60.1504 75.4738V220.733L126.2 182.596C127.414 181.899 128.399 181.008 128.399 179.607Z" fill="#2FA5A9"/>
<path d="M58.9582 243.887C58.1921 244.21 57.365 244.363 56.534 244.335C55.703 244.307 54.8879 244.099 54.1451 243.726L51.2089 242.03C50.4597 241.545 49.8359 240.889 49.3885 240.117C48.9411 239.344 48.6828 238.477 48.6348 237.585V58.8691C48.6517 58.2068 48.8021 57.5547 49.0772 56.9519C49.1711 56.7441 49.2716 56.543 49.3856 56.3352L57.4298 61.0277C57.2607 61.3299 57.1129 61.6435 56.9874 61.9662C56.7921 62.4738 56.6855 63.0112 56.6723 63.5549V242.231C56.7125 243.739 57.6912 244.423 58.9582 243.887Z" fill="#263238"/>
<path d="M99.4811 207.889C101.123 207.889 101.298 209.732 101.298 210.523C101.2 212.108 100.735 213.649 99.9405 215.024C99.146 216.399 98.0433 217.57 96.7192 218.447C96.1879 218.784 95.5781 218.978 94.9495 219.01C93.3071 219.01 93.1328 217.166 93.1328 216.375C93.2317 214.791 93.6959 213.25 94.489 211.874C95.2821 210.499 96.3827 209.325 97.7046 208.445C98.2404 208.113 98.8515 207.922 99.4811 207.889Z" fill="#2FA5A9"/>
<path d="M97.1607 40.0389C97.831 39.6367 98.4142 39.9584 98.4142 40.7629C98.3899 41.1977 98.2638 41.6208 98.0461 41.9981C97.8283 42.3753 97.525 42.6962 97.1607 42.9348C96.4903 43.3303 95.9004 43.0085 95.9004 42.2108C95.9233 41.7748 96.0496 41.3506 96.2687 40.9729C96.4878 40.5953 96.7935 40.2752 97.1607 40.0389Z" fill="#263238"/>
<path d="M89.064 50.6238C89.6807 50.2685 90.1767 50.5567 90.1767 51.2941C90.1563 51.6799 90.0448 52.0553 89.8514 52.3897C89.658 52.7241 89.3881 53.008 89.064 53.218C88.4472 53.5733 87.9512 53.2851 87.9512 52.5477C87.9727 52.1622 88.0846 51.7871 88.2779 51.4529C88.4712 51.1187 88.7405 50.8346 89.064 50.6238Z" fill="#263238"/>
<path d="M92.7842 48.425L105.246 41.2321C105.916 40.8366 106.48 41.1182 106.48 41.8556C106.447 42.2697 106.318 42.6705 106.104 43.0265C105.89 43.3825 105.597 43.6838 105.246 43.9069L92.7842 51.0998C92.1139 51.4953 91.5508 51.2137 91.5508 50.4763C91.5834 50.0622 91.7119 49.6614 91.9259 49.3054C92.14 48.9494 92.4338 48.6481 92.7842 48.425Z" fill="#263238"/>
<path d="M137.69 16.3486C137.502 15.0079 136.437 14.5319 135.156 15.276L59.2722 59.0836C58.5129 59.555 57.8891 60.2157 57.4622 61.0008L49.418 56.3083C49.8516 55.5294 50.4769 54.8741 51.2346 54.4045L127.072 10.6036C127.867 10.2002 128.747 9.98999 129.639 9.98999C130.531 9.98999 131.411 10.2002 132.207 10.6036L135.156 12.2929C135.844 12.7489 136.425 13.3468 136.862 14.0463C137.299 14.7459 137.582 15.5309 137.69 16.3486Z" fill="#37474F"/>
<path d="M117.787 21.7716C117.394 21.9819 116.956 22.0958 116.509 22.104C116.063 22.1121 115.621 22.0143 115.22 21.8185C115.085 21.7612 114.969 21.6687 114.883 21.5507C114.797 21.4327 114.744 21.2936 114.73 21.1482C114.73 20.9605 114.73 20.2633 114.73 20.0689C114.752 19.9016 114.816 19.7427 114.917 19.6077C115.018 19.4726 115.153 19.3659 115.307 19.298L123.438 14.6055C123.834 14.3967 124.273 14.2836 124.72 14.2755C125.167 14.2673 125.61 14.3643 126.013 14.5586C126.144 14.6186 126.258 14.712 126.343 14.8296C126.428 14.9472 126.48 15.0848 126.495 15.2289C126.495 15.4233 126.495 16.1473 126.495 16.335C126.474 16.5033 126.41 16.6633 126.309 16.7995C126.208 16.9357 126.074 17.0436 125.919 17.1126L117.787 21.7716Z" fill="#2FA5A9"/>
<path opacity="0.25" d="M117.787 21.7716C117.394 21.9819 116.956 22.0958 116.509 22.104C116.063 22.1121 115.621 22.0143 115.22 21.8185C115.085 21.7612 114.969 21.6687 114.883 21.5507C114.797 21.4327 114.744 21.2936 114.73 21.1482C114.73 20.9605 114.73 20.2633 114.73 20.0689C114.752 19.9016 114.816 19.7427 114.917 19.6077C115.018 19.4726 115.153 19.3659 115.307 19.298L123.438 14.6055C123.834 14.3967 124.273 14.2836 124.72 14.2755C125.167 14.2673 125.61 14.3643 126.013 14.5586C126.144 14.6186 126.258 14.712 126.343 14.8296C126.428 14.9472 126.48 15.0848 126.495 15.2289C126.495 15.4233 126.495 16.1473 126.495 16.335C126.474 16.5033 126.41 16.6633 126.309 16.7995C126.208 16.9357 126.074 17.0436 125.919 17.1126L117.787 21.7716Z" fill="black"/>
<path d="M117.788 20.7059L125.919 16.0134C126.656 15.5844 126.69 14.9208 126.006 14.5253C125.603 14.331 125.161 14.234 124.714 14.2422C124.266 14.2503 123.827 14.3634 123.432 14.5722L115.301 19.2647C114.57 19.687 114.53 20.3506 115.22 20.7461C115.621 20.9414 116.063 21.0395 116.509 21.0325C116.955 21.0255 117.393 20.9136 117.788 20.7059Z" fill="#2FA5A9"/>
<path opacity="0.3" d="M117.788 20.7059L125.919 16.0134C126.656 15.5844 126.69 14.9208 126.006 14.5253C125.603 14.331 125.161 14.234 124.714 14.2422C124.266 14.2503 123.827 14.3634 123.432 14.5722L115.301 19.2647C114.57 19.687 114.53 20.3506 115.22 20.7461C115.621 20.9414 116.063 21.0395 116.509 21.0325C116.955 21.0255 117.393 20.9136 117.788 20.7059Z" fill="black"/>
<path d="M53.7165 85.7972C53.7007 85.3511 53.5794 84.915 53.3627 84.5247C53.146 84.1344 52.84 83.8009 52.4697 83.5516C52.3484 83.462 52.2047 83.4077 52.0544 83.3947C51.9042 83.3816 51.7532 83.4104 51.6183 83.4778C51.4642 83.5717 50.8474 83.9135 50.6865 84.0141C50.5519 84.1161 50.446 84.2512 50.379 84.4062C50.3121 84.5613 50.2864 84.731 50.3044 84.899V104.822C50.3206 105.267 50.4413 105.702 50.6568 106.093C50.8722 106.483 51.1763 106.817 51.5446 107.068C51.6658 107.149 51.8059 107.198 51.9515 107.21C52.097 107.222 52.2432 107.196 52.3758 107.135C52.5501 107.047 53.1736 106.685 53.3411 106.585C53.4758 106.483 53.5817 106.348 53.6487 106.193C53.7156 106.038 53.7413 105.868 53.7233 105.7L53.7165 85.7972Z" fill="#2FA5A9"/>
<path opacity="0.3" d="M53.7165 85.7972C53.7007 85.3511 53.5794 84.915 53.3627 84.5247C53.146 84.1344 52.84 83.8009 52.4697 83.5516C52.3484 83.462 52.2047 83.4077 52.0544 83.3947C51.9042 83.3816 51.7532 83.4104 51.6183 83.4778C51.4642 83.5717 50.8474 83.9135 50.6865 84.0141C50.5519 84.1161 50.446 84.2512 50.379 84.4062C50.3121 84.5613 50.2864 84.731 50.3044 84.899V104.822C50.3206 105.267 50.4413 105.702 50.6568 106.093C50.8722 106.483 51.1763 106.817 51.5446 107.068C51.6658 107.149 51.8059 107.198 51.9515 107.21C52.097 107.222 52.2432 107.196 52.3758 107.135C52.5501 107.047 53.1736 106.685 53.3411 106.585C53.4758 106.483 53.5817 106.348 53.6487 106.193C53.7156 106.038 53.7413 105.868 53.7233 105.7L53.7165 85.7972Z" fill="black"/>
<path d="M52.7917 86.3536V106.277C52.7917 107.121 52.2353 107.483 51.5448 107.088C51.1766 106.837 50.8724 106.503 50.657 106.113C50.4416 105.723 50.3209 105.287 50.3047 104.842V84.8989C50.3047 84.0476 50.8611 83.6856 51.5448 84.0811C51.918 84.3339 52.2256 84.6718 52.4424 85.0669C52.6592 85.4621 52.7789 85.9031 52.7917 86.3536Z" fill="#2FA5A9"/>
<path opacity="0.4" d="M52.7917 86.3536V106.277C52.7917 107.121 52.2353 107.483 51.5448 107.088C51.1766 106.837 50.8724 106.503 50.657 106.113C50.4416 105.723 50.3209 105.287 50.3047 104.842V84.8989C50.3047 84.0476 50.8611 83.6856 51.5448 84.0811C51.918 84.3339 52.2256 84.6718 52.4424 85.0669C52.6592 85.4621 52.7789 85.9031 52.7917 86.3536Z" fill="black"/>
<path d="M53.7165 112.497C53.7007 112.051 53.5794 111.615 53.3627 111.225C53.146 110.835 52.84 110.501 52.4697 110.252C52.3484 110.162 52.2047 110.108 52.0544 110.095C51.9042 110.082 51.7533 110.111 51.6183 110.178C51.4642 110.272 50.8474 110.614 50.6865 110.714C50.5519 110.816 50.446 110.951 50.379 111.106C50.3121 111.261 50.2864 111.431 50.3044 111.599V120.984C50.3217 121.428 50.4429 121.862 50.6582 122.251C50.8736 122.64 51.1772 122.973 51.5446 123.223C51.6618 123.31 51.8 123.364 51.945 123.379C52.09 123.394 52.2364 123.371 52.3691 123.31C52.5434 123.223 53.1669 122.861 53.3344 122.761C53.4685 122.66 53.5742 122.526 53.6412 122.372C53.7081 122.218 53.7341 122.049 53.7165 121.882V112.497Z" fill="#2FA5A9"/>
<path opacity="0.3" d="M53.7165 112.497C53.7007 112.051 53.5794 111.615 53.3627 111.225C53.146 110.835 52.84 110.501 52.4697 110.252C52.3484 110.162 52.2047 110.108 52.0544 110.095C51.9042 110.082 51.7533 110.111 51.6183 110.178C51.4642 110.272 50.8474 110.614 50.6865 110.714C50.5519 110.816 50.446 110.951 50.379 111.106C50.3121 111.261 50.2864 111.431 50.3044 111.599V120.984C50.3217 121.428 50.4429 121.862 50.6582 122.251C50.8736 122.64 51.1772 122.973 51.5446 123.223C51.6618 123.31 51.8 123.364 51.945 123.379C52.09 123.394 52.2364 123.371 52.3691 123.31C52.5434 123.223 53.1669 122.861 53.3344 122.761C53.4685 122.66 53.5742 122.526 53.6412 122.372C53.7081 122.218 53.7341 122.049 53.7165 121.882V112.497Z" fill="black"/>
<path d="M52.7917 113V122.385C52.7917 123.23 52.2353 123.599 51.5448 123.196C51.1766 122.945 50.8724 122.611 50.657 122.221C50.4416 121.831 50.3209 121.396 50.3047 120.951V111.566C50.3047 110.721 50.8611 110.352 51.5448 110.748C51.9145 110.999 52.2199 111.334 52.4365 111.726C52.6531 112.117 52.7747 112.553 52.7917 113Z" fill="#2FA5A9"/>
<path opacity="0.4" d="M52.7917 113V122.385C52.7917 123.23 52.2353 123.599 51.5448 123.196C51.1766 122.945 50.8724 122.611 50.657 122.221C50.4416 121.831 50.3209 121.396 50.3047 120.951V111.566C50.3047 110.721 50.8611 110.352 51.5448 110.748C51.9145 110.999 52.2199 111.334 52.4365 111.726C52.6531 112.117 52.7747 112.553 52.7917 113Z" fill="black"/>
<path d="M75.9327 95.8659C75.9994 96.1914 76.089 96.5117 76.2009 96.8245C76.6366 98.0044 77.4209 99.1171 77.3539 100.377C77.2801 101.799 76.1606 102.898 75.3026 104.031C74.1875 105.529 73.4443 107.27 73.1342 109.112C72.8242 110.953 72.9563 112.842 73.5195 114.622C74.3437 116.791 75.4869 118.825 76.9114 120.656L80.1492 125.248C81.1283 126.533 82.3778 127.588 83.8094 128.338C86.5916 129.91 89.6959 130.827 92.886 131.019C98.1296 131.373 103.346 130.006 107.741 127.125C112.4 124.041 110.349 116.131 115.115 113.241C120.88 109.756 123.628 97.6491 116.563 92.5946C116.563 92.5946 117.702 85.1805 115.611 83.2901C113.527 81.546 110.947 80.5002 108.237 80.3003C104.497 79.9115 100.749 80.6422 97.0153 80.6288C93.1716 80.6164 89.3312 80.856 85.5188 81.3461C84.1781 81.5271 82.2877 82.0164 81.5637 83.3236C81.3593 83.8363 81.3035 84.3962 81.4028 84.9392C81.3924 85.8005 81.0846 86.6318 80.5314 87.2921C79.7001 88.2976 78.5203 88.9747 77.6354 89.9199C76.9052 90.7081 76.3707 91.6569 76.0749 92.6898C75.7791 93.7227 75.7304 94.8107 75.9327 95.8659Z" fill="#263238"/>
<path d="M113.137 106.565C119.17 106.732 119.954 108.019 125.357 113.369C129.849 117.813 144.73 131.549 144.73 131.549L162.562 136.295L158.352 147.175C158.352 147.175 154.33 147.007 146.286 147.001C141.345 147.001 139.629 145.894 134.655 142.576C132.121 140.88 117.822 131.522 117.822 131.522L113.137 106.565Z" fill="#E6E6E6"/>
<path d="M182.291 114.294L149.611 125.811L140.602 164.691L141.332 165.469L172.403 153.878L183.015 115.072L182.291 114.294Z" fill="#2FA5A9"/>
<path opacity="0.35" d="M150.335 126.588L141.332 165.469L140.602 164.691L149.611 125.811L150.335 126.588Z" fill="black"/>
<path opacity="0.25" d="M183.015 115.072L150.335 126.588L141.332 165.469L172.403 153.878L183.015 115.072Z" fill="black"/>
<g opacity="0.2">
<path d="M167.541 145.968C167.843 146.732 170.35 148.415 173.976 148.113L174.586 145.874L167.541 145.968Z" fill="black"/>
</g>
<g opacity="0.1">
<path d="M173.173 123.035L173.441 121.728C173.589 121.011 171.671 121.386 169.158 122.573L163.258 124.356C160.745 125.542 158.372 126.427 158.217 127.145L157.949 128.445L173.173 123.035Z" fill="black"/>
</g>
<path d="M175.116 117.136C175.21 116.687 174.446 116.781 173.42 117.056L171.537 117.693C171.537 117.693 172.308 115.802 167.85 117.022C162.949 118.363 162.842 120.796 162.842 120.796C162.076 121.129 161.29 121.415 160.489 121.654C158.86 122.184 158.686 122.499 158.552 122.955L158.311 123.779L174.969 117.921C174.969 117.921 175.049 117.585 175.116 117.136Z" fill="#37474F"/>
<path d="M173.361 119.637C171.819 120.307 171.183 120.676 170.948 121.788C170.687 123.055 170.633 123.585 170.633 123.585L161.959 127.004C161.959 127.004 162.428 125.134 162.542 124.51C162.656 123.887 161.509 123.887 160.008 124.577L160.363 123.022L173.857 118.014L173.361 119.637Z" fill="#37474F"/>
<path d="M173.615 123.055C173.615 123.055 173.743 122.472 173.89 121.748C174.038 121.024 172.121 121.406 169.607 122.593L163.708 124.376C161.194 125.563 158.814 126.447 158.667 127.165L158.398 128.505L173.615 123.055Z" fill="#37474F"/>
<path d="M179.38 128.371C179.38 128.371 178.22 132.635 177.912 133.734C177.604 134.834 172.254 137.28 169.579 137.616C164.458 138.252 163.875 139.358 165.102 142.978C166.241 146.33 169.573 147.604 174.198 147.061C176.37 146.806 179.367 144.882 180.546 141.524C182.048 137.233 181.217 132.655 181.84 130.128C182.464 127.6 180.681 126.876 179.38 128.371Z" fill="#FFA8A7"/>
<path d="M128.743 187.001L125.277 189.012L123.822 189.85L104.757 200.85L102.156 202.325L97.7656 204.859L99.1063 191.177L101.667 164.684V164.41L101.788 163.223L105.14 128.586L106.608 113.429L107.124 107.993L107.298 106.236H107.392C108.944 105.804 110.585 105.804 112.138 106.236C112.484 106.341 112.821 106.476 113.144 106.639C115.155 107.637 116.495 109.581 117.608 111.626C117.882 112.124 118.128 112.636 118.345 113.161C119.172 115.148 119.809 117.208 120.249 119.315C121.127 123.203 122.26 127.178 122.709 133.446C122.78 135.059 122.695 136.676 122.455 138.273C122.153 142.498 122.101 146.738 122.301 150.969C122.864 160.555 125.277 164.899 128.743 187.001Z" fill="#E0E0E0"/>
<path d="M123.821 189.836L104.756 200.837L102.155 202.325L97.7643 204.859L94.741 206.602L76.3867 217.193C76.5811 209.819 76.6683 201.822 76.494 194.267C76.4403 191.74 76.4202 189.159 76.5275 186.518C76.8761 177.347 78.619 167.513 84.8667 157.163L85.1549 156.64C85.8923 161.018 92.5959 163.86 98.629 164.53L99.2994 164.591C100.057 164.664 100.841 164.698 101.652 164.698H102.162C107.263 164.651 113.303 163.451 120.261 161.098C120.932 164.986 121.602 170.087 122.319 176.054C122.641 178.735 122.967 181.593 123.298 184.627C123.432 186.323 123.64 188.06 123.821 189.836Z" fill="#FFA8A7"/>
<path d="M125.275 188.998L123.82 189.836L104.755 200.837L102.154 202.325L97.7636 204.859L94.7403 206.602L76.3861 217.193L74.375 218.353C74.4756 210.416 74.5426 202.64 74.5359 197.76C74.5359 193.221 74.6364 189.186 74.8845 185.606C75.3738 178.541 76.3928 173.225 78.0955 169.203C80.0933 164.8 82.4568 160.574 85.161 156.566C85.161 156.566 86.8369 162.224 99.3725 163.116H99.4529C100.19 163.169 100.968 163.203 101.786 163.216H102.738C118.344 163.216 120.066 159.281 120.066 159.281C121.591 165.068 122.797 170.933 123.68 176.851C124.01 178.943 124.33 181.177 124.638 183.555C124.866 185.298 125.081 187.108 125.275 188.998Z" fill="#2FA5A9"/>
<path opacity="0.4" d="M125.275 188.998L123.82 189.836L104.755 200.837L102.154 202.325L97.7636 204.859L94.7403 206.602L76.3861 217.193L74.375 218.353C74.4756 210.416 74.5426 202.64 74.5359 197.76C74.5359 193.221 74.6364 189.186 74.8845 185.606C75.3738 178.541 76.3928 173.225 78.0955 169.203C80.0933 164.8 82.4568 160.574 85.161 156.566C85.161 156.566 86.8369 162.224 99.3725 163.116H99.4529C100.19 163.169 100.968 163.203 101.786 163.216H102.738C118.344 163.216 120.066 159.281 120.066 159.281C121.591 165.068 122.797 170.933 123.68 176.851C124.01 178.943 124.33 181.177 124.638 183.555C124.866 185.298 125.081 187.108 125.275 188.998Z" fill="black"/>
<path opacity="0.2" d="M116.328 180.103C116.328 180.103 114.585 185.64 107.251 188.743L106.902 190.439L104.757 200.837L102.156 202.325L103.711 190.855L104.382 185.868C108.914 185.397 113.14 183.358 116.328 180.103Z" fill="black"/>
<path d="M94.0251 107.838L86.6512 108.616C81.771 109.809 79.5656 111.968 79.0628 116.278C78.8282 118.289 77.6148 123.652 79.3175 130.356C80.8593 136.442 84.9753 151.338 84.9753 151.338C84.9753 151.338 75.5032 163.699 73.7871 184.896C91.1225 196.211 117.715 190.131 124.908 183.293C124.305 176.818 120.169 159.047 119.653 153.275C119.653 153.275 120.035 144.259 120.752 140.351C126.236 134.364 125.538 128.64 123.078 124.021C118.533 115.494 111.682 107.999 109.463 108.006L94.0251 107.838Z" fill="#2FA5A9"/>
<path opacity="0.7" d="M94.0251 107.838L86.6512 108.616C81.771 109.809 79.5656 111.968 79.0628 116.278C78.8282 118.289 77.6148 123.652 79.3175 130.356C80.8593 136.442 84.9753 151.338 84.9753 151.338C84.9753 151.338 75.5032 163.699 73.7871 184.896C91.1225 196.211 117.715 190.131 124.908 183.293C124.305 176.818 120.169 159.047 119.653 153.275C119.653 153.275 120.035 144.259 120.752 140.351C126.236 134.364 125.538 128.64 123.078 124.021C118.533 115.494 111.682 107.999 109.463 108.006L94.0251 107.838Z" fill="white"/>
<path d="M100.412 153.992C100.412 154.126 100.412 154.247 100.412 154.348V154.522C100.417 154.578 100.417 154.634 100.412 154.689C100.158 157.371 99.856 160.22 99.5343 163.122C99.5343 163.122 99.5343 163.122 99.5343 163.163C99.4873 163.632 99.4337 164.101 99.3801 164.577C98.3947 173.325 97.2215 182.677 96.3166 191.19C96.0954 193.255 95.8942 195.266 95.7132 197.223C95.4317 200.153 95.13 203.364 94.8217 206.608L76.4674 217.2L74.4563 218.36L69.3281 221.316C70.3605 211.16 72.767 187.631 74.1077 177.012C74.2619 175.812 74.463 174.612 74.691 173.419L74.8719 172.548L74.9524 172.192C75.0395 171.79 75.1267 171.401 75.2205 171.006C75.3144 170.61 75.4015 170.275 75.4887 169.92C75.6965 169.109 75.9177 168.311 76.159 167.533C76.273 167.158 76.3802 166.783 76.5009 166.414C76.6216 166.045 76.7221 165.677 76.8428 165.315C77.0841 164.591 77.3187 163.88 77.5668 163.19C77.5639 163.176 77.5639 163.163 77.5668 163.149C77.6807 162.821 77.8014 162.479 77.9221 162.171C78.0829 161.715 78.2505 161.272 78.4181 160.83L78.6192 160.3C78.7198 160.059 78.8069 159.824 78.9008 159.59C79.2293 158.765 79.5711 157.981 79.8728 157.25C79.9398 157.089 80.0136 156.928 80.0806 156.774C80.1476 156.62 80.2549 156.392 80.3353 156.204C80.5364 155.735 80.7375 155.299 80.932 154.864C81.0124 154.676 81.0995 154.495 81.18 154.321C81.2604 154.146 81.3744 153.919 81.4615 153.731L81.5889 153.463L81.723 153.201C81.7317 153.167 81.7477 153.135 81.7699 153.107C81.7882 153.059 81.8106 153.012 81.8369 152.967C81.8531 152.937 81.8666 152.905 81.8771 152.873C81.933 152.778 81.9822 152.679 82.0246 152.578L82.4738 151.706C82.4738 151.659 82.5207 151.626 82.5341 151.586L82.7084 151.264L77.131 128.137L74.3558 116.647V116.459C74.4831 115.44 75.3345 110.634 80.2415 109.172C83.0118 108.457 85.8495 108.035 88.708 107.912C89.8074 107.845 90.7996 107.818 91.6107 107.798H92.8911H93.662C93.6637 107.814 93.6637 107.83 93.662 107.845C93.7022 107.946 93.8161 108.247 93.9904 108.717C94.0093 108.795 94.0362 108.872 94.0709 108.945C94.0715 108.956 94.0715 108.967 94.0709 108.978C95.2775 112.29 98.6628 121.929 100.345 130.302C100.64 131.75 100.882 133.164 101.056 134.505C101.559 138.695 101.19 145.707 100.412 153.992Z" fill="#FAFAFA"/>
<path d="M82.8897 140.19C82.8897 140.19 83.56 136.885 84.5454 129.746C85.6917 121.514 85.2828 117.445 84.0427 114.844L77.0509 128.177L82.6282 151.304C82.6282 151.304 76.8967 161.802 74.584 173.426C80.0675 157.934 86.0671 153.315 86.0671 153.315L82.8897 140.19Z" fill="#E6E6E6"/>
<path d="M107.385 102.677C109.557 102.677 109.811 103.039 111.682 105.546C112.795 107.041 119.84 118.671 119.84 118.671C119.84 118.671 114.236 111.297 110.006 109.059C109.192 108.581 108.31 108.229 107.391 108.013L107.385 102.677Z" fill="#EBEBEB"/>
<path d="M91.3239 127.393C91.3239 126.722 91.2568 125.274 91.1429 123.451C90.5865 114.508 90.3183 106.464 93.3349 105.794L93.5964 107.027C91.3976 107.503 92.1216 119.013 92.3964 123.344C92.5171 125.207 92.6109 126.695 92.5774 127.419L91.3239 127.393Z" fill="#2FA5A9"/>
<path d="M81.2676 68.844L85.9601 72.6851C86.2152 72.3931 86.408 72.0521 86.5267 71.683C86.6454 71.3139 86.6876 70.9245 86.6505 70.5385C86.6135 70.1526 86.4981 69.7783 86.3114 69.4385C86.1246 69.0987 85.8705 68.8006 85.5645 68.5624C84.9476 68.0522 84.159 67.7972 83.3601 67.8496C82.5613 67.9019 81.8127 68.2576 81.2676 68.844Z" fill="#263238"/>
<path d="M93.5212 103.247C93.5212 100.304 86.6634 95.8726 83.124 89.6853C79.5845 83.4979 81.3542 73.3219 86.2076 71.76C86.2478 71.76 86.3819 70.4528 86.402 70.359C86.6704 69.1783 87.1228 68.0472 87.7427 67.0072C89.7202 63.6018 93.91 60.974 97.798 60.4243C113.169 58.1853 120.235 64.1582 123.057 70.7277C123.972 72.9376 124.379 75.3245 124.25 77.7127C124.171 79.4668 123.52 81.1468 122.397 82.4964C121.274 83.846 119.74 84.791 118.029 85.1872L93.5212 103.247Z" fill="#263238"/>
<path d="M114.846 68.5289C117.856 69.8696 120.718 74.4482 120.671 87.3324C120.631 98.2591 117.279 101.021 115.59 101.832C113.901 102.643 110.596 102.228 107.385 101.738V108.013C107.385 108.013 109.792 110.379 108.947 111.867C108.102 113.355 104.985 114.616 100.138 113.094C94.6482 111.371 93.3947 107.731 93.3947 107.731L93.2673 93.9622C93.2673 93.9622 91.4238 95.8995 88.1726 93.0572C85.4912 90.7042 84.5259 86.6754 86.5437 84.4632C88.5614 82.2511 91.149 82.0768 93.4818 84.5504L95.1577 83.6655C98.1475 83.3169 102.532 82.8142 105.763 81.1852C114.048 76.9687 114.906 72.3969 114.846 68.5289Z" fill="#FFA8A7"/>
<path d="M93.5293 82.7672L93.5695 88.8004C93.957 88.8107 94.3424 88.7416 94.7022 88.5974C95.0619 88.4532 95.3884 88.237 95.6615 87.962C95.9347 87.687 96.1486 87.359 96.2904 86.9983C96.4321 86.6375 96.4985 86.2516 96.4856 85.8643C96.4783 85.0691 96.1687 84.3065 95.6196 83.7313C95.0706 83.1562 94.3232 82.8114 93.5293 82.7672Z" fill="#263238"/>
<path d="M115.129 83.6253C115.132 83.9087 115.218 84.1851 115.376 84.4202C115.535 84.6553 115.759 84.8386 116.02 84.9476C116.282 85.0566 116.57 85.0863 116.848 85.0331C117.127 84.98 117.384 84.8462 117.587 84.6485C117.79 84.4508 117.93 84.1978 117.991 83.9209C118.052 83.644 118.03 83.3554 117.928 83.0908C117.826 82.8263 117.649 82.5974 117.418 82.4326C117.188 82.2678 116.914 82.1744 116.631 82.1639C116.435 82.1594 116.242 82.1939 116.06 82.2653C115.878 82.3366 115.713 82.4435 115.573 82.5795C115.433 82.7156 115.322 82.8781 115.246 83.0577C115.169 83.2372 115.13 83.4302 115.129 83.6253Z" fill="black"/>
<path d="M103.565 84.2688C103.553 84.4766 103.583 84.6847 103.651 84.8812C103.72 85.0776 103.827 85.2586 103.966 85.4136C104.105 85.5687 104.273 85.6948 104.461 85.7848C104.648 85.8748 104.852 85.9268 105.06 85.938C105.271 85.9397 105.48 85.8998 105.676 85.8205C105.871 85.7412 106.049 85.6241 106.199 85.4758C106.349 85.3276 106.469 85.1512 106.55 84.9567C106.632 84.7622 106.675 84.5535 106.675 84.3425C106.682 84.1383 106.648 83.9347 106.576 83.7435C106.504 83.5523 106.395 83.3772 106.256 83.2281C106.116 83.079 105.948 82.9589 105.762 82.8746C105.576 82.7904 105.375 82.7436 105.171 82.737C104.966 82.7304 104.763 82.7641 104.572 82.8362C104.38 82.9082 104.205 83.0172 104.056 83.157C103.907 83.2967 103.787 83.4645 103.703 83.6506C103.618 83.8368 103.572 84.0377 103.565 84.242V84.2688Z" fill="black"/>
<path d="M118.96 80.9237L115.227 79.4423C115.313 79.191 115.45 78.9604 115.63 78.7646C115.809 78.5689 116.027 78.4123 116.27 78.3047C116.513 78.1971 116.776 78.1408 117.041 78.1393C117.307 78.1378 117.57 78.1911 117.814 78.2959C118.306 78.5029 118.7 78.8913 118.913 79.3805C119.126 79.8697 119.143 80.4223 118.96 80.9237Z" fill="black"/>
<path d="M111.588 82.4454L111.4 91.3879L116.207 90.3221L111.588 82.4454Z" fill="#F28F8F"/>
<path d="M105.924 93.2113L110.617 94.666C110.548 94.9859 110.415 95.2883 110.225 95.5545C110.035 95.8207 109.792 96.045 109.512 96.2135C109.232 96.382 108.92 96.491 108.595 96.5339C108.271 96.5767 107.941 96.5524 107.627 96.4625C106.983 96.2386 106.449 95.7778 106.132 95.1739C105.816 94.5699 105.742 93.8681 105.924 93.2113Z" fill="#B16668"/>
<path d="M108.518 96.543C108.512 95.8905 108.249 95.2664 107.786 94.8069C107.323 94.3473 106.697 94.0895 106.044 94.0895C105.979 94.0862 105.914 94.0862 105.85 94.0895C105.874 94.6133 106.055 95.1177 106.369 95.5373C106.683 95.9569 107.117 96.2723 107.613 96.4425C107.904 96.5386 108.212 96.5728 108.518 96.543Z" fill="#F28F8F"/>
<path d="M107.385 101.772C104 101.37 97.0216 99.4255 95.8887 96.5899C96.3426 98.0133 97.2137 99.2674 98.3891 100.19C100.494 102 107.385 103.883 107.385 103.883V101.772Z" fill="#F28F8F"/>
<path d="M93.3614 102.71C92.4765 102.529 91.6922 102.918 90.9683 104.138C90.2443 105.358 88.6555 107.959 88.6555 107.959C88.6555 107.959 87.831 116.533 88.6555 118.685C89.3661 120.535 97.2025 127.473 97.2025 127.473C97.2025 127.473 95.158 135.175 95.0842 137.703C95.0105 140.23 99.7767 149.823 100.353 154.73C100.353 154.73 102.049 139.312 101.319 133.754C100.058 124.121 95.5401 111.68 93.4083 107.724L93.3614 102.71Z" fill="#EBEBEB"/>
<path d="M98.154 134.619C97.631 133.374 97.0147 132.171 96.3105 131.019C95.1977 129.176 93.8235 127.406 92.5833 126.95C92.3953 126.876 92.1956 126.835 91.9934 126.83H91.9264C91.7222 126.841 91.5221 126.891 91.3365 126.977C90.3578 127.413 89.3254 128.747 88.4875 130.282C87.6293 131.823 86.9222 133.444 86.3759 135.122C86.0541 136.161 86.1949 138.366 86.577 140.887C87.3278 145.78 88.9969 151.894 89.9287 153.101C90.6117 153.944 91.4186 154.678 92.3219 155.279C91.7688 155.645 91.172 155.94 90.5455 156.158C90.191 156.287 89.8166 156.353 89.4394 156.352V157.23H89.5466C89.9451 157.224 90.3405 157.158 90.7197 157.036C91.5984 156.751 92.4281 156.332 93.1799 155.796C93.9736 156.268 94.8349 156.616 95.734 156.828C96.1573 156.929 96.5951 156.957 97.0278 156.908L96.9205 156.037C96.5451 156.069 96.167 156.039 95.801 155.95C95.1561 155.782 94.5347 155.534 93.9509 155.212C94.8016 154.535 95.5471 153.735 96.163 152.839C96.6859 152.042 97.3294 149.293 97.8121 146.136C98.107 144.252 98.3484 142.228 98.4824 140.384C98.6299 137.81 98.5629 135.605 98.154 134.619ZM95.3854 152.357C94.7565 153.264 93.9845 154.063 93.0995 154.723C92.1594 154.142 91.3214 153.411 90.6192 152.558C89.7477 151.425 88.1389 145.459 87.4149 140.753C87.0462 138.373 86.9121 136.315 87.2071 135.39C87.7538 133.692 88.4772 132.056 89.3656 130.51C90.2907 128.914 91.2761 127.741 91.9599 127.714C92.771 127.714 94.0849 129.183 95.3117 131.066C95.5597 131.435 95.7943 131.837 96.0222 132.239C96.5223 133.106 96.97 134.001 97.363 134.921C97.7316 135.832 97.7719 137.89 97.6043 140.284C97.5104 141.624 97.363 143.025 97.1753 144.42C96.6658 148.06 95.9485 151.472 95.3854 152.337V152.357Z" fill="#455A64"/>
<path d="M98.2271 156.392C98.2376 156.648 98.1718 156.901 98.0382 157.12C97.9047 157.338 97.7092 157.512 97.4767 157.619C97.2442 157.727 96.9851 157.763 96.7322 157.723C96.4792 157.683 96.2439 157.569 96.0559 157.395C95.8679 157.221 95.7357 156.995 95.6761 156.746C95.6165 156.497 95.6322 156.236 95.7212 155.996C95.8101 155.755 95.9683 155.547 96.1757 155.397C96.3832 155.247 96.6305 155.161 96.8864 155.152C97.2285 155.139 97.5616 155.263 97.8129 155.495C98.0642 155.728 98.2132 156.05 98.2271 156.392Z" fill="#263238"/>
<path d="M90.7132 156.741C90.7249 156.997 90.6604 157.251 90.5276 157.47C90.3949 157.689 90.2 157.864 89.9677 157.973C89.7354 158.081 89.4761 158.118 89.2227 158.079C88.9694 158.04 88.7334 157.926 88.5448 157.752C88.3561 157.579 88.2233 157.353 88.1631 157.104C88.1029 156.855 88.1181 156.593 88.2068 156.353C88.2955 156.112 88.4536 155.903 88.6612 155.753C88.8687 155.602 89.1163 155.517 89.3724 155.507C89.5415 155.5 89.7103 155.526 89.8692 155.584C90.0281 155.643 90.174 155.731 90.2986 155.846C90.4231 155.961 90.5238 156.099 90.5949 156.252C90.6661 156.406 90.7063 156.572 90.7132 156.741Z" fill="#263238"/>
<path d="M98.3769 140.371L97.6328 140.317C97.557 140.31 97.4867 140.274 97.4367 140.217C97.3867 140.159 97.3609 140.085 97.3647 140.009C97.5189 137.548 97.4384 135.739 97.1368 135.015C95.8363 131.837 93.1146 127.855 91.9683 127.902C90.822 127.949 88.449 132.152 87.4166 135.423C87.182 136.174 87.2558 137.984 87.611 140.424C87.6227 140.499 87.6047 140.575 87.5608 140.636C87.517 140.698 87.4507 140.74 87.3764 140.753L86.639 140.867C86.5617 140.876 86.4838 140.855 86.4223 140.807C86.3608 140.759 86.3206 140.689 86.3106 140.612C85.9016 137.877 85.8547 136 86.1631 135.028C86.7128 133.272 89.307 126.695 91.9147 126.588C94.5224 126.481 97.6663 132.809 98.3635 134.518C98.7456 135.457 98.8596 137.334 98.6853 140.089C98.6801 140.167 98.6452 140.239 98.5877 140.292C98.5302 140.344 98.4547 140.373 98.3769 140.371Z" fill="#2FA5A9"/>
<path d="M82.3004 109.085C77.3934 109.005 75.1276 110.661 72.0171 114.824C69.5502 118.128 59.9508 135.987 56.7666 141.202L39.4313 131.938C35.9253 129.518 34.7924 125.697 32.5735 123.464C30.3547 121.232 28.0554 120.783 25.6153 118.94C23.1752 117.096 22.1831 115.661 21.4792 117.384C20.7753 119.107 23.4902 121.896 24.0064 122.586C24.5226 123.277 27.2442 124.812 23.7115 124.865C20.1787 124.919 13.1869 121.259 11.4842 120.609C9.78152 119.958 9.88207 121.99 10.72 123.29C11.558 124.591 11.5177 128.264 12.9322 130.389C14.4271 132.642 15.2449 133.62 18.5766 135.082C21.6736 136.422 28.176 136.959 31.4675 139.017C34.7589 141.075 42.9171 148.328 47.8777 152.678C54.1857 158.209 58.5363 159.221 62.049 155.903C65.4611 152.33 68.9201 148.14 70.6094 146.015C75.1611 140.284 82.3607 127.245 82.3607 127.245C82.3607 127.245 85.4778 120.542 82.3004 109.085Z" fill="#FFA8A7"/>
<path d="M82.978 108.596C75.7516 108.596 73.593 111.21 69.8927 117.25C66.1923 123.29 56.7001 140.579 56.7001 140.579L43.0316 133.419C43.0316 133.419 40.5714 138.836 37.957 144.42C37.957 144.42 45.6929 151.123 49.353 154.294C53.0132 157.465 57.8665 159.952 62.3646 156.07C67.171 151.928 82.7568 130.403 82.7568 130.403C86.4571 123.686 85.6326 113.503 82.978 108.596Z" fill="#F0F0F0"/>
<path d="M56.6992 140.579C58.9315 143.206 61.633 146.163 61.5124 148.489C61.5124 148.489 63.0408 146.424 57.6712 138.815L56.6992 140.579Z" fill="#E0E0E0"/>
<path d="M30.841 76.1106L25.2503 79.3149L25.2704 72.8929L21.0874 70.4796L11.3337 76.1106V87.3725L1.58008 93.0035V104.265L5.76308 106.679L11.3337 103.461V109.903L15.5167 112.316L25.2704 106.679V95.4168L35.024 89.7858V78.5239L30.841 76.1106Z" fill="#2FA5A9"/>
<path d="M5.76367 95.4167V106.679L15.5173 101.048V112.316L25.271 106.679V95.4167L35.0246 89.7857V78.5238L25.2374 84.1749L25.271 72.8928L15.5173 78.5238V89.7857L5.76367 95.4167Z" fill="#2FA5A9"/>
<g opacity="0.2">
<path d="M5.76308 106.679L1.58008 104.265V93.0035L5.76308 95.4168V106.679Z" fill="black"/>
<path d="M15.517 78.5238L11.334 76.1105V87.3725L15.517 89.7857V78.5238Z" fill="black"/>
<path d="M15.517 112.316L11.334 109.903V103.461L15.517 101.048V112.316Z" fill="black"/>
</g>
<g opacity="0.5">
<path d="M15.5167 89.7858L11.3337 87.3726L1.58008 93.0035L5.76308 95.4168L15.5167 89.7858Z" fill="white"/>
<path d="M25.2706 72.8929L21.0876 70.4796L11.334 76.1106L15.517 78.5239L25.2706 72.8929Z" fill="white"/>
<path d="M35.0235 78.5239L30.8405 76.1106L25.2497 79.3149L25.2363 84.1749L35.0235 78.5239Z" fill="white"/>
</g>
<path d="M191.272 53.5062C191.095 53.3528 190.904 53.2159 190.702 53.0973C189.991 52.6749 186.773 50.8248 186.606 50.7242C184.903 49.6382 182.208 49.8796 179.809 51.0929C176.37 52.8291 173.507 56.496 171.322 62.6029C171.322 62.6029 169.11 61.0141 168.392 60.5918C166.616 59.6198 164.538 60.0891 162.198 61.6108C159.564 63.3269 157.767 65.5524 156.125 68.9176V68.9779C154.702 71.8354 153.924 74.9705 153.846 78.1618C153.846 85.2206 156.735 88.5858 160.496 91.113C161.568 91.837 164.404 93.3587 164.685 93.5464C166.955 95.0449 169.465 96.1424 172.106 96.7909L175.813 97.6557L179.52 92.5141C182.219 88.723 184.697 84.7792 186.941 80.7024C190.702 73.8313 193.645 67.101 193.591 60.0689C193.537 57.0591 192.673 54.8469 191.272 53.5062Z" fill="#2FA5A9"/>
<path opacity="0.3" d="M191.272 53.5062C191.095 53.3528 190.904 53.2159 190.702 53.0973C189.991 52.6749 186.773 50.8248 186.606 50.7242C184.903 49.6382 182.208 49.8796 179.809 51.0929C176.37 52.8291 173.507 56.496 171.322 62.6029C171.322 62.6029 169.11 61.0141 168.392 60.5918C166.616 59.6198 164.538 60.0891 162.198 61.6108C159.564 63.3269 157.767 65.5524 156.125 68.9176V68.9779C154.702 71.8354 153.924 74.9705 153.846 78.1618C153.846 85.2206 156.735 88.5858 160.496 91.113C161.568 91.837 164.404 93.3587 164.685 93.5464C166.955 95.0449 169.465 96.1424 172.106 96.7909L175.813 97.6557L179.52 92.5141C182.219 88.723 184.697 84.7792 186.941 80.7024C190.702 73.8313 193.645 67.101 193.591 60.0689C193.537 57.0591 192.673 54.8469 191.272 53.5062Z" fill="black"/>
<path d="M191.272 53.5062C191.095 53.3528 190.904 53.2159 190.702 53.0973C189.991 52.6749 186.773 50.8248 186.606 50.7242C184.903 49.6382 182.208 49.8796 179.809 51.0929C176.37 52.8291 173.507 56.496 171.322 62.6029C171.322 62.6029 169.11 61.0141 168.392 60.5918C166.616 59.6198 164.538 60.0891 162.198 61.6108C159.564 63.3269 157.767 65.5524 156.125 68.9176V68.9779C156.051 69.1254 155.991 69.2729 155.924 69.4204L184.079 85.6564C185.078 84.0341 186.05 82.3917 186.975 80.7024C190.735 73.8313 193.678 67.101 193.625 60.0689C193.537 57.0591 192.673 54.8469 191.272 53.5062Z" fill="#2FA5A9"/>
<path opacity="0.15" d="M191.272 53.5062C191.095 53.3528 190.904 53.2159 190.702 53.0973C189.991 52.6749 186.773 50.8248 186.606 50.7242C184.903 49.6382 182.208 49.8796 179.809 51.0929C176.37 52.8291 173.507 56.496 171.322 62.6029C171.322 62.6029 169.11 61.0141 168.392 60.5918C166.616 59.6198 164.538 60.0891 162.198 61.6108C159.564 63.3269 157.767 65.5524 156.125 68.9176V68.9779C156.051 69.1254 155.991 69.2729 155.924 69.4204L184.079 85.6564C185.078 84.0341 186.05 82.3917 186.975 80.7024C190.735 73.8313 193.678 67.101 193.625 60.0689C193.537 57.0591 192.673 54.8469 191.272 53.5062Z" fill="black"/>
<path d="M171.301 62.5761L175.068 67.4898L181.142 60.3036L174.277 56.3418C173.055 58.3018 172.056 60.3931 171.301 62.5761Z" fill="#2FA5A9"/>
<path opacity="0.3" d="M171.301 62.5761L175.068 67.4898L181.142 60.3036L174.277 56.3418C173.055 58.3018 172.056 60.3931 171.301 62.5761Z" fill="black"/>
<path d="M191.272 53.5062C189.63 52.0382 186.64 52.1655 183.999 53.5062C180.399 55.3296 177.422 59.2646 175.197 65.9279C172.971 61.8387 169.995 61.7114 166.395 64.0509C163.754 65.767 161.957 67.9926 160.322 71.3577L160.288 71.4181C158.87 74.2794 158.094 77.4161 158.016 80.6086C158.016 87.6674 160.912 91.0326 164.666 93.5599C166.935 95.0584 169.445 96.1558 172.086 96.8044L175.793 97.6691L179.5 92.5275C182.199 88.7364 184.677 84.7926 186.921 80.7159C190.682 73.8448 193.625 67.1144 193.571 60.0824C193.538 57.0591 192.673 54.8469 191.272 53.5062Z" fill="#2FA5A9"/>
<g opacity="0.07">
<path d="M188.109 52.8358C189.142 52.7885 190.158 53.1145 190.971 53.7542C190.986 53.7831 191.006 53.8084 191.032 53.8279C192.413 55.0882 193.184 57.3272 193.19 60.1159C193.19 67.4562 189.838 74.5821 186.587 80.5751C184.36 84.6386 181.898 88.569 179.213 92.3465L175.654 97.3004L172.188 96.4892C169.586 95.8501 167.113 94.771 164.875 93.2984C161.523 91.0192 158.359 87.9355 158.385 80.6421C158.457 77.5057 159.209 74.4223 160.591 71.6057V71.5454C162.24 68.1601 164.016 66.0217 166.537 64.386C167.708 63.5176 169.104 63.0056 170.559 62.9112C172.262 62.9112 173.663 63.9637 174.843 66.1289C174.872 66.1869 174.917 66.2354 174.973 66.2686C175.029 66.3018 175.093 66.3185 175.158 66.3166H175.191C175.26 66.3102 175.326 66.284 175.381 66.2413C175.436 66.1985 175.477 66.1409 175.5 66.0753C177.625 59.7136 180.447 55.7183 184.12 53.8615C185.347 53.219 186.705 52.868 188.089 52.8358M188.089 52.4805C186.649 52.5102 185.236 52.8727 183.959 53.5397C180.36 55.3631 177.383 59.298 175.158 65.9613C173.871 63.5883 172.329 62.5492 170.559 62.5492C169.04 62.6491 167.582 63.1818 166.356 64.0844C163.715 65.8005 161.918 68.026 160.283 71.3912L160.249 71.4515C158.831 74.3129 158.055 77.4496 157.977 80.6421C157.977 87.7009 160.872 91.0661 164.626 93.5933C166.896 95.0918 169.406 96.1893 172.047 96.8378L175.754 97.7026L179.461 92.561C182.16 88.7699 184.638 84.8261 186.882 80.7493C190.643 73.8782 193.586 67.1479 193.532 60.1159C193.532 57.0926 192.654 54.8469 191.253 53.5598C190.368 52.839 189.249 52.4692 188.109 52.5207L188.089 52.4805Z" fill="black"/>
</g>
<path d="M190.862 72.5107L183.649 76.6803L180.968 66.9267C180.93 66.7792 180.842 66.649 180.721 66.5577C180.599 66.4663 180.449 66.4191 180.297 66.4239C180.14 66.4208 179.987 66.4727 179.865 66.5707C179.742 66.6687 179.658 66.8065 179.627 66.9602L175.451 86.0385L171.938 76.4256C171.931 76.2478 171.853 76.0801 171.723 75.9594C171.592 75.8388 171.418 75.7749 171.241 75.7821C171.063 75.7892 170.895 75.8666 170.775 75.9974C170.654 76.1281 170.59 76.3014 170.597 76.4792L168.224 84.9056L160.287 89.4908C160.548 89.8704 160.83 90.2351 161.132 90.5835L169.176 85.9513C169.332 85.8611 169.447 85.7148 169.498 85.5424L171.368 78.8925L174.968 88.7199C175.016 88.8574 175.107 88.9756 175.228 89.0566C175.349 89.1376 175.493 89.1771 175.638 89.169C175.787 89.1616 175.929 89.1048 176.042 89.0077C176.155 88.9106 176.232 88.7787 176.262 88.6327L180.351 69.9835L182.509 77.9004C182.535 78.0022 182.584 78.0966 182.653 78.176C182.722 78.2553 182.808 78.3174 182.905 78.3572C183.003 78.397 183.108 78.4134 183.213 78.405C183.317 78.3967 183.418 78.3639 183.508 78.3093L189.917 74.6156C190.285 73.9118 190.58 73.2146 190.862 72.5107Z" fill="white"/>
<path d="M221.139 251.79C220.864 252.699 220.841 253.665 221.072 254.585C221.34 255.149 223.016 256.999 226.434 257.669C229.853 258.339 234.552 257.669 236.577 257.548C238.601 257.428 244.956 258.219 246.974 258.473C250.152 258.903 252.592 258.205 253.778 257.059C253.97 256.829 254.112 256.56 254.194 256.272C254.276 255.983 254.296 255.68 254.254 255.383C254.247 254.618 254.134 253.858 253.919 253.124L221.139 251.79Z" fill="#263238"/>
<path d="M253.394 249.799C253.454 250.061 253.515 250.329 253.568 250.597C253.878 251.945 253.975 253.334 253.857 254.713C253.448 255.718 252.328 256.275 251.423 256.556C249.03 257.32 247.213 257.227 244.566 256.697C241.903 256.309 239.212 256.143 236.521 256.201C234.437 256.342 231.567 256.744 229.483 256.55C227.71 256.476 225.96 256.118 224.301 255.49C222.913 254.9 221.492 254.15 221.15 252.702C220.741 249.685 222.008 248.358 223.436 247.513C224.864 246.669 226.895 246.736 229.067 246.595C231.031 246.461 232.466 246.461 234.215 246.327C235.728 246.253 237.231 246.044 238.707 245.703C240.047 245.288 241.388 243.605 241.938 243.545C241.938 243.545 250.686 243.478 251.517 243.545C252.482 243.625 252.777 246.615 252.898 247.265C252.992 247.775 253.012 248.324 253.146 248.814C253.233 249.142 253.314 249.471 253.394 249.799Z" fill="#37474F"/>
<path d="M226.439 256.147C226.164 253.975 225.769 249.27 229.791 246.548H230.294C228.487 246.025 226.57 246.025 224.763 246.548C221.566 247.399 220.145 249.987 220.942 252.722C220.956 252.695 221.666 255.343 226.439 256.147Z" fill="#FAFAFA"/>
<path d="M238.11 245.857C236.816 247.004 236.367 249.611 236.367 249.611C236.199 250.59 234.43 250.738 234.597 249.792C234.867 248.493 235.389 247.259 236.132 246.159C236.739 245.839 237.435 245.733 238.11 245.857Z" fill="#FAFAFA"/>
<path d="M234.484 246.307C233.508 247.262 232.871 248.509 232.667 249.859C232.486 250.798 231.012 250.785 231.119 249.859C231.119 249.859 231.286 247.547 232.667 246.467C232.935 246.296 233.24 246.192 233.556 246.164C233.872 246.136 234.191 246.185 234.484 246.307Z" fill="#FAFAFA"/>
<path d="M251.785 237.183C251.785 237.183 251.551 242.807 251.242 244.651C251.055 245.75 249.613 246.903 246.027 246.783C243.506 246.695 241.522 246.903 241.623 244.932L241.844 239.187L251.785 237.183Z" fill="#FFA8A7"/>
<path d="M257.409 223.897C257.282 225.432 257.074 226.819 257.704 228.509C258.602 230.935 260.506 232.048 261.626 233C262.803 234.167 263.89 235.422 264.877 236.754C265.976 238.095 266.264 238.892 267.913 240.354C268.735 240.986 269.707 241.395 270.734 241.54C271.761 241.684 272.808 241.56 273.772 241.178C275.2 240.568 275.696 240.086 275.609 237.894C275.522 235.702 268.537 234.958 268.537 234.958L257.409 223.897Z" fill="#263238"/>
<path d="M274.706 231.364C275.303 231.579 275.45 232.658 275.544 234.803C275.611 236.426 276.328 238.825 273.975 239.824C272.078 240.649 269.048 240.099 267.768 238.571C266.172 236.66 265.086 234.978 262.807 232.651C260.796 230.64 258.785 229.97 257.894 225.914C257.324 223.313 257.773 222.241 259.61 221.497C262.137 220.471 266.099 223.816 268.083 224.346C269.786 224.795 274.109 231.15 274.706 231.364Z" fill="#37474F"/>
<path d="M268.083 224.346L267.748 224.232C266.617 224.274 265.518 224.611 264.558 225.21C263.599 225.808 262.812 226.647 262.278 227.644C261.942 228.348 262.948 228.898 263.618 228.348C265.026 225.666 267.922 225.09 269.082 224.963C268.796 224.688 268.456 224.478 268.083 224.346Z" fill="#FAFAFA"/>
<path d="M269.711 225.566C268.65 225.665 267.63 226.027 266.743 226.618C265.856 227.208 265.13 228.01 264.629 228.951C264.294 229.621 265.333 230.205 265.97 229.621C266.449 228.783 267.104 228.058 267.892 227.499C268.679 226.94 269.579 226.559 270.529 226.384C270.24 226.116 269.972 225.827 269.711 225.566Z" fill="#FAFAFA"/>
<path d="M275.046 227.49L274.704 232.015C274.704 232.015 271.828 234.113 267.706 232.189C267.585 231.941 267.236 227.892 267.236 227.892L275.046 227.49Z" fill="#FFA8A7"/>
<path d="M259.053 228.898C259.053 228.898 259.247 224.091 266.078 223.427L266.474 223.635C265.696 222.43 264.504 221.552 263.122 221.168C260.856 220.585 259.059 221.168 257.866 222.603C256.673 224.037 257.873 227.966 259.053 228.898Z" fill="#FAFAFA"/>
<path d="M277.039 197.351C276.06 189.434 275.698 185.023 275.698 185.023C275.698 185.023 275.504 173.875 276.181 163.572C276.476 159.053 276.63 154.053 276.724 149.494C276.849 144.474 276.449 139.455 275.531 134.518C275.531 134.518 240.478 127.547 240.042 140.404C239.513 155.822 239.58 182.174 238.983 192.236C238.655 197.887 239.225 202.573 239.58 213.553C239.868 222.657 239.781 245.06 239.781 245.06C243.642 250.362 252.759 246.32 252.759 246.32C252.759 246.32 255.574 214.86 255.99 208.358C256.432 201.366 255.695 197.827 255.695 197.827L259.308 165.254C259.308 165.254 259.583 175.705 259.891 181.343C260.2 186.98 261.024 190.446 262.492 200.964C263.766 210.094 266.474 233.396 266.474 233.396C271.167 236.171 275.698 233.396 275.698 233.396C275.698 233.396 278.018 205.268 277.039 197.351Z" fill="#455A64"/>
<path d="M272.252 152.363C272.252 152.363 267.862 157.967 262.197 160.374C262.197 160.374 259.744 180.076 259.764 179.687L259.127 159.858C259.127 159.858 267.56 156.131 272.252 152.363Z" fill="#37474F"/>
<path d="M272.131 89.0349C275.905 88.1903 280.175 90.8851 283.017 96.8982C285.766 102.65 293.274 117.176 293.455 121.245C293.649 125.462 274.892 138.252 275.355 138.004C275.502 137.931 272.117 128.331 272.117 128.331L281.227 120.79L276.273 110.587L272.131 89.0349Z" fill="#FFA8A7"/>
<path d="M270.146 88.1299C273.324 87.7411 279.082 88.9411 281.281 92.7621C284.472 98.2925 287.381 104.688 291.088 112.953C291.088 112.953 288.34 118.906 280.43 119.469L275.69 111.157L270.146 88.1299Z" fill="#37474F"/>
<path d="M254.152 83.1492L254.702 94.8804L266.326 94.2569L265.971 80.6287L254.152 83.1492Z" fill="#FFA8A7"/>
<path d="M277.741 94.0357C276.763 90.8382 273.384 88.2037 269.114 88.0763C268.162 88.0763 266.164 88.0763 266.164 88.0763C265.682 90.0538 259.628 90.7577 254.453 89.5712C252.891 89.9868 246.409 91.5822 245.068 91.9844C241.348 93.2179 240.202 97.0121 239.625 109.146C239.625 109.146 239.739 133.064 239.625 144.48C246.168 147.932 256.277 147.503 263.469 146.772C274.772 145.633 276.454 141.537 276.454 141.537C275.978 134.88 276.267 132.373 276.454 125.804C276.595 120.863 278.016 115.641 278.465 110.044C279.129 101.725 278.405 96.2345 277.741 94.0357Z" fill="#2FA5A9"/>
<path d="M252.335 85.3748C249.654 85.1871 246.302 87.3255 245.438 91.904L247.623 91.3208L252.335 85.3748Z" fill="#2FA5A9"/>
<path opacity="0.3" d="M252.335 85.3748C249.654 85.1871 246.302 87.3255 245.438 91.904L247.623 91.3208L252.335 85.3748Z" fill="black"/>
<path d="M254.298 86.3535C256.309 87.0238 262.175 86.93 264.139 86.3535C266.103 85.7769 266.083 84.9055 266.083 84.9055V83.9201C267.216 83.9169 268.323 84.2608 269.254 84.9055C270.508 85.9244 272.666 89.598 272.606 91.361C272.545 93.124 268.778 97.7763 261.511 97.6623C254.245 97.5484 250.162 94.8602 248.909 93.0905L247.648 91.3141C247.648 91.3141 249.371 87.7746 251.067 86.2864C251.937 85.4435 253.052 84.8989 254.251 84.7312L254.298 86.3535Z" fill="#2FA5A9"/>
<path opacity="0.2" d="M254.298 86.3535C256.309 87.0238 262.175 86.93 264.139 86.3535C266.103 85.7769 266.083 84.9055 266.083 84.9055V83.9201C267.216 83.9169 268.323 84.2608 269.254 84.9055C270.508 85.9244 272.666 89.598 272.606 91.361C272.545 93.124 268.778 97.7763 261.511 97.6623C254.245 97.5484 250.162 94.8602 248.909 93.0905L247.648 91.3141C247.648 91.3141 249.371 87.7746 251.067 86.2864C251.937 85.4435 253.052 84.8989 254.251 84.7312L254.298 86.3535Z" fill="black"/>
<path d="M246.328 68.7634C246.328 68.7634 243.56 72.9665 243.875 73.3755C244.19 73.7844 246.228 74.1665 246.228 74.1665L246.328 68.7634Z" fill="#F28F8F"/>
<path d="M254.025 57.1261C248.421 58.3126 246.182 59.955 245.833 69.5343C245.498 78.8523 246.671 81.9225 247.891 83.176C248.716 84.0207 253.308 84.1749 255.621 83.5313C258.517 82.7336 265.066 80.4142 268.129 75.7351C271.736 70.2248 272.681 62.7571 268.8 59.6935C263.39 55.3832 256.311 56.6434 254.025 57.1261Z" fill="#FFA8A7"/>
<path d="M247.893 83.1693C248.563 83.8397 251.774 84.0944 254.187 83.7994L254.154 82.4118C252.154 83.1494 250.01 83.4088 247.893 83.1693Z" fill="#F28F8F"/>
<path d="M245.089 60.7259C246.486 61.7268 248.218 62.1429 249.916 61.8856C249.882 62.6367 250.084 63.3795 250.493 64.0106C251.061 64.8712 251.924 65.4954 252.919 65.7669C252.306 66.9695 251.98 68.2982 251.967 69.6483C251.93 70.072 252.021 70.4973 252.229 70.8683C252.293 71.0031 252.394 71.117 252.521 71.1967C252.647 71.2764 252.793 71.3187 252.943 71.3187C253.092 71.3187 253.238 71.2764 253.365 71.1967C253.491 71.117 253.592 71.0031 253.657 70.8683C253.972 70.1552 254.368 69.4804 254.836 68.8573C255.444 68.1301 256.299 67.6527 257.236 67.5166C260.756 67.1345 261.198 71.7398 259.79 73.6503C257.484 76.7741 255.527 74.6558 255.527 74.6558C255.437 76.1202 255.66 77.5869 256.18 78.9587C256.7 80.3306 257.505 81.5762 258.543 82.6129C261.045 83.35 263.697 83.4171 266.232 82.8073C269.356 78.5104 271.32 76.4188 272.99 72.7118C276.516 64.862 274.813 59.9349 272.085 57.8568C271.548 54.2436 268.699 52.6213 265.448 51.8772C260.595 50.7577 256.063 53.6402 251.25 52.5476C250.46 52.3822 249.679 52.1764 248.911 51.9308C248.614 51.792 248.277 51.7704 247.965 51.8705C247.793 51.9851 247.658 52.1478 247.577 52.3385C247.496 52.5291 247.472 52.7393 247.509 52.9431C247.57 53.8682 248.508 54.8938 248.984 55.3899C247.933 55.486 246.873 55.425 245.84 55.2089C245.481 55.1416 245.113 55.1416 244.754 55.2089C244.361 55.3693 244.028 55.6503 243.804 56.0116C243.58 56.3729 243.476 56.796 243.507 57.2199C243.511 57.8824 243.654 58.5367 243.927 59.1406C244.199 59.7445 244.595 60.2845 245.089 60.7259Z" fill="#263238"/>
<path d="M272.171 59.0232L275.523 57.0122C275.256 56.5677 274.824 56.2474 274.321 56.1217C273.818 55.9959 273.286 56.0751 272.841 56.3418C272.397 56.6085 272.077 57.0408 271.951 57.5437C271.825 58.0466 271.904 58.5788 272.171 59.0232Z" fill="#263238"/>
<path d="M228.491 111.827C227.731 108.842 226.999 105.852 226.292 102.858C225.622 100.102 224.59 96.9116 225.535 94.0961C226.072 92.8664 226.747 91.7015 227.546 90.6236C228.238 89.4875 228.821 88.289 229.289 87.044C229.524 86.4406 229.738 85.8239 229.959 85.2139C230.181 84.6039 230.496 84.2553 230.348 83.6721C229.859 81.7616 227.392 84.2687 226.889 85.053C226.666 85.4647 226.406 85.8551 226.111 86.2194C225.79 86.5613 225.005 86.9903 224.63 86.4876C224.505 86.2859 224.435 86.0545 224.429 85.8172C224.174 82.8743 225.233 80.2399 226.111 77.4914C226.25 77.1306 226.334 76.7509 226.36 76.3652C226.375 76.1726 226.35 75.9789 226.284 75.7972C226.218 75.6155 226.113 75.4503 225.977 75.3128C225.759 75.1451 225.5 75.0382 225.227 75.0029C224.954 74.9676 224.676 75.0051 224.422 75.1117C223.926 75.2792 223.497 75.5943 223.001 75.7485C222.505 75.9027 222.136 75.9027 221.701 76.0166C220.667 76.247 219.671 76.624 218.744 77.1361C217.135 78.0813 216.425 79.4622 216.003 81.2186C215.495 83.3759 215.323 85.5985 215.493 87.8082C215.607 89.2762 215.868 90.7242 216.049 92.1722L216.653 97.0188C217.062 100.25 217.182 116.392 217.739 119.603C218.295 122.814 219.368 124.966 221.908 126.032C225.595 127.533 231.555 120.749 234.94 117.237L228.491 111.827Z" fill="#FFA8A7"/>
<path d="M227.143 109.997C224.77 111.773 221.814 114.73 221.217 117.693C221.217 117.693 220.627 112.363 227.143 107.637V109.997Z" fill="#F28F8F"/>
<path d="M244.88 92.0582C242.601 92.2727 238.847 92.3531 235.026 96.4624C230.595 101.262 223.764 110.728 223.764 110.728C223.764 110.728 224.655 118.262 231.908 120.964C231.908 120.964 242.453 110.909 244.719 106.578C246.985 102.248 247.494 95.0681 244.88 92.0582Z" fill="#37474F"/>
<path d="M241.842 76.1305L238.96 74.5819L240.616 73.1675L234.629 70.3654L237.244 68.8504L230.795 65.4182L234.629 68.8035L231.512 70.3654L238.544 73.4088L236.808 75.145L241.842 76.1305Z" fill="#2FA5A9"/>
<path d="M243.311 72.3296L241.434 70.533L242.46 69.7755L240.811 67.8181L242.393 67.2818L241.843 64.8015L242.956 67.4762L241.843 67.9589L243.626 69.9163L242.419 70.7744L243.311 72.3296Z" fill="#2FA5A9"/>
<path d="M242.219 78.9661L238.679 81.728L237.372 79.804L234.275 81.4866L233.008 79.1069L228.215 80.3336L233.759 77.679L235.347 79.8711L237.922 78.4901L238.994 80.3336L242.219 78.9661Z" fill="#2FA5A9"/>
<path d="M217.612 128.391C217.72 128.302 217.858 128.259 217.998 128.271C218.137 128.284 218.266 128.351 218.356 128.458C219.041 129.228 219.932 129.787 220.923 130.069C221.914 130.352 222.965 130.347 223.954 130.054C224.021 130.03 224.092 130.02 224.164 130.025C224.235 130.029 224.305 130.048 224.369 130.081C224.432 130.113 224.489 130.158 224.535 130.212C224.581 130.267 224.615 130.331 224.636 130.399C224.657 130.467 224.664 130.539 224.656 130.61C224.648 130.681 224.626 130.75 224.592 130.812C224.557 130.875 224.509 130.929 224.453 130.973C224.396 131.017 224.331 131.048 224.262 131.066C223.077 131.417 221.816 131.421 220.628 131.079C219.441 130.737 218.375 130.063 217.558 129.135C217.512 129.083 217.477 129.023 217.455 128.957C217.433 128.891 217.424 128.821 217.429 128.752C217.434 128.683 217.453 128.615 217.484 128.553C217.516 128.491 217.559 128.436 217.612 128.391Z" fill="#E0E0E0"/>
<path d="M218.147 131.938C218.241 131.859 218.36 131.816 218.483 131.816C218.605 131.816 218.724 131.859 218.818 131.938C219.363 132.332 219.989 132.603 220.65 132.73C221.311 132.857 221.992 132.839 222.645 132.675C222.784 132.649 222.927 132.679 223.044 132.758C223.16 132.837 223.241 132.959 223.269 133.097C223.282 133.165 223.283 133.235 223.269 133.303C223.255 133.371 223.229 133.435 223.19 133.492C223.151 133.55 223.102 133.599 223.044 133.637C222.986 133.675 222.921 133.701 222.853 133.714C222.046 133.902 221.207 133.909 220.396 133.737C219.585 133.564 218.822 133.215 218.161 132.715C218.108 132.67 218.064 132.615 218.033 132.553C218.002 132.491 217.983 132.424 217.978 132.354C217.973 132.285 217.982 132.216 218.004 132.15C218.026 132.084 218.061 132.023 218.107 131.971C218.119 131.958 218.133 131.947 218.147 131.938Z" fill="#E0E0E0"/>
<path d="M283.969 91.3074C283.907 91.3395 283.839 91.3589 283.77 91.3645C283.7 91.3701 283.63 91.3617 283.564 91.3398C283.498 91.3179 283.437 91.283 283.384 91.2372C283.332 91.1913 283.289 91.1354 283.258 91.0728C282.769 90.1657 282.032 89.4159 281.134 88.9104C280.236 88.405 279.213 88.1646 278.184 88.2171C278.114 88.2211 278.044 88.2113 277.979 88.1883C277.913 88.1654 277.852 88.1297 277.8 88.0833C277.695 87.9897 277.632 87.8581 277.624 87.7177C277.616 87.5772 277.664 87.4394 277.758 87.3344C277.851 87.2294 277.983 87.1659 278.123 87.1579C279.359 87.0933 280.587 87.3825 281.664 87.9916C282.741 88.6008 283.622 89.5046 284.203 90.5969C284.265 90.7225 284.274 90.8671 284.231 90.9998C284.187 91.1326 284.093 91.2429 283.969 91.3074Z" fill="#E0E0E0"/>
<path d="M284.263 87.7545C284.151 87.8136 284.021 87.8298 283.898 87.8002C283.775 87.7706 283.666 87.6972 283.593 87.5937C283.16 87.0881 282.624 86.6815 282.02 86.4016C281.416 86.1217 280.759 85.975 280.094 85.9714C280.024 85.9688 279.956 85.9524 279.893 85.9234C279.829 85.8943 279.773 85.8531 279.725 85.8021C279.678 85.751 279.641 85.6912 279.617 85.6259C279.593 85.5606 279.582 85.4913 279.584 85.4217C279.587 85.3522 279.603 85.2838 279.632 85.2206C279.661 85.1573 279.703 85.1004 279.754 85.0531C279.805 85.0058 279.865 84.969 279.93 84.9449C279.995 84.9207 280.065 84.9096 280.134 84.9122C280.961 84.9205 281.776 85.1096 282.521 85.4663C283.267 85.823 283.926 86.3386 284.451 86.9769C284.527 87.0904 284.555 87.2288 284.53 87.3628C284.505 87.4968 284.428 87.6157 284.317 87.6942L284.263 87.7545Z" fill="#E0E0E0"/>
<path d="M293.635 126.394C293.568 126.271 293.552 126.127 293.591 125.992C293.63 125.858 293.721 125.744 293.843 125.677C294.726 125.146 295.44 124.375 295.901 123.454C296.363 122.533 296.554 121.5 296.451 120.475C296.442 120.405 296.448 120.335 296.467 120.268C296.486 120.201 296.519 120.138 296.562 120.084C296.606 120.03 296.66 119.985 296.722 119.952C296.783 119.918 296.851 119.898 296.92 119.891C297.06 119.876 297.199 119.917 297.309 120.005C297.418 120.093 297.488 120.221 297.503 120.361C297.623 121.586 297.392 122.821 296.838 123.921C296.284 125.021 295.429 125.941 294.373 126.575C294.313 126.612 294.246 126.637 294.176 126.649C294.106 126.66 294.034 126.657 293.966 126.64C293.897 126.623 293.832 126.593 293.776 126.55C293.719 126.508 293.671 126.455 293.635 126.394Z" fill="#E0E0E0"/>
<path d="M297.197 126.521C297.137 126.412 297.117 126.285 297.14 126.163C297.164 126.041 297.229 125.93 297.324 125.851C297.811 125.396 298.193 124.841 298.444 124.224C298.695 123.607 298.809 122.943 298.779 122.278C298.779 122.137 298.835 122.003 298.934 121.903C299.033 121.804 299.168 121.748 299.309 121.748C299.449 121.748 299.584 121.804 299.683 121.903C299.782 122.003 299.838 122.137 299.838 122.278C299.867 123.103 299.716 123.925 299.397 124.686C299.078 125.448 298.597 126.131 297.988 126.689C297.933 126.732 297.871 126.764 297.804 126.783C297.737 126.802 297.667 126.807 297.598 126.799C297.529 126.791 297.462 126.77 297.401 126.736C297.34 126.702 297.287 126.656 297.244 126.602L297.197 126.521Z" fill="#E0E0E0"/>
<path d="M235.531 190.258C235.656 190.322 235.751 190.431 235.796 190.564C235.841 190.697 235.833 190.842 235.772 190.969C235.347 191.907 235.199 192.947 235.344 193.967C235.488 194.987 235.921 195.944 236.59 196.727C236.68 196.835 236.725 196.974 236.714 197.115C236.702 197.255 236.636 197.386 236.529 197.478C236.423 197.569 236.286 197.614 236.146 197.604C236.007 197.594 235.877 197.53 235.785 197.424C234.982 196.482 234.464 195.33 234.293 194.103C234.122 192.876 234.305 191.626 234.82 190.5C234.883 190.374 234.993 190.279 235.126 190.234C235.259 190.189 235.404 190.198 235.531 190.258Z" fill="#E0E0E0"/>
<path d="M232.527 192.169C232.642 192.223 232.733 192.316 232.785 192.432C232.837 192.547 232.845 192.678 232.809 192.799C232.668 193.45 232.67 194.124 232.815 194.775C232.96 195.425 233.243 196.036 233.647 196.566C233.726 196.682 233.757 196.823 233.733 196.961C233.709 197.099 233.633 197.222 233.52 197.304C233.405 197.385 233.263 197.416 233.124 197.393C232.986 197.369 232.863 197.291 232.782 197.176C232.285 196.514 231.939 195.75 231.768 194.94C231.596 194.129 231.604 193.291 231.79 192.484C231.811 192.417 231.844 192.354 231.889 192.3C231.934 192.246 231.99 192.201 232.052 192.169C232.114 192.137 232.183 192.117 232.253 192.111C232.323 192.105 232.393 192.114 232.46 192.135L232.527 192.169Z" fill="#E0E0E0"/>
<path d="M196.133 6.21279C196.1 5.5877 195.919 4.97932 195.606 4.43749C195.292 3.89567 194.855 3.43582 194.33 3.09564L192.868 2.24429C192.309 1.96467 191.693 1.81909 191.068 1.81909C190.443 1.81909 189.827 1.96467 189.268 2.24429L155.315 21.8656C154.79 22.2065 154.353 22.6666 154.04 23.2082C153.727 23.7499 153.546 24.3579 153.512 24.9827V42.5393C153.546 43.164 153.728 43.7718 154.041 44.3133C154.354 44.8549 154.791 45.315 155.315 45.6564L156.783 46.5011C157.34 46.7853 157.957 46.9335 158.583 46.9335C159.209 46.9335 159.825 46.7853 160.383 46.5011L194.33 26.8865C194.855 26.5463 195.292 26.0865 195.606 25.5447C195.919 25.0028 196.1 24.3944 196.133 23.7694V6.21279Z" fill="#2FA5A9"/>
<path opacity="0.5" d="M196.133 6.21279C196.1 5.5877 195.919 4.97932 195.606 4.43749C195.292 3.89567 194.855 3.43582 194.33 3.09564L192.868 2.24429C192.309 1.96467 191.693 1.81909 191.068 1.81909C190.443 1.81909 189.827 1.96467 189.268 2.24429L155.315 21.8656C154.79 22.2065 154.353 22.6666 154.04 23.2082C153.727 23.7499 153.546 24.3579 153.512 24.9827V42.5393C153.546 43.164 153.728 43.7718 154.041 44.3133C154.354 44.8549 154.791 45.315 155.315 45.6564L156.783 46.5011C157.34 46.7853 157.957 46.9335 158.583 46.9335C159.209 46.9335 159.825 46.7853 160.383 46.5011L194.33 26.8865C194.855 26.5463 195.292 26.0865 195.606 25.5447C195.919 25.0028 196.1 24.3944 196.133 23.7694V6.21279Z" fill="white"/>
<path opacity="0.2" d="M153.512 42.5392C153.546 43.1639 153.728 43.7717 154.041 44.3133C154.354 44.8549 154.791 45.315 155.315 45.6564L156.783 46.501C157.29 46.7566 157.846 46.9018 158.413 46.9272C158.98 46.9527 159.547 46.8577 160.074 46.6485C159.223 46.9703 158.58 46.4943 158.58 45.462V27.9054C158.601 27.2777 158.784 26.6661 159.109 26.129L154.041 23.2062C153.715 23.743 153.533 24.3548 153.512 24.9827V42.5392Z" fill="black"/>
<path opacity="0.3" d="M196.071 5.70333C195.864 4.93912 195.166 4.6911 194.335 5.17375L160.382 24.7883C159.847 25.1162 159.408 25.5784 159.108 26.129L154.047 23.2063C154.346 22.6575 154.783 22.1956 155.314 21.8656L189.261 2.25101C189.818 1.96674 190.435 1.81854 191.06 1.81854C191.686 1.81854 192.303 1.96674 192.86 2.25101L194.335 3.09565C194.786 3.39033 195.172 3.77336 195.47 4.22157C195.769 4.66978 195.973 5.17386 196.071 5.70333Z" fill="white"/>
<path d="M158.586 33.5834L153.525 30.6606L147.425 36.5329C147.333 36.6253 147.264 36.7373 147.222 36.8605C147.18 36.9838 147.166 37.1149 147.182 37.2441C147.199 37.3733 147.244 37.4971 147.315 37.6062C147.386 37.7153 147.481 37.8067 147.593 37.8737L152.573 40.7696C152.78 40.8775 153.012 40.9262 153.244 40.9104L158.607 39.8847V33.5834H158.586Z" fill="#2FA5A9"/>
<path opacity="0.5" d="M158.586 33.5834L153.525 30.6606L147.425 36.5329C147.333 36.6253 147.264 36.7373 147.222 36.8605C147.18 36.9838 147.166 37.1149 147.182 37.2441C147.199 37.3733 147.244 37.4971 147.315 37.6062C147.386 37.7153 147.481 37.8067 147.593 37.8737L152.573 40.7696C152.78 40.8775 153.012 40.9262 153.244 40.9104L158.607 39.8847V33.5834H158.586Z" fill="white"/>
<path opacity="0.3" d="M152.574 40.7695L149.893 39.2344L149.578 39.0266L148.143 38.1953L147.969 38.0881L147.587 37.8669C147.475 37.7999 147.38 37.7085 147.309 37.5994C147.238 37.4903 147.193 37.3665 147.177 37.2373C147.16 37.1081 147.174 36.977 147.216 36.8538C147.258 36.7306 147.327 36.6185 147.419 36.5262L153.519 30.6539L158.587 33.5833L152.487 39.4288C152.39 39.5149 152.314 39.6219 152.265 39.7418C152.216 39.8616 152.195 39.9911 152.203 40.1204C152.211 40.2498 152.249 40.3754 152.314 40.4879C152.378 40.6004 152.467 40.6967 152.574 40.7695Z" fill="white"/>
<path d="M168.5 28.187C167.8 28.6425 167.217 29.257 166.799 29.9804C166.381 30.7037 166.139 31.5156 166.094 32.3499C166.094 33.8783 167.173 34.5017 168.5 33.7375C169.2 33.2816 169.782 32.6669 170.199 31.9435C170.616 31.2201 170.856 30.4084 170.9 29.5746C170.9 28.0328 169.828 27.4228 168.5 28.187Z" fill="white"/>
<path d="M177.357 23.0655C176.657 23.5215 176.075 24.1361 175.658 24.8595C175.241 25.5829 175.001 26.3946 174.957 27.2284C174.957 28.7568 176.03 29.3803 177.357 28.6094C178.056 28.1541 178.637 27.5405 179.054 26.8183C179.471 26.0962 179.712 25.2859 179.757 24.4532C179.743 22.9181 178.684 22.2946 177.357 23.0655Z" fill="white"/>
<path d="M186.212 17.9373C185.514 18.3944 184.933 19.0094 184.516 19.7325C184.099 20.4557 183.858 21.2667 183.812 22.1002C183.813 23.6353 184.885 24.252 186.212 23.4878C186.914 23.0316 187.497 22.4161 187.915 21.6915C188.334 20.9669 188.575 20.1537 188.619 19.3182C188.619 17.7965 187.54 17.1731 186.212 17.9373Z" fill="white"/>
<path d="M261.486 40.6289L259.053 36.0772L261.011 30.4261V26.947L255.018 30.406V33.865L257.592 38.3296C257.634 38.3963 257.695 38.4497 257.766 38.4837L261.486 40.6289Z" fill="#2FA5A9"/>
<path opacity="0.2" d="M261.486 40.6289L259.053 36.0772L261.011 30.4261V26.947L255.018 30.406V33.865L257.592 38.3296C257.634 38.3963 257.695 38.4497 257.766 38.4837L261.486 40.6289Z" fill="black"/>
<path d="M279.687 4.42301C279.653 3.79967 279.473 3.19302 279.161 2.65248C278.849 2.11195 278.413 1.65284 277.89 1.31257L276.429 0.467921C275.872 0.183713 275.257 0.0355225 274.632 0.0355225C274.007 0.0355225 273.392 0.183713 272.836 0.467921L238.963 20.0355C238.442 20.38 238.008 20.841 237.696 21.382C237.384 21.9231 237.203 22.5293 237.166 23.1527V40.669C237.199 41.2924 237.379 41.899 237.692 42.4396C238.004 42.9801 238.439 43.4392 238.963 43.7795L240.424 44.6241C240.982 44.9027 241.597 45.0476 242.22 45.0476C242.844 45.0476 243.459 44.9027 244.017 44.6241L258.765 36.0436L261.339 40.4947C261.376 40.5543 261.429 40.6022 261.492 40.6332C261.555 40.6642 261.625 40.6769 261.695 40.6699C261.765 40.6629 261.831 40.6365 261.887 40.5937C261.942 40.5509 261.985 40.4934 262.009 40.4277L264.731 32.5913L277.856 25.0498C278.38 24.7095 278.815 24.2504 279.128 23.7099C279.44 23.1693 279.62 22.5627 279.653 21.9394L279.687 4.42301Z" fill="#2FA5A9"/>
<path d="M247.315 26.5447L274.397 10.9053C275.202 10.4428 275.852 10.7713 275.852 11.6427C275.816 12.1299 275.665 12.6017 275.412 13.0198C275.16 13.4379 274.812 13.7906 274.397 14.0493L247.315 29.6886C246.517 30.1512 245.867 29.8227 245.867 28.9512C245.903 28.4648 246.053 27.9936 246.305 27.5756C246.556 27.1577 246.902 26.8045 247.315 26.5447Z" fill="white"/>
<path d="M247.315 33.5097L274.397 17.8771C275.202 17.4145 275.852 17.743 275.852 18.6078C275.817 19.0961 275.666 19.5692 275.414 19.9886C275.161 20.4079 274.813 20.7617 274.397 21.021L247.315 36.6537C246.517 37.1229 245.867 36.7878 245.867 35.923C245.902 35.4354 246.052 34.9629 246.303 34.5436C246.555 34.1244 246.901 33.7702 247.315 33.5097Z" fill="white"/>
<path opacity="0.2" d="M237.166 40.6691C237.199 41.2924 237.379 41.8991 237.692 42.4396C238.004 42.9801 238.439 43.4392 238.963 43.7795L240.424 44.6241C240.93 44.8787 241.484 45.0235 242.051 45.0489C242.617 45.0743 243.182 44.9798 243.709 44.7716C242.864 45.0867 242.22 44.6107 242.22 43.5851V26.0688C242.242 25.4441 242.422 24.8351 242.743 24.299L237.689 21.3763C237.367 21.9148 237.188 22.5259 237.166 23.1527V40.6691Z" fill="black"/>
<path opacity="0.2" d="M279.626 3.90006C279.418 3.13585 278.721 2.89453 277.89 3.37048L244.017 22.9448C243.484 23.2721 243.046 23.7347 242.75 24.2855L237.695 21.3695C237.996 20.8216 238.432 20.3599 238.962 20.0288L272.829 0.454439C273.387 0.174818 274.004 0.0292358 274.628 0.0292358C275.253 0.0292358 275.87 0.174818 276.428 0.454439L277.89 1.29908C278.341 1.59154 278.728 1.9731 279.026 2.42035C279.325 2.86761 279.529 3.37114 279.626 3.90006Z" fill="white"/>
</svg>
