<svg width="295" height="276" viewBox="0 0 295 276" fill="none" xmlns="http://www.w3.org/2000/svg">
<path d="M147.5 275.332C228.962 275.332 295 241.525 295 199.821C295 158.118 228.962 124.31 147.5 124.31C66.038 124.31 0 158.118 0 199.821C0 241.525 66.038 275.332 147.5 275.332Z" fill="#FAFAFA"/>
<path d="M231.594 248.568C253.789 248.568 271.781 237.454 271.781 223.743C271.781 210.033 253.789 198.919 231.594 198.919C209.399 198.919 191.406 210.033 191.406 223.743C191.406 237.454 209.399 248.568 231.594 248.568Z" fill="#E0E0E0"/>
<path d="M136.191 179.199L110.44 164.337C110.013 164.118 109.539 164.003 109.059 164.003C108.579 164.003 108.105 164.118 107.678 164.337L22.3282 213.621C22.1609 213.677 22.0155 213.784 21.9124 213.927C21.8094 214.07 21.7539 214.242 21.7539 214.418C21.7539 214.594 21.8094 214.766 21.9124 214.909C22.0155 215.052 22.1609 215.159 22.3282 215.215L48.0733 230.084C48.5022 230.298 48.9751 230.41 49.4545 230.41C49.934 230.41 50.4068 230.298 50.8357 230.084L58.4431 225.69L128.578 185.305L136.198 180.825C136.37 180.769 136.52 180.66 136.626 180.514C136.732 180.367 136.789 180.191 136.789 180.01C136.788 179.829 136.73 179.653 136.622 179.507C136.515 179.361 136.364 179.253 136.191 179.199Z" fill="#E0E0E0"/>
<path d="M251.956 214.511L247.977 212.397C247.977 212.397 248.366 192.968 252.395 177.92C256.523 162.514 268.537 145.494 279.889 151.872C291.241 158.25 271.064 171.357 264.996 184.007C258.927 196.657 251.956 214.511 251.956 214.511Z" fill="#2FA5A9"/>
<path opacity="0.15" d="M251.956 214.511L247.977 212.397C247.977 212.397 248.366 192.968 252.395 177.92C256.523 162.514 268.537 145.494 279.889 151.872C291.241 158.25 271.064 171.357 264.996 184.007C258.927 196.657 251.956 214.511 251.956 214.511Z" fill="black"/>
<path d="M251.432 209.901C251.38 209.899 251.328 209.887 251.28 209.865C251.232 209.844 251.188 209.813 251.152 209.774C251.116 209.736 251.088 209.691 251.069 209.641C251.05 209.592 251.042 209.539 251.043 209.486C251.896 179.335 265.078 160.925 276.109 154.325C276.2 154.27 276.31 154.254 276.414 154.28C276.518 154.306 276.607 154.373 276.662 154.464C276.717 154.556 276.733 154.666 276.707 154.77C276.681 154.874 276.614 154.963 276.523 155.018C265.665 161.513 252.693 179.681 251.847 209.505C251.846 209.558 251.834 209.611 251.813 209.66C251.792 209.709 251.761 209.753 251.722 209.789C251.684 209.826 251.638 209.855 251.589 209.874C251.539 209.893 251.486 209.902 251.432 209.901Z" fill="white"/>
<path d="M253.757 215.438L250.203 213.615C250.203 213.615 250.642 204.073 257.953 191.639C264.441 180.596 277.592 171.944 283.117 175.028C287.406 177.413 288.394 182.641 284.285 186.121C280.175 189.6 261.203 196.898 253.757 215.438Z" fill="#2FA5A9"/>
<path d="M252.33 212.391C252.948 212.515 253.164 210.988 253.288 210.599C253.523 209.87 253.77 209.153 254.042 208.436C254.574 207.042 255.178 205.676 255.852 204.345C257.15 201.784 258.67 199.342 260.394 197.046C262.006 194.898 263.763 192.862 265.654 190.953C267.359 189.237 269.154 187.611 271.03 186.083C272.6 184.798 274.231 183.581 275.906 182.437C277.142 181.597 278.378 180.794 279.669 180.04C280.343 179.644 281.017 179.255 281.715 178.896L281.913 178.797C282.023 178.743 282.108 178.648 282.148 178.531C282.188 178.415 282.18 178.287 282.126 178.176C282.072 178.066 281.976 177.981 281.859 177.941C281.743 177.901 281.615 177.909 281.505 177.963C281.072 178.173 280.658 178.408 280.269 178.643C279.181 179.261 278.118 179.879 277.074 180.571C275.525 181.572 274.013 182.631 272.538 183.748C270.709 185.132 268.951 186.601 267.266 188.154C265.346 189.913 263.538 191.791 261.853 193.777C260.026 195.919 258.373 198.202 256.909 200.606C255.351 203.15 254.047 205.841 253.016 208.64C252.822 209.18 252.637 209.717 252.46 210.253C252.2 210.787 252.042 211.366 251.996 211.958C252.004 212.053 252.037 212.143 252.093 212.219C252.148 212.295 252.224 212.355 252.311 212.391H252.33Z" fill="white"/>
<path d="M50.6591 197.566C50.6591 197.566 50.758 185.447 45.9933 175.417C41.2287 165.387 33.7758 158.602 26.2179 157.051C18.66 155.5 11.6891 161.741 19.2285 167.556C26.7679 173.372 40.6169 180.101 45.0416 198.938L50.6591 197.566Z" fill="#2FA5A9"/>
<path opacity="0.15" d="M50.6591 197.566C50.6591 197.566 50.758 185.447 45.9933 175.417C41.2287 165.387 33.7758 158.602 26.2179 157.051C18.66 155.5 11.6891 161.741 19.2285 167.556C26.7679 173.372 40.6169 180.101 45.0416 198.938L50.6591 197.566Z" fill="black"/>
<path d="M47.5059 195.471C47.4271 195.471 47.3512 195.441 47.2937 195.387C47.2363 195.333 47.2017 195.259 47.1969 195.18C46.0351 175.782 30.0541 163.169 22.1563 161.018C22.0779 160.997 22.0112 160.945 21.9707 160.874C21.9302 160.804 21.9192 160.72 21.94 160.641C21.9617 160.561 22.0142 160.493 22.0859 160.451C22.1576 160.41 22.2429 160.398 22.3232 160.419C30.3569 162.613 46.6346 175.436 47.8149 195.143C47.8169 195.224 47.788 195.303 47.7341 195.364C47.6802 195.425 47.6053 195.463 47.5245 195.471H47.5059Z" fill="white"/>
<path d="M51.6322 214.202C53.1631 212.27 54.1904 209.988 54.6219 207.561C55.0533 205.134 54.8754 202.638 54.1041 200.297C53.6555 198.883 52.9379 197.57 51.9906 196.429C51.2305 195.532 50.1367 195.069 49.2468 194.321C47.331 192.733 45.1063 191.046 44.4142 188.525C43.858 186.516 43.9754 184.613 42.863 182.728C42.2076 181.548 41.1639 180.63 39.9091 180.132C38.2714 179.514 36.4669 179.922 34.7366 180.132C32.2646 180.41 30.4107 179.558 28.2725 178.421C25.918 177.185 23.1679 176.208 20.6157 176.968C19.7856 177.214 19.0165 177.632 18.3581 178.194C17.6998 178.756 17.1669 179.45 16.794 180.232C16.4211 181.013 16.2166 181.864 16.1936 182.729C16.1706 183.595 16.3297 184.455 16.6606 185.255C17.2291 186.64 18.2797 187.764 19.0522 189.05C19.8246 190.335 20.2325 191.806 19.6702 193.209C19.2376 194.247 18.4342 195.063 18.1128 196.12C17.1982 198.9 17.7111 201.372 20.4735 202.806C23.3595 204.283 27.8893 203.171 29.3354 206.798C29.8792 208.176 29.8978 209.703 30.1944 211.155C30.8033 214.078 32.5026 216.659 34.9467 218.373C38.2652 220.678 42.7703 220.116 46.2125 218.509C48.3272 217.511 50.1822 216.036 51.6322 214.202Z" fill="#2FA5A9"/>
<path d="M25.6195 196.651C25.687 196.662 25.7564 196.652 25.8172 196.62C28.2512 195.679 30.8634 195.289 33.4661 195.477C36.0689 195.665 38.5978 196.427 40.8713 197.708C40.9491 197.749 41.0403 197.759 41.1249 197.733C41.2095 197.708 41.2805 197.65 41.3224 197.572C41.3441 197.534 41.3579 197.492 41.3632 197.448C41.3684 197.405 41.3648 197.361 41.3527 197.319C41.3406 197.277 41.3202 197.238 41.2927 197.204C41.2652 197.17 41.2312 197.141 41.1926 197.121C38.8306 195.794 36.204 195.008 33.5016 194.817C30.7993 194.627 28.0884 195.038 25.5638 196.021C25.5045 196.053 25.4564 196.103 25.4261 196.164C25.3957 196.224 25.3845 196.292 25.3938 196.36C25.4032 196.427 25.4328 196.489 25.4786 196.539C25.5244 196.589 25.5843 196.624 25.6503 196.639L25.6195 196.651Z" fill="white"/>
<path d="M47.1947 214.307C47.1138 214.308 47.0355 214.278 46.9766 214.223C46.9176 214.167 46.8828 214.091 46.8796 214.01C46.3049 200.044 32.2828 185.274 22.8833 181.257C22.8454 181.242 22.8109 181.219 22.7819 181.19C22.7529 181.161 22.7299 181.126 22.7144 181.088C22.6989 181.05 22.6911 181.009 22.6914 180.968C22.6918 180.927 22.7003 180.887 22.7165 180.849C22.7503 180.773 22.8128 180.714 22.8904 180.684C22.968 180.653 23.0543 180.655 23.1305 180.688C32.6783 184.78 46.9167 199.797 47.5037 213.998C47.5054 214.039 47.4989 214.08 47.4845 214.119C47.4702 214.158 47.4484 214.194 47.4202 214.224C47.3921 214.255 47.3583 214.279 47.3206 214.297C47.283 214.314 47.2423 214.324 47.2009 214.325L47.1947 214.307Z" fill="white"/>
<path d="M124.591 14.7419L54.6481 55.1085C53.9555 55.5606 53.3799 56.1704 52.9685 56.888C52.557 57.6056 52.3215 58.4104 52.2812 59.2366V223.947C52.2812 225.455 53.3442 226.067 54.6481 225.307L124.591 184.928C125.279 184.477 125.852 183.871 126.263 183.158C126.674 182.445 126.912 181.646 126.958 180.825V16.0891C126.958 14.5812 125.895 13.9632 124.591 14.7419ZM123.553 168.619C123.553 169.911 122.645 170.733 121.526 171.376L57.4785 208.368C56.3661 208.986 55.4515 208.492 55.4515 207.194V70.2181C55.4517 69.5099 55.6387 68.8142 55.9934 68.2012C56.3482 67.5882 56.8583 67.0796 57.4723 66.7265L121.52 29.7279C121.726 29.6085 121.959 29.5454 122.197 29.5448C122.434 29.5442 122.668 29.6063 122.874 29.7247C123.08 29.8431 123.251 30.0136 123.371 30.2192C123.49 30.4249 123.553 30.6582 123.553 30.8959V168.619Z" fill="#455A64"/>
<path d="M123.555 168.619C123.555 169.911 122.646 170.733 121.528 171.376L57.4801 208.368C56.3677 208.986 55.4531 208.492 55.4531 207.194V70.2181C55.4534 69.5099 55.6403 68.8142 55.9951 68.2012C56.3499 67.5882 56.8599 67.0796 57.4739 66.7265L121.522 29.7279C121.727 29.6085 121.96 29.5454 122.198 29.5448C122.436 29.5442 122.669 29.6063 122.876 29.7247C123.082 29.843 123.253 30.0136 123.372 30.2192C123.491 30.4248 123.554 30.6582 123.555 30.8959V168.619Z" fill="#263238"/>
<path d="M57.4801 208.368L121.528 171.388C121.977 171.145 122.393 170.844 122.764 170.492L55.4531 132.585V207.194C55.4531 208.492 56.3677 209.011 57.4801 208.368Z" fill="#37474F"/>
<path d="M118.37 166.215V31.5509L57.4739 66.7265C56.8599 67.0795 56.3499 67.5881 55.9951 68.2011C55.6403 68.8141 55.4534 69.5098 55.4531 70.2181V204.129L116.343 168.972C117.461 168.329 118.37 167.507 118.37 166.215Z" fill="#2FA5A9"/>
<path d="M54.3529 225.474C53.6466 225.772 52.8841 225.913 52.118 225.887C51.3519 225.861 50.6006 225.67 49.9158 225.326L47.209 223.762C46.5183 223.315 45.9432 222.71 45.5308 221.998C45.1183 221.286 44.8802 220.487 44.8359 219.665V54.9107C44.8515 54.3001 44.9902 53.6989 45.2438 53.1432C45.3303 52.9517 45.423 52.7663 45.5281 52.5747L52.9439 56.9006C52.788 57.1792 52.6517 57.4682 52.536 57.7658C52.356 58.2337 52.2577 58.7291 52.2455 59.2304V223.947C52.2826 225.338 53.1849 225.968 54.3529 225.474Z" fill="#263238"/>
<path d="M91.7078 192.288C93.2218 192.288 93.3825 193.988 93.3825 194.717C93.292 196.178 92.8637 197.598 92.1313 198.866C91.3989 200.133 90.3824 201.213 89.1617 202.021C88.6719 202.333 88.1098 202.511 87.5302 202.54C86.0161 202.54 85.8555 200.841 85.8555 200.112C85.9467 198.651 86.3746 197.231 87.1057 195.962C87.8369 194.694 88.8514 193.612 90.0701 192.801C90.564 192.495 91.1274 192.318 91.7078 192.288Z" fill="#2FA5A9"/>
<path d="M89.572 37.5515C90.1899 37.1807 90.7276 37.4774 90.7276 38.219C90.7052 38.6199 90.5889 39.0099 90.3882 39.3577C90.1875 39.7055 89.9079 40.0012 89.572 40.2212C88.954 40.5858 88.4102 40.2892 88.4102 39.5538C88.4313 39.1519 88.5477 38.7607 88.7497 38.4126C88.9517 38.0645 89.2335 37.7694 89.572 37.5515Z" fill="#263238"/>
<path d="M82.1079 47.3095C82.6764 46.982 83.1337 47.2477 83.1337 47.9275C83.1149 48.2831 83.0121 48.6292 82.8338 48.9375C82.6555 49.2458 82.4067 49.5074 82.1079 49.7011C81.5393 50.0286 81.082 49.7629 81.082 49.0831C81.1019 48.7277 81.205 48.382 81.3833 48.0739C81.5615 47.7657 81.8097 47.5039 82.1079 47.3095Z" fill="#263238"/>
<path d="M85.5355 45.2825L97.0238 38.6516C97.6418 38.2869 98.1609 38.5465 98.1609 39.2263C98.1308 39.608 98.0124 39.9775 97.8151 40.3057C97.6177 40.6339 97.3469 40.9117 97.0238 41.1173L85.5355 47.7483C84.9175 48.1129 84.3984 47.8533 84.3984 47.1735C84.4286 46.7918 84.5469 46.4223 84.7443 46.0941C84.9416 45.7659 85.2125 45.4881 85.5355 45.2825Z" fill="#263238"/>
<path d="M126.935 15.712C126.761 14.4761 125.779 14.0373 124.599 14.7233L54.6429 55.1084C53.9429 55.5429 53.368 56.152 52.9744 56.8758L45.5586 52.55C45.9583 51.8319 46.5348 51.2278 47.2333 50.7949L117.146 10.4159C117.879 10.044 118.69 9.85022 119.513 9.85022C120.335 9.85022 121.146 10.044 121.879 10.4159L124.599 11.9732C125.232 12.3936 125.769 12.9448 126.171 13.5896C126.574 14.2345 126.835 14.9582 126.935 15.712Z" fill="#37474F"/>
<path d="M108.591 20.7114C108.228 20.9053 107.825 21.0103 107.413 21.0178C107.002 21.0253 106.594 20.9351 106.225 20.7546C106.101 20.7018 105.993 20.6165 105.914 20.5077C105.835 20.3989 105.786 20.2707 105.773 20.1367C105.773 19.9636 105.773 19.3209 105.773 19.1417C105.793 18.9875 105.853 18.841 105.946 18.7165C106.039 18.592 106.163 18.4936 106.305 18.431L113.801 14.1051C114.166 13.9126 114.57 13.8084 114.982 13.8009C115.395 13.7934 115.803 13.8828 116.174 14.0619C116.296 14.1172 116.401 14.2033 116.479 14.3117C116.557 14.4201 116.605 14.547 116.619 14.6799C116.619 14.8591 116.619 15.5265 116.619 15.6995C116.6 15.8547 116.54 16.0021 116.447 16.1277C116.354 16.2533 116.23 16.3527 116.088 16.4164L108.591 20.7114Z" fill="#2FA5A9"/>
<path opacity="0.25" d="M108.591 20.7114C108.228 20.9053 107.825 21.0103 107.413 21.0178C107.002 21.0253 106.594 20.9351 106.225 20.7546C106.101 20.7018 105.993 20.6165 105.914 20.5077C105.835 20.3989 105.786 20.2707 105.773 20.1367C105.773 19.9636 105.773 19.3209 105.773 19.1417C105.793 18.9875 105.853 18.841 105.946 18.7165C106.039 18.592 106.163 18.4936 106.305 18.431L113.801 14.1051C114.166 13.9126 114.57 13.8084 114.982 13.8009C115.395 13.7934 115.803 13.8828 116.174 14.0619C116.296 14.1172 116.401 14.2033 116.479 14.3117C116.557 14.4201 116.605 14.547 116.619 14.6799C116.619 14.8591 116.619 15.5265 116.619 15.6995C116.6 15.8547 116.54 16.0021 116.447 16.1277C116.354 16.2533 116.23 16.3527 116.088 16.4164L108.591 20.7114Z" fill="black"/>
<path d="M108.592 19.729L116.088 15.4031C116.767 15.0076 116.798 14.3958 116.168 14.0312C115.797 13.8521 115.388 13.7627 114.976 13.7702C114.564 13.7777 114.159 13.8819 113.795 14.0744L106.299 18.4003C105.625 18.7896 105.588 19.4014 106.225 19.7661C106.594 19.946 107.001 20.0365 107.412 20.03C107.824 20.0236 108.228 19.9205 108.592 19.729Z" fill="#2FA5A9"/>
<path opacity="0.3" d="M108.592 19.729L116.088 15.4031C116.767 15.0076 116.798 14.3958 116.168 14.0312C115.797 13.8521 115.388 13.7627 114.976 13.7702C114.564 13.7777 114.159 13.8819 113.795 14.0744L106.299 18.4003C105.625 18.7896 105.588 19.4014 106.225 19.7661C106.594 19.946 107.001 20.0365 107.412 20.03C107.824 20.0236 108.228 19.9205 108.592 19.729Z" fill="black"/>
<path d="M49.5218 79.735C49.5072 79.3237 49.3954 78.9218 49.1956 78.5619C48.9958 78.2021 48.7137 77.8947 48.3724 77.6648C48.2605 77.5822 48.128 77.5321 47.9895 77.5201C47.851 77.5081 47.7119 77.5347 47.5875 77.5968C47.4454 77.6833 46.8768 77.9985 46.7285 78.0912C46.6044 78.1852 46.5067 78.3098 46.445 78.4527C46.3833 78.5956 46.3596 78.7521 46.3763 78.9069V97.2734C46.3912 97.6839 46.5025 98.0852 46.7011 98.4448C46.8997 98.8044 47.18 99.1123 47.5195 99.3436C47.6312 99.4188 47.7604 99.4639 47.8946 99.4748C48.0288 99.4856 48.1635 99.4617 48.2858 99.4054C48.4465 99.3251 49.0212 98.9914 49.1757 98.8987C49.2998 98.8046 49.3975 98.6801 49.4592 98.5372C49.521 98.3942 49.5446 98.2377 49.528 98.0829L49.5218 79.735Z" fill="#2FA5A9"/>
<path opacity="0.3" d="M49.5218 79.735C49.5072 79.3237 49.3954 78.9218 49.1956 78.5619C48.9958 78.2021 48.7137 77.8947 48.3724 77.6648C48.2605 77.5822 48.128 77.5321 47.9895 77.5201C47.851 77.5081 47.7119 77.5347 47.5875 77.5968C47.4454 77.6833 46.8768 77.9985 46.7285 78.0912C46.6044 78.1852 46.5067 78.3098 46.445 78.4527C46.3833 78.5956 46.3596 78.7521 46.3763 78.9069V97.2734C46.3912 97.6839 46.5025 98.0852 46.7011 98.4448C46.8997 98.8044 47.18 99.1123 47.5195 99.3436C47.6312 99.4188 47.7604 99.4639 47.8946 99.4748C48.0288 99.4856 48.1635 99.4617 48.2858 99.4054C48.4465 99.3251 49.0212 98.9914 49.1757 98.8987C49.2998 98.8046 49.3975 98.6801 49.4592 98.5372C49.521 98.3942 49.5446 98.2377 49.528 98.0829L49.5218 79.735Z" fill="black"/>
<path d="M48.6716 80.2479V98.6143C48.6716 99.393 48.1587 99.7267 47.5222 99.3621C47.1827 99.1308 46.9023 98.8229 46.7037 98.4633C46.5051 98.1037 46.3938 97.7024 46.3789 97.2919V78.9069C46.3789 78.122 46.8918 77.7883 47.5222 78.1529C47.8661 78.386 48.1498 78.6975 48.3496 79.0618C48.5495 79.426 48.6598 79.8326 48.6716 80.2479Z" fill="#2FA5A9"/>
<path opacity="0.4" d="M48.6716 80.2479V98.6143C48.6716 99.393 48.1587 99.7267 47.5222 99.3621C47.1827 99.1308 46.9023 98.8229 46.7037 98.4633C46.5051 98.1037 46.3938 97.7024 46.3789 97.2919V78.9069C46.3789 78.122 46.8918 77.7883 47.5222 78.1529C47.8661 78.386 48.1498 78.6975 48.3496 79.0618C48.5495 79.426 48.6598 79.8326 48.6716 80.2479Z" fill="black"/>
<path d="M49.5218 104.349C49.5072 103.938 49.3954 103.536 49.1956 103.176C48.9958 102.816 48.7137 102.509 48.3724 102.279C48.2605 102.196 48.128 102.146 47.9895 102.134C47.851 102.122 47.7119 102.149 47.5875 102.211C47.4454 102.298 46.8768 102.613 46.7285 102.705C46.6044 102.799 46.5067 102.924 46.445 103.067C46.3833 103.21 46.3596 103.366 46.3763 103.521V112.173C46.3922 112.582 46.5039 112.982 46.7024 113.341C46.901 113.699 47.1808 114.006 47.5195 114.237C47.6276 114.317 47.755 114.367 47.8887 114.381C48.0223 114.395 48.1573 114.373 48.2797 114.317C48.4403 114.237 49.0151 113.903 49.1696 113.811C49.2932 113.718 49.3906 113.594 49.4523 113.452C49.514 113.31 49.538 113.155 49.5218 113.001V104.349Z" fill="#2FA5A9"/>
<path opacity="0.3" d="M49.5218 104.349C49.5072 103.938 49.3954 103.536 49.1956 103.176C48.9958 102.816 48.7137 102.509 48.3724 102.279C48.2605 102.196 48.128 102.146 47.9895 102.134C47.851 102.122 47.7119 102.149 47.5875 102.211C47.4454 102.298 46.8768 102.613 46.7285 102.705C46.6044 102.799 46.5067 102.924 46.445 103.067C46.3833 103.21 46.3596 103.366 46.3763 103.521V112.173C46.3922 112.582 46.5039 112.982 46.7024 113.341C46.901 113.699 47.1808 114.006 47.5195 114.237C47.6276 114.317 47.755 114.367 47.8887 114.381C48.0223 114.395 48.1573 114.373 48.2797 114.317C48.4403 114.237 49.0151 113.903 49.1696 113.811C49.2932 113.718 49.3906 113.594 49.4523 113.452C49.514 113.31 49.538 113.155 49.5218 113.001V104.349Z" fill="black"/>
<path d="M48.6716 104.813V113.465C48.6716 114.243 48.1587 114.583 47.5222 114.212C47.1827 113.981 46.9023 113.673 46.7037 113.313C46.5051 112.954 46.3938 112.553 46.3789 112.142V103.49C46.3789 102.712 46.8918 102.372 47.5222 102.736C47.863 102.968 48.1445 103.277 48.3442 103.638C48.5438 103.998 48.656 104.401 48.6716 104.813Z" fill="#2FA5A9"/>
<path opacity="0.4" d="M48.6716 104.813V113.465C48.6716 114.243 48.1587 114.583 47.5222 114.212C47.1827 113.981 46.9023 113.673 46.7037 113.313C46.5051 112.954 46.3938 112.553 46.3789 112.142V103.49C46.3789 102.712 46.8918 102.372 47.5222 102.736C47.863 102.968 48.1445 103.277 48.3442 103.638C48.5438 103.998 48.656 104.401 48.6716 104.813Z" fill="black"/>
<path d="M70.0001 89.0171C70.0616 89.3171 70.1442 89.6124 70.2473 89.9008C70.649 90.9884 71.3721 92.0143 71.3103 93.1761C71.2423 94.4862 70.2103 95.4997 69.4192 96.5441C68.3912 97.9249 67.7061 99.5303 67.4203 101.228C67.1345 102.926 67.2562 104.667 67.7754 106.308C68.5352 108.307 69.5892 110.182 70.9024 111.87L73.8873 116.103C74.7898 117.288 75.9417 118.261 77.2614 118.952C79.8263 120.402 82.688 121.247 85.6289 121.424C90.4629 121.75 95.2713 120.49 99.3234 117.834C103.618 114.991 101.727 107.699 106.121 105.035C111.436 101.822 113.97 90.6609 107.456 86.0013C107.456 86.0013 108.507 79.1664 106.579 77.4237C104.657 75.8159 102.279 74.8518 99.7807 74.6675C96.3324 74.3091 92.8779 74.9827 89.4357 74.9703C85.8922 74.9589 82.3518 75.1798 78.8373 75.6316C77.6013 75.7984 75.8586 76.2495 75.1912 77.4546C75.0028 77.9272 74.9514 78.4434 75.0429 78.9439C75.0333 79.738 74.7495 80.5043 74.2395 81.1131C73.4732 82.04 72.3856 82.6642 71.5698 83.5356C70.8967 84.2621 70.4039 85.1369 70.1312 86.0891C69.8585 87.0413 69.8136 88.0443 70.0001 89.0171Z" fill="#263238"/>
<path d="M104.301 98.8801C109.863 99.0346 110.586 100.221 115.567 105.153C119.707 109.25 133.426 121.912 133.426 121.912L149.865 126.288L145.984 136.317C145.984 136.317 142.276 136.163 134.86 136.157C130.305 136.157 128.723 135.137 124.138 132.078C121.802 130.515 108.62 121.888 108.62 121.888L104.301 98.8801Z" fill="#E6E6E6"/>
<path d="M168.053 106.005L137.927 116.622L129.621 152.465L130.295 153.182L158.938 142.497L168.721 106.722L168.053 106.005Z" fill="#2FA5A9"/>
<path opacity="0.35" d="M138.594 117.339L130.295 153.182L129.621 152.465L137.927 116.622L138.594 117.339Z" fill="black"/>
<path opacity="0.25" d="M168.719 106.722L138.592 117.339L130.293 153.182L158.936 142.497L168.719 106.722Z" fill="black"/>
<g opacity="0.2">
<path d="M154.457 135.205C154.735 135.91 157.046 137.461 160.39 137.183L160.952 135.119L154.457 135.205Z" fill="black"/>
</g>
<g opacity="0.1">
<path d="M159.648 114.064L159.895 112.859C160.031 112.198 158.263 112.544 155.946 113.637L150.508 115.281C148.19 116.375 146.003 117.191 145.86 117.852L145.613 119.051L159.648 114.064Z" fill="black"/>
</g>
<path d="M161.438 108.626C161.525 108.212 160.82 108.298 159.875 108.551L158.138 109.139C158.138 109.139 158.849 107.396 154.739 108.521C150.222 109.757 150.123 112 150.123 112C149.416 112.306 148.692 112.57 147.954 112.791C146.452 113.279 146.291 113.569 146.168 113.99L145.945 114.75L161.302 109.349C161.302 109.349 161.376 109.04 161.438 108.626Z" fill="#37474F"/>
<path d="M159.818 110.931C158.397 111.549 157.81 111.889 157.593 112.914C157.352 114.082 157.303 114.571 157.303 114.571L149.306 117.722C149.306 117.722 149.739 115.998 149.844 115.423C149.949 114.849 148.892 114.849 147.508 115.485L147.835 114.052L160.275 109.435L159.818 110.931Z" fill="#37474F"/>
<path d="M160.056 114.082C160.056 114.082 160.173 113.545 160.309 112.877C160.445 112.21 158.677 112.562 156.36 113.656L150.922 115.3C148.604 116.394 146.41 117.209 146.275 117.871L146.027 119.107L160.056 114.082Z" fill="#37474F"/>
<path d="M165.368 118.983C165.368 118.983 164.299 122.913 164.015 123.927C163.731 124.94 158.799 127.196 156.334 127.505C151.612 128.092 151.075 129.112 152.205 132.449C153.256 135.539 156.327 136.713 160.591 136.212C162.594 135.978 165.356 134.204 166.444 131.108C167.828 127.153 167.062 122.932 167.636 120.602C168.211 118.272 166.567 117.605 165.368 118.983Z" fill="#FFA8A7"/>
<path d="M118.686 173.032L115.491 174.886L114.15 175.658L96.5745 185.799L94.1767 187.159L90.1289 189.495L91.3649 176.882L93.7256 152.459V152.206L93.8368 151.112L96.9267 119.181L98.2801 105.208L98.7559 100.196L98.9166 98.5773H99.0031C100.434 98.1792 101.947 98.1792 103.378 98.5773C103.698 98.674 104.008 98.7981 104.305 98.9481C106.159 99.8688 107.395 101.661 108.421 103.546C108.673 104.005 108.9 104.477 109.101 104.961C109.863 106.793 110.451 108.692 110.856 110.634C111.666 114.218 112.71 117.883 113.124 123.661C113.189 125.148 113.111 126.639 112.889 128.111C112.611 132.006 112.563 135.914 112.747 139.815C113.266 148.652 115.491 152.657 118.686 173.032Z" fill="#E0E0E0"/>
<path d="M114.15 175.646L96.5749 185.787L94.1771 187.159L90.1293 189.495L87.3422 191.102L70.4219 200.866C70.6011 194.068 70.6814 186.695 70.5207 179.731C70.4713 177.401 70.4528 175.022 70.5516 172.587C70.873 164.133 72.4798 155.067 78.2393 145.525L78.5051 145.043C79.1849 149.079 85.3647 151.699 90.9265 152.317L91.5445 152.373C92.2428 152.441 92.9659 152.471 93.7136 152.471H94.1833C98.8861 152.428 104.454 151.322 110.869 149.153C111.487 152.737 112.105 157.44 112.766 162.94C113.063 165.412 113.363 168.047 113.668 170.844C113.792 172.408 113.983 174.008 114.15 175.646Z" fill="#FFA8A7"/>
<path d="M115.49 174.873L114.149 175.646L96.5734 185.787L94.1756 187.159L90.1278 189.495L87.3407 191.102L70.4204 200.866L68.5664 201.935C68.6591 194.618 68.7209 187.449 68.7147 182.95C68.7147 178.767 68.8074 175.046 69.0361 171.746C69.4872 165.233 70.4265 160.332 71.9962 156.624C73.838 152.566 76.0168 148.669 78.5097 144.975C78.5097 144.975 80.0547 150.191 91.611 151.013H91.6851C92.3649 151.062 93.0818 151.093 93.8357 151.106H94.7132C109.1 151.106 110.688 147.478 110.688 147.478C112.093 152.812 113.205 158.22 114.019 163.675C114.324 165.604 114.618 167.664 114.903 169.855C115.113 171.462 115.311 173.131 115.49 174.873Z" fill="#2FA5A9"/>
<path opacity="0.4" d="M115.49 174.873L114.149 175.646L96.5734 185.787L94.1756 187.159L90.1278 189.495L87.3407 191.102L70.4204 200.866L68.5664 201.935C68.6591 194.618 68.7209 187.449 68.7147 182.95C68.7147 178.767 68.8074 175.046 69.0361 171.746C69.4872 165.233 70.4265 160.332 71.9962 156.624C73.838 152.566 76.0168 148.669 78.5097 144.975C78.5097 144.975 80.0547 150.191 91.611 151.013H91.6851C92.3649 151.062 93.0818 151.093 93.8357 151.106H94.7132C109.1 151.106 110.688 147.478 110.688 147.478C112.093 152.812 113.205 158.22 114.019 163.675C114.324 165.604 114.618 167.664 114.903 169.855C115.113 171.462 115.311 173.131 115.49 174.873Z" fill="black"/>
<path opacity="0.2" d="M107.244 166.673C107.244 166.673 105.637 171.777 98.8764 174.638L98.555 176.202L96.5775 185.787L94.1797 187.159L95.6134 176.585L96.2314 171.987C100.41 171.554 104.305 169.674 107.244 166.673Z" fill="black"/>
<path d="M86.6842 100.054L79.8864 100.771C75.3875 101.871 73.3543 103.861 72.8909 107.835C72.6746 109.689 71.556 114.632 73.1257 120.812C74.5471 126.424 78.3415 140.155 78.3415 140.155C78.3415 140.155 69.6094 151.551 68.0273 171.091C84.0084 181.523 108.524 175.918 115.155 169.614C114.598 163.645 110.786 147.262 110.31 141.941C110.31 141.941 110.662 133.629 111.323 130.026C116.378 124.508 115.736 119.23 113.468 114.972C109.278 107.112 102.962 100.203 100.916 100.209L86.6842 100.054Z" fill="#2FA5A9"/>
<path opacity="0.7" d="M86.6842 100.054L79.8864 100.771C75.3875 101.871 73.3543 103.861 72.8909 107.835C72.6746 109.689 71.556 114.632 73.1257 120.812C74.5471 126.424 78.3415 140.155 78.3415 140.155C78.3415 140.155 69.6094 151.551 68.0273 171.091C84.0084 181.523 108.524 175.918 115.155 169.614C114.598 163.645 110.786 147.262 110.31 141.941C110.31 141.941 110.662 133.629 111.323 130.026C116.378 124.508 115.736 119.23 113.468 114.972C109.278 107.112 102.962 100.203 100.916 100.209L86.6842 100.054Z" fill="white"/>
<path d="M92.5699 142.602C92.5699 142.726 92.5699 142.837 92.5699 142.93V143.091C92.5739 143.142 92.5739 143.194 92.5699 143.245C92.3351 145.717 92.057 148.343 91.7603 151.019C91.7603 151.019 91.7603 151.019 91.7603 151.056C91.7171 151.489 91.6676 151.921 91.6182 152.36C90.7098 160.425 89.6283 169.046 88.794 176.894C88.5901 178.798 88.4047 180.651 88.2378 182.456C87.9783 185.157 87.7002 188.117 87.4159 191.108L70.4956 200.872L68.6416 201.941L63.9141 204.666C64.8658 195.304 67.0843 173.613 68.3203 163.824C68.4624 162.718 68.6478 161.611 68.8579 160.511L69.0248 159.708L69.0989 159.381C69.1793 159.01 69.2596 158.651 69.3461 158.287C69.4326 157.922 69.513 157.613 69.5933 157.286C69.7849 156.538 69.9888 155.802 70.2113 155.086C70.3164 154.739 70.4152 154.393 70.5265 154.054C70.6377 153.714 70.7304 153.374 70.8416 153.04C71.0641 152.373 71.2804 151.718 71.5091 151.081C71.5064 151.069 71.5064 151.056 71.5091 151.044C71.6141 150.741 71.7254 150.426 71.8366 150.142C71.9849 149.721 72.1394 149.314 72.2939 148.906L72.4793 148.418C72.572 148.195 72.6523 147.979 72.7389 147.762C73.0417 147.002 73.3568 146.279 73.6349 145.606C73.6967 145.457 73.7647 145.309 73.8265 145.167C73.8883 145.025 73.9872 144.815 74.0613 144.642C74.2467 144.209 74.4321 143.807 74.6113 143.406C74.6855 143.233 74.7658 143.066 74.84 142.905C74.9141 142.744 75.0192 142.534 75.0995 142.361L75.217 142.114L75.3406 141.873C75.3486 141.841 75.3634 141.812 75.3838 141.787C75.4007 141.742 75.4213 141.698 75.4456 141.657C75.4606 141.629 75.473 141.6 75.4827 141.57C75.5341 141.483 75.5796 141.392 75.6186 141.298L76.0327 140.495C76.0327 140.452 76.076 140.421 76.0883 140.384L76.249 140.087L71.1074 118.767L68.5489 108.175V108.001C68.6663 107.062 69.4512 102.631 73.9748 101.284C76.5287 100.625 79.1447 100.235 81.7799 100.122C82.7934 100.06 83.708 100.036 84.4558 100.017H85.6361H86.3468C86.3484 100.032 86.3484 100.046 86.3468 100.06C86.3839 100.153 86.489 100.431 86.6496 100.864C86.667 100.936 86.6919 101.007 86.7238 101.074C86.7244 101.084 86.7244 101.095 86.7238 101.105C87.8362 104.158 90.957 113.044 92.5081 120.763C92.78 122.098 93.0025 123.402 93.1632 124.638C93.6266 128.5 93.2868 134.964 92.5699 142.602Z" fill="#FAFAFA"/>
<path d="M76.4185 129.878C76.4185 129.878 77.0365 126.831 77.9449 120.25C79.0017 112.661 78.6247 108.91 77.4815 106.512L71.0359 118.804L76.1775 140.124C76.1775 140.124 70.8938 149.802 68.7617 160.518C73.8168 146.236 79.3478 141.978 79.3478 141.978L76.4185 129.878Z" fill="#E6E6E6"/>
<path d="M99 95.2958C101.002 95.2958 101.237 95.6295 102.961 97.9407C103.987 99.3188 110.482 110.041 110.482 110.041C110.482 110.041 105.316 103.243 101.416 101.179C100.666 100.739 99.8532 100.414 99.0062 100.215L99 95.2958Z" fill="#EBEBEB"/>
<path d="M84.1925 118.081C84.1925 117.463 84.1307 116.128 84.0257 114.447C83.5128 106.203 83.2656 98.7874 86.0465 98.1694L86.2875 99.3065C84.2605 99.7452 84.9279 110.356 85.1813 114.348C85.2925 116.066 85.3791 117.438 85.3482 118.105L84.1925 118.081Z" fill="#2FA5A9"/>
<path d="M74.9219 64.1062L79.2478 67.6472C79.4829 67.3781 79.6607 67.0637 79.7701 66.7235C79.8796 66.3832 79.9184 66.0242 79.8843 65.6684C79.8502 65.3126 79.7438 64.9675 79.5716 64.6543C79.3995 64.341 79.1652 64.0662 78.8831 63.8467C78.3144 63.3763 77.5874 63.1412 76.8509 63.1895C76.1145 63.2377 75.4244 63.5657 74.9219 64.1062Z" fill="#263238"/>
<path d="M86.2157 95.821C86.2157 93.1081 79.8938 89.0232 76.6308 83.3193C73.3679 77.6153 74.9994 68.2343 79.4735 66.7944C79.5106 66.7944 79.6342 65.5893 79.6528 65.5028C79.9001 64.4144 80.3172 63.3717 80.8887 62.4129C82.7118 59.2736 86.5742 56.8511 90.1585 56.3443C104.329 54.2803 110.842 59.7865 113.444 65.8427C114.287 67.88 114.663 70.0804 114.544 72.2821C114.471 73.8991 113.871 75.4479 112.836 76.692C111.8 77.9362 110.386 78.8073 108.809 79.1726L86.2157 95.821Z" fill="#263238"/>
<path d="M105.875 63.8158C108.65 65.0518 111.288 69.2726 111.245 81.1502C111.208 91.2233 108.118 93.7694 106.561 94.5172C105.003 95.2649 101.957 94.8818 98.9967 94.4306V100.215C98.9967 100.215 101.215 102.396 100.437 103.768C99.6579 105.14 96.7843 106.302 92.3163 104.899C87.255 103.311 86.0994 99.9554 86.0994 99.9554L85.982 87.262C85.982 87.262 84.2825 89.048 81.2853 86.4278C78.8134 84.2587 77.9235 80.5446 79.7836 78.5052C81.6437 76.4659 84.0291 76.3052 86.1797 78.5856L87.7247 77.7698C90.4809 77.4485 94.5225 76.985 97.5012 75.4833C105.139 71.5962 105.93 67.3816 105.875 63.8158Z" fill="#FFA8A7"/>
<path d="M86.2227 76.9417L86.2597 82.5036C86.6169 82.513 86.9722 82.4493 87.3039 82.3164C87.6356 82.1835 87.9365 81.9842 88.1883 81.7306C88.4401 81.4771 88.6374 81.1748 88.768 80.8422C88.8986 80.5097 88.9599 80.1539 88.948 79.7968C88.9412 79.0638 88.6558 78.3608 88.1497 77.8305C87.6435 77.3003 86.9546 76.9825 86.2227 76.9417Z" fill="#263238"/>
<path d="M106.137 77.7327C106.139 77.994 106.219 78.2488 106.365 78.4655C106.511 78.6822 106.717 78.8513 106.958 78.9517C107.2 79.0522 107.465 79.0796 107.722 79.0306C107.979 78.9816 108.215 78.8583 108.402 78.676C108.59 78.4937 108.719 78.2605 108.775 78.0052C108.831 77.75 108.811 77.4839 108.717 77.24C108.623 76.9961 108.46 76.7851 108.247 76.6332C108.035 76.4813 107.782 76.3952 107.521 76.3855C107.341 76.3814 107.162 76.4131 106.995 76.4789C106.828 76.5447 106.675 76.6432 106.546 76.7686C106.417 76.8941 106.315 77.0439 106.244 77.2094C106.174 77.375 106.137 77.5528 106.137 77.7327Z" fill="black"/>
<path d="M95.475 78.3259C95.4641 78.5175 95.4912 78.7094 95.5546 78.8905C95.6181 79.0716 95.7166 79.2384 95.8447 79.3813C95.9727 79.5243 96.1277 79.6406 96.3007 79.7235C96.4738 79.8065 96.6615 79.8544 96.8531 79.8647C97.0476 79.8663 97.2405 79.8295 97.4207 79.7564C97.6009 79.6833 97.7649 79.5753 97.9033 79.4387C98.0417 79.302 98.1517 79.1394 98.2271 78.9601C98.3024 78.7808 98.3416 78.5884 98.3424 78.3939C98.3485 78.2056 98.3175 78.018 98.251 77.8417C98.1846 77.6654 98.0841 77.504 97.9553 77.3665C97.8264 77.2291 97.6718 77.1184 97.5002 77.0407C97.3286 76.963 97.1433 76.9199 96.9551 76.9138C96.7668 76.9077 96.5791 76.9388 96.4029 77.0052C96.2266 77.0717 96.0651 77.1722 95.9277 77.301C95.7902 77.4298 95.6795 77.5845 95.6019 77.7561C95.5242 77.9277 95.4811 78.1129 95.475 78.3012V78.3259Z" fill="black"/>
<path d="M109.669 75.2422L106.227 73.8765C106.306 73.6449 106.433 73.4322 106.598 73.2518C106.764 73.0713 106.965 72.927 107.189 72.8278C107.413 72.7286 107.655 72.6767 107.9 72.6753C108.144 72.6739 108.387 72.7231 108.612 72.8197C109.066 73.0105 109.428 73.3686 109.625 73.8196C109.822 74.2706 109.837 74.78 109.669 75.2422Z" fill="black"/>
<path d="M102.872 76.645L102.699 84.8889L107.13 83.9063L102.872 76.645Z" fill="#F28F8F"/>
<path d="M97.6529 86.5698L101.979 87.9108C101.916 88.2057 101.793 88.4846 101.618 88.73C101.443 88.9754 101.219 89.1822 100.96 89.3375C100.702 89.4928 100.414 89.5933 100.115 89.6328C99.8164 89.6723 99.5125 89.6499 99.2226 89.567C98.6289 89.3606 98.1362 88.9358 97.8446 88.3791C97.553 87.8223 97.4845 87.1753 97.6529 86.5698Z" fill="#B16668"/>
<path d="M100.046 89.6412C100.041 89.0397 99.7982 88.4644 99.3711 88.0408C98.944 87.6171 98.3667 87.3794 97.7651 87.3794C97.7054 87.3764 97.6456 87.3764 97.5859 87.3794C97.6081 87.8623 97.7749 88.3273 98.0648 88.7141C98.3546 89.1009 98.754 89.3917 99.2112 89.5485C99.4798 89.6371 99.764 89.6687 100.046 89.6412Z" fill="#F28F8F"/>
<path d="M98.9968 94.4615C95.876 94.0907 89.4428 92.2986 88.3984 89.6845C88.8169 90.9967 89.62 92.1529 90.7035 93.0031C92.644 94.6716 98.9968 96.4082 98.9968 96.4082V94.4615Z" fill="#F28F8F"/>
<path d="M86.0706 95.3267C85.2549 95.1598 84.5318 95.5183 83.8644 96.643C83.197 97.7677 81.7324 100.165 81.7324 100.165C81.7324 100.165 80.9722 108.069 81.7324 110.053C82.3874 111.759 89.6116 118.155 89.6116 118.155C89.6116 118.155 87.7268 125.256 87.6588 127.585C87.5908 129.915 91.9847 138.758 92.5162 143.282C92.5162 143.282 94.0796 129.069 93.406 123.945C92.2442 115.065 88.079 103.595 86.1139 99.9492L86.0706 95.3267Z" fill="#EBEBEB"/>
<path d="M90.4874 124.743C90.0053 123.595 89.4372 122.486 88.788 121.424C87.7621 119.725 86.4953 118.093 85.352 117.673C85.1787 117.604 84.9946 117.566 84.8082 117.562H84.7464C84.5582 117.572 84.3736 117.618 84.2025 117.698C83.3003 118.099 82.3486 119.329 81.5761 120.744C80.785 122.165 80.1331 123.66 79.6295 125.206C79.3329 126.164 79.4626 128.197 79.8149 130.521C80.507 135.032 82.0458 140.668 82.9048 141.78C83.5344 142.558 84.2782 143.235 85.111 143.789C84.6011 144.126 84.0509 144.398 83.4733 144.598C83.1466 144.718 82.8014 144.778 82.4537 144.778V145.587H82.5525C82.9199 145.581 83.2844 145.521 83.634 145.408C84.444 145.145 85.2089 144.76 85.902 144.265C86.6336 144.7 87.4277 145.021 88.2565 145.216C88.6468 145.31 89.0504 145.335 89.4492 145.291L89.3503 144.487C89.0043 144.516 88.6557 144.489 88.3183 144.407C87.7238 144.252 87.1509 144.023 86.6127 143.727C87.397 143.103 88.0842 142.366 88.652 141.539C89.1341 140.804 89.7273 138.27 90.1723 135.36C90.4442 133.623 90.6666 131.757 90.7902 130.057C90.9262 127.684 90.8644 125.651 90.4874 124.743ZM87.9352 141.094C87.3554 141.931 86.6437 142.668 85.8278 143.276C84.9612 142.741 84.1886 142.066 83.5413 141.28C82.7379 140.235 81.2548 134.735 80.5874 130.397C80.2475 128.203 80.1239 126.306 80.3958 125.453C80.8997 123.888 81.5667 122.38 82.3857 120.954C83.2385 119.484 84.1469 118.402 84.7773 118.377C85.525 118.377 86.7363 119.731 87.8672 121.467C88.0958 121.807 88.3121 122.178 88.5222 122.549C88.9832 123.347 89.396 124.173 89.7582 125.021C90.0981 125.861 90.1352 127.758 89.9807 129.965C89.8942 131.201 89.7582 132.492 89.5852 133.778C89.1155 137.133 88.4543 140.279 87.9352 141.076V141.094Z" fill="#455A64"/>
<path d="M90.5563 144.815C90.5659 145.051 90.5053 145.284 90.3822 145.485C90.259 145.687 90.0789 145.847 89.8646 145.946C89.6502 146.045 89.4113 146.078 89.1782 146.041C88.945 146.004 88.728 145.899 88.5547 145.739C88.3814 145.579 88.2595 145.37 88.2046 145.141C88.1497 144.911 88.1641 144.67 88.2461 144.449C88.3281 144.228 88.4739 144.036 88.6652 143.897C88.8564 143.759 89.0844 143.68 89.3203 143.671C89.6357 143.66 89.9428 143.773 90.1745 143.988C90.4061 144.202 90.5434 144.499 90.5563 144.815Z" fill="#263238"/>
<path d="M83.6302 145.136C83.6411 145.372 83.5816 145.606 83.4592 145.808C83.3369 146.011 83.1572 146.172 82.943 146.272C82.7289 146.372 82.4898 146.406 82.2563 146.37C82.0227 146.333 81.8052 146.229 81.6313 146.069C81.4573 145.909 81.3349 145.701 81.2794 145.471C81.2239 145.241 81.238 145 81.3197 144.778C81.4015 144.557 81.5473 144.364 81.7386 144.225C81.9299 144.087 82.1581 144.008 82.3943 143.999C82.5501 143.992 82.7058 144.017 82.8522 144.07C82.9987 144.124 83.1333 144.206 83.2481 144.311C83.3628 144.417 83.4557 144.544 83.5213 144.686C83.5869 144.827 83.6239 144.98 83.6302 145.136Z" fill="#263238"/>
<path d="M90.6903 130.045L90.0043 129.995C89.9344 129.989 89.8696 129.956 89.8235 129.903C89.7774 129.85 89.7536 129.781 89.7571 129.711C89.8993 127.443 89.8251 125.775 89.547 125.107C88.3481 122.178 85.8391 118.507 84.7824 118.55C83.7256 118.594 81.538 122.468 80.5863 125.484C80.37 126.176 80.4379 127.845 80.7655 130.094C80.7763 130.163 80.7596 130.233 80.7192 130.29C80.6787 130.346 80.6177 130.385 80.5492 130.397L79.8694 130.502C79.7982 130.511 79.7263 130.491 79.6696 130.447C79.6129 130.403 79.5758 130.339 79.5666 130.267C79.1896 127.746 79.1464 126.016 79.4306 125.12C79.9374 123.5 82.329 117.438 84.7329 117.339C87.1369 117.24 90.0352 123.074 90.6779 124.65C91.0302 125.515 91.1352 127.245 90.9745 129.785C90.9698 129.857 90.9376 129.924 90.8846 129.972C90.8316 130.021 90.762 130.047 90.6903 130.045Z" fill="#2FA5A9"/>
<path d="M75.8732 101.204C71.3496 101.13 69.2608 102.656 66.3934 106.494C64.1192 109.54 55.2697 126.003 52.3343 130.811L36.3533 122.271C33.1212 120.04 32.0768 116.517 30.0313 114.459C27.9858 112.402 25.8661 111.987 23.6166 110.288C21.3672 108.589 20.4526 107.266 19.8037 108.854C19.1548 110.443 21.6576 113.013 22.1335 113.65C22.6093 114.286 25.1183 115.702 21.8616 115.751C18.6048 115.8 12.1592 112.426 10.5896 111.827C9.0199 111.227 9.1126 113.1 9.88508 114.299C10.6576 115.498 10.6205 118.884 11.9244 120.843C13.3025 122.92 14.0565 123.822 17.1278 125.169C19.9829 126.405 25.9773 126.899 29.0116 128.797C32.0459 130.694 39.5668 137.38 44.1398 141.391C49.955 146.489 53.9657 147.423 57.204 144.364C60.3495 141.07 63.5383 137.207 65.0956 135.248C69.2917 129.965 75.9288 117.945 75.9288 117.945C75.9288 117.945 78.8025 111.765 75.8732 101.204Z" fill="#FFA8A7"/>
<path d="M76.4998 100.753C69.8379 100.753 67.848 103.163 64.4368 108.731C61.0255 114.299 52.2749 130.237 52.2749 130.237L39.6742 123.636C39.6742 123.636 37.4062 128.63 34.9961 133.778C34.9961 133.778 42.1276 139.957 45.5018 142.88C48.876 145.803 53.3502 148.096 57.4968 144.518C61.9278 140.699 76.2959 120.856 76.2959 120.856C79.7071 114.663 78.947 105.276 76.4998 100.753Z" fill="#F0F0F0"/>
<path d="M52.2734 130.237C54.3313 132.659 56.8218 135.384 56.7106 137.529C56.7106 137.529 58.1196 135.625 53.1695 128.611L52.2734 130.237Z" fill="#E0E0E0"/>
<path d="M28.4359 70.8051L23.2819 73.7591L23.3004 67.8388L19.4442 65.6141L10.4526 70.8051V81.1872L1.46094 86.3783V96.7604L5.31715 98.9851L10.4526 96.0188V101.958L14.3088 104.182L23.3004 98.9851V88.603L32.2921 83.412V73.0299L28.4359 70.8051Z" fill="#2FA5A9"/>
<path d="M5.31641 88.603V98.9851L14.308 93.794V104.182L23.2997 98.9851V88.603L32.2913 83.4119V73.0298L23.2688 78.2394L23.2997 67.8387L14.308 73.0298V83.4119L5.31641 88.603Z" fill="#2FA5A9"/>
<g opacity="0.2">
<path d="M5.31715 98.9851L1.46094 96.7604V86.3783L5.31715 88.603V98.9851Z" fill="black"/>
<path d="M14.3093 73.0299L10.4531 70.8051V81.1872L14.3093 83.412V73.0299Z" fill="black"/>
<path d="M14.3093 104.182L10.4531 101.958V96.0187L14.3093 93.794V104.182Z" fill="black"/>
</g>
<g opacity="0.5">
<path d="M14.3088 83.412L10.4526 81.1873L1.46094 86.3783L5.31715 88.603L14.3088 83.412Z" fill="white"/>
<path d="M23.301 67.8388L19.4448 65.6141L10.4531 70.8051L14.3093 73.0299L23.301 67.8388Z" fill="white"/>
<path d="M32.2921 73.0299L28.4359 70.8051L23.2819 73.7591L23.2695 78.2394L32.2921 73.0299Z" fill="white"/>
</g>
<path d="M176.334 49.9667C176.171 49.8253 175.995 49.6991 175.809 49.5897C175.154 49.2004 172.187 47.4948 172.033 47.4021C170.463 46.4009 167.979 46.6234 165.766 47.742C162.596 49.3425 159.957 52.7229 157.943 58.3527C157.943 58.3527 155.903 56.8881 155.242 56.4988C153.605 55.6027 151.689 56.0353 149.532 57.4381C147.103 59.0201 145.447 61.0718 143.933 64.1741V64.2297C142.621 66.8639 141.904 69.7541 141.832 72.6961C141.832 79.2034 144.496 82.3057 147.962 84.6355C148.951 85.3029 151.565 86.7057 151.825 86.8788C153.917 88.2602 156.231 89.272 158.666 89.8698L162.083 90.667L165.501 85.9271C167.989 82.4322 170.273 78.7965 172.342 75.0382C175.809 68.7039 178.522 62.4994 178.472 56.0167C178.423 53.242 177.626 51.2027 176.334 49.9667Z" fill="#2FA5A9"/>
<path opacity="0.3" d="M176.334 49.9667C176.171 49.8253 175.995 49.6991 175.809 49.5897C175.154 49.2004 172.187 47.4948 172.033 47.4021C170.463 46.4009 167.979 46.6234 165.766 47.742C162.596 49.3425 159.957 52.7229 157.943 58.3527C157.943 58.3527 155.903 56.8881 155.242 56.4988C153.605 55.6027 151.689 56.0353 149.532 57.4381C147.103 59.0201 145.447 61.0718 143.933 64.1741V64.2297C142.621 66.8639 141.904 69.7541 141.832 72.6961C141.832 79.2034 144.496 82.3057 147.962 84.6355C148.951 85.3029 151.565 86.7057 151.825 86.8788C153.917 88.2602 156.231 89.272 158.666 89.8698L162.083 90.667L165.501 85.9271C167.989 82.4322 170.273 78.7965 172.342 75.0382C175.809 68.7039 178.522 62.4994 178.472 56.0167C178.423 53.242 177.626 51.2027 176.334 49.9667Z" fill="black"/>
<path d="M176.332 49.9667C176.169 49.8253 175.993 49.6991 175.807 49.5897C175.152 49.2004 172.186 47.4948 172.031 47.4021C170.461 46.4009 167.977 46.6234 165.765 47.742C162.595 49.3425 159.956 52.7229 157.941 58.3527C157.941 58.3527 155.902 56.8881 155.241 56.4988C153.603 55.6027 151.687 56.0353 149.53 57.4381C147.102 59.0201 145.446 61.0718 143.931 64.1741V64.2297C143.864 64.3657 143.808 64.5016 143.746 64.6376L169.701 79.6051C170.622 78.1096 171.518 76.5956 172.371 75.0382C175.838 68.7039 178.551 62.4994 178.501 56.0167C178.421 53.242 177.624 51.2027 176.332 49.9667Z" fill="#2FA5A9"/>
<path opacity="0.15" d="M176.332 49.9667C176.169 49.8253 175.993 49.6991 175.807 49.5897C175.152 49.2004 172.186 47.4948 172.031 47.4021C170.461 46.4009 167.977 46.6234 165.765 47.742C162.595 49.3425 159.956 52.7229 157.941 58.3527C157.941 58.3527 155.902 56.8881 155.241 56.4988C153.603 55.6027 151.687 56.0353 149.53 57.4381C147.102 59.0201 145.446 61.0718 143.931 64.1741V64.2297C143.864 64.3657 143.808 64.5016 143.746 64.6376L169.701 79.6051C170.622 78.1096 171.518 76.5956 172.371 75.0382C175.838 68.7039 178.551 62.4994 178.501 56.0167C178.421 53.242 177.624 51.2027 176.332 49.9667Z" fill="black"/>
<path d="M157.926 58.328L161.399 62.8579L166.998 56.2331L160.67 52.5808C159.543 54.3877 158.622 56.3156 157.926 58.328Z" fill="#2FA5A9"/>
<path opacity="0.3" d="M157.926 58.328L161.399 62.8579L166.998 56.2331L160.67 52.5808C159.543 54.3877 158.622 56.3156 157.926 58.328Z" fill="black"/>
<path d="M176.334 49.9667C174.82 48.6134 172.064 48.7308 169.629 49.9667C166.31 51.6477 163.566 55.2752 161.515 61.418C159.463 57.6483 156.719 57.5308 153.401 59.6876C150.966 61.2696 149.31 63.3213 147.802 66.4236L147.771 66.4792C146.463 69.117 145.748 72.0087 145.676 74.9518C145.676 81.4591 148.345 84.5614 151.806 86.8912C153.898 88.2726 156.212 89.2844 158.647 89.8822L162.065 90.6794L165.482 85.9395C167.97 82.4446 170.254 78.8089 172.323 75.0506C175.79 68.7163 178.503 62.5118 178.454 56.0291C178.423 53.242 177.625 51.2027 176.334 49.9667Z" fill="#2FA5A9"/>
<g opacity="0.07">
<path d="M173.423 49.3488C174.376 49.3052 175.312 49.6057 176.062 50.1954C176.075 50.2221 176.094 50.2453 176.117 50.2634C177.39 51.4252 178.101 53.4893 178.107 56.0601C178.107 62.827 175.017 69.3961 172.02 74.9209C169.966 78.6669 167.697 82.2903 165.222 85.7727L161.941 90.3395L158.746 89.5918C156.347 89.0026 154.067 88.0077 152.004 86.6502C148.914 84.549 145.997 81.7063 146.022 74.9827C146.087 72.0913 146.781 69.2488 148.055 66.6523V66.5967C149.575 63.4758 151.213 61.5045 153.536 59.9966C154.616 59.1961 155.903 58.724 157.244 58.637C158.814 58.637 160.105 59.6073 161.193 61.6034C161.22 61.6568 161.262 61.7015 161.313 61.7321C161.364 61.7628 161.424 61.7781 161.483 61.7764H161.514C161.578 61.7705 161.639 61.7464 161.689 61.7069C161.74 61.6675 161.778 61.6144 161.799 61.5539C163.758 55.6893 166.359 52.0061 169.746 50.2943C170.876 49.702 172.128 49.3784 173.404 49.3488M173.404 49.0212C172.077 49.0486 170.774 49.3828 169.598 49.9977C166.279 51.6786 163.535 55.3061 161.483 61.4489C160.297 59.2612 158.876 58.3033 157.244 58.3033C155.844 58.3954 154.499 58.8865 153.369 59.7185C150.934 61.3005 149.278 63.3522 147.77 66.4545L147.739 66.5101C146.432 69.1479 145.717 72.0396 145.645 74.9827C145.645 81.49 148.314 84.5923 151.775 86.9221C153.867 88.3035 156.181 89.3153 158.616 89.9131L162.033 90.7103L165.451 85.9704C167.939 82.4755 170.223 78.8398 172.292 75.0816C175.759 68.7472 178.472 62.5427 178.422 56.0601C178.422 53.273 177.613 51.2027 176.321 50.0162C175.506 49.3517 174.474 49.0108 173.423 49.0583L173.404 49.0212Z" fill="black"/>
</g>
<path d="M175.956 67.4865L169.306 71.3304L166.834 62.3387C166.799 62.2028 166.719 62.0828 166.607 61.9985C166.494 61.9143 166.357 61.8708 166.216 61.8752C166.072 61.8723 165.931 61.9202 165.818 62.0105C165.705 62.1009 165.627 62.2279 165.598 62.3696L161.748 79.9574L158.51 71.0955C158.503 70.9316 158.432 70.7771 158.312 70.6658C158.191 70.5545 158.031 70.4957 157.867 70.5023C157.703 70.5088 157.549 70.5802 157.438 70.7008C157.326 70.8213 157.268 70.9811 157.274 71.145L155.086 78.913L147.77 83.14C148.01 83.4899 148.27 83.8262 148.548 84.1473L155.964 79.8771C156.107 79.7939 156.214 79.659 156.261 79.5001L157.985 73.3697L161.303 82.4293C161.347 82.5561 161.432 82.6651 161.543 82.7398C161.655 82.8145 161.787 82.8508 161.921 82.8434C162.058 82.8365 162.189 82.7842 162.293 82.6947C162.397 82.6051 162.469 82.4835 162.496 82.349L166.266 65.1567L168.256 72.4551C168.279 72.549 168.325 72.636 168.388 72.7092C168.451 72.7823 168.531 72.8395 168.621 72.8762C168.71 72.9129 168.807 72.928 168.904 72.9203C169 72.9127 169.094 72.8824 169.176 72.8321L175.084 69.427C175.424 68.7781 175.696 68.1354 175.956 67.4865Z" fill="white"/>
<path d="M203.863 232.76C203.61 233.597 203.589 234.488 203.801 235.337C204.049 235.856 205.594 237.561 208.745 238.179C211.897 238.797 216.229 238.179 218.095 238.068C219.962 237.957 225.82 238.686 227.68 238.921C230.61 239.316 232.859 238.674 233.953 237.617C234.13 237.404 234.261 237.157 234.336 236.891C234.412 236.625 234.431 236.346 234.392 236.072C234.385 235.367 234.281 234.666 234.083 233.989L203.863 232.76Z" fill="#263238"/>
<path d="M233.597 230.924C233.653 231.165 233.709 231.412 233.758 231.66C234.043 232.903 234.133 234.183 234.024 235.454C233.647 236.381 232.615 236.894 231.781 237.153C229.574 237.858 227.9 237.771 225.459 237.283C223.004 236.925 220.523 236.773 218.043 236.826C216.121 236.956 213.476 237.326 211.554 237.147C209.92 237.079 208.307 236.75 206.777 236.171C205.498 235.627 204.188 234.935 203.873 233.6C203.496 230.819 204.664 229.596 205.98 228.817C207.296 228.038 209.169 228.1 211.171 227.97C212.982 227.847 214.304 227.847 215.917 227.723C217.312 227.655 218.697 227.463 220.057 227.148C221.293 226.765 222.529 225.214 223.036 225.158C223.036 225.158 231.101 225.097 231.867 225.158C232.757 225.233 233.029 227.989 233.14 228.588C233.227 229.058 233.245 229.565 233.369 230.016C233.449 230.319 233.523 230.621 233.597 230.924Z" fill="#37474F"/>
<path d="M208.753 236.776C208.499 234.774 208.135 230.436 211.842 227.927H212.306C210.641 227.445 208.873 227.445 207.208 227.927C204.26 228.712 202.95 231.097 203.685 233.619C203.697 233.594 204.353 236.035 208.753 236.776Z" fill="#FAFAFA"/>
<path d="M219.51 227.29C218.318 228.347 217.904 230.751 217.904 230.751C217.749 231.653 216.118 231.789 216.272 230.918C216.521 229.72 217.002 228.582 217.687 227.569C218.246 227.274 218.889 227.176 219.51 227.29Z" fill="#FAFAFA"/>
<path d="M216.166 227.704C215.267 228.585 214.679 229.735 214.491 230.98C214.324 231.845 212.965 231.833 213.064 230.98C213.064 230.98 213.218 228.848 214.491 227.853C214.738 227.695 215.019 227.599 215.31 227.573C215.602 227.547 215.896 227.592 216.166 227.704Z" fill="#FAFAFA"/>
<path d="M232.114 219.294C232.114 219.294 231.898 224.479 231.614 226.178C231.441 227.192 230.112 228.255 226.806 228.143C224.482 228.063 222.653 228.255 222.746 226.438L222.95 221.142L232.114 219.294Z" fill="#FFA8A7"/>
<path d="M237.303 207.045C237.185 208.461 236.994 209.74 237.574 211.297C238.403 213.534 240.158 214.56 241.19 215.438C242.275 216.513 243.277 217.67 244.187 218.898C245.2 220.134 245.466 220.87 246.986 222.217C247.744 222.8 248.64 223.177 249.587 223.31C250.533 223.443 251.498 223.328 252.388 222.977C253.704 222.415 254.161 221.97 254.081 219.949C254 217.928 247.561 217.242 247.561 217.242L237.303 207.045Z" fill="#263238"/>
<path d="M253.244 213.93C253.794 214.127 253.93 215.122 254.016 217.1C254.078 218.595 254.739 220.808 252.57 221.729C250.821 222.489 248.028 221.982 246.848 220.573C245.377 218.812 244.376 217.261 242.274 215.116C240.421 213.262 238.567 212.644 237.745 208.905C237.219 206.508 237.633 205.519 239.327 204.833C241.656 203.887 245.309 206.971 247.138 207.459C248.708 207.873 252.694 213.732 253.244 213.93Z" fill="#37474F"/>
<path d="M247.14 207.459L246.831 207.354C245.789 207.393 244.775 207.704 243.891 208.256C243.006 208.808 242.281 209.581 241.788 210.5C241.479 211.149 242.406 211.656 243.024 211.149C244.322 208.677 246.991 208.145 248.06 208.028C247.797 207.775 247.483 207.581 247.14 207.459Z" fill="#FAFAFA"/>
<path d="M248.643 208.584C247.664 208.676 246.724 209.009 245.907 209.554C245.089 210.098 244.42 210.838 243.958 211.705C243.649 212.323 244.607 212.861 245.194 212.323C245.635 211.55 246.24 210.882 246.966 210.366C247.692 209.851 248.521 209.5 249.397 209.338C249.131 209.091 248.884 208.825 248.643 208.584Z" fill="#FAFAFA"/>
<path d="M253.563 210.358L253.248 214.529C253.248 214.529 250.596 216.463 246.796 214.69C246.685 214.461 246.363 210.729 246.363 210.729L253.563 210.358Z" fill="#FFA8A7"/>
<path d="M238.818 211.656C238.818 211.656 238.997 207.225 245.294 206.613L245.659 206.804C244.943 205.693 243.843 204.884 242.569 204.53C240.48 203.993 238.824 204.53 237.724 205.853C236.624 207.175 237.73 210.797 238.818 211.656Z" fill="#FAFAFA"/>
<path d="M255.396 182.573C254.494 175.275 254.16 171.209 254.16 171.209C254.16 171.209 253.981 160.932 254.605 151.433C254.877 147.268 255.019 142.658 255.106 138.456C255.221 133.828 254.852 129.201 254.006 124.65C254.006 124.65 221.691 118.223 221.29 130.076C220.802 144.289 220.863 168.582 220.313 177.858C220.011 183.068 220.536 187.387 220.863 197.51C221.129 205.902 221.049 226.555 221.049 226.555C224.608 231.443 233.013 227.717 233.013 227.717C233.013 227.717 235.608 198.715 235.992 192.721C236.399 186.275 235.72 183.012 235.72 183.012L239.051 152.984C239.051 152.984 239.304 162.619 239.588 167.816C239.873 173.013 240.633 176.208 241.986 185.904C243.16 194.321 245.657 215.802 245.657 215.802C249.983 218.361 254.16 215.802 254.16 215.802C254.16 215.802 256.298 189.872 255.396 182.573Z" fill="#455A64"/>
<path d="M250.987 141.1C250.987 141.1 246.939 146.267 241.717 148.485C241.717 148.485 239.455 166.648 239.474 166.289L238.887 148.01C238.887 148.01 246.661 144.574 250.987 141.1Z" fill="#37474F"/>
<path d="M250.872 82.7197C254.351 81.941 258.288 84.4253 260.908 89.9686C263.441 95.2709 270.363 108.663 270.53 112.414C270.709 116.301 253.418 128.092 253.844 127.863C253.98 127.795 250.859 118.946 250.859 118.946L259.258 111.993L254.691 102.588L250.872 82.7197Z" fill="#FFA8A7"/>
<path d="M249.047 81.8854C251.976 81.527 257.285 82.6332 259.312 86.1557C262.253 91.254 264.935 97.1496 268.353 104.769C268.353 104.769 265.819 110.257 258.527 110.776L254.158 103.113L249.047 81.8854Z" fill="#37474F"/>
<path d="M234.301 77.2938L234.808 88.1085L245.523 87.5337L245.196 74.9702L234.301 77.2938Z" fill="#FFA8A7"/>
<path d="M256.045 87.3298C255.142 84.382 252.028 81.9534 248.091 81.8359C247.214 81.8359 245.372 81.8359 245.372 81.8359C244.927 83.659 239.347 84.3079 234.576 83.214C233.136 83.5972 227.16 85.068 225.924 85.4388C222.494 86.5759 221.438 90.0736 220.906 101.259C220.906 101.259 221.011 123.309 220.906 133.833C226.938 137.016 236.257 136.62 242.888 135.946C253.307 134.896 254.858 131.12 254.858 131.12C254.419 124.983 254.685 122.672 254.858 116.616C254.988 112.061 256.298 107.247 256.712 102.087C257.324 94.4181 256.657 89.3568 256.045 87.3298Z" fill="#2FA5A9"/>
<path d="M232.625 79.3454C230.153 79.1724 227.063 81.1438 226.266 85.3646L228.28 84.8269L232.625 79.3454Z" fill="#2FA5A9"/>
<path opacity="0.3" d="M232.625 79.3454C230.153 79.1724 227.063 81.1438 226.266 85.3646L228.28 84.8269L232.625 79.3454Z" fill="black"/>
<path d="M234.435 80.2477C236.289 80.8657 241.696 80.7792 243.507 80.2477C245.318 79.7162 245.299 78.9128 245.299 78.9128V78.0044C246.343 78.0015 247.364 78.3185 248.222 78.9128C249.378 79.8522 251.368 83.2387 251.312 84.864C251.257 86.4893 247.784 90.7781 241.085 90.6731C234.386 90.568 230.622 88.0899 229.466 86.4584L228.305 84.8208C228.305 84.8208 229.893 81.5578 231.456 80.1859C232.258 79.4088 233.286 78.9068 234.392 78.7522L234.435 80.2477Z" fill="#2FA5A9"/>
<path opacity="0.2" d="M234.435 80.2477C236.289 80.8657 241.696 80.7792 243.507 80.2477C245.318 79.7162 245.299 78.9128 245.299 78.9128V78.0044C246.343 78.0015 247.364 78.3185 248.222 78.9128C249.378 79.8522 251.368 83.2387 251.312 84.864C251.257 86.4893 247.784 90.7781 241.085 90.6731C234.386 90.568 230.622 88.0899 229.466 86.4584L228.305 84.8208C228.305 84.8208 229.893 81.5578 231.456 80.1859C232.258 79.4088 233.286 78.9068 234.392 78.7522L234.435 80.2477Z" fill="black"/>
<path d="M227.09 64.0319C227.09 64.0319 224.537 67.9067 224.828 68.2836C225.118 68.6606 226.997 69.0129 226.997 69.0129L227.09 64.0319Z" fill="#F28F8F"/>
<path d="M234.179 53.3037C229.013 54.3976 226.949 55.9116 226.628 64.7426C226.319 73.3326 227.4 76.1629 228.525 77.3185C229.285 78.0972 233.518 78.2393 235.65 77.6461C238.32 76.9107 244.358 74.7725 247.182 70.4589C250.507 65.3791 251.378 58.4948 247.8 55.6706C242.813 51.697 236.287 52.8588 234.179 53.3037Z" fill="#FFA8A7"/>
<path d="M228.527 77.3123C229.145 77.9303 232.105 78.1652 234.33 77.8932L234.299 76.614C232.456 77.294 230.479 77.5331 228.527 77.3123Z" fill="#F28F8F"/>
<path d="M225.944 56.6223C227.231 57.545 228.828 57.9286 230.393 57.6914C230.362 58.3838 230.548 59.0686 230.925 59.6504C231.449 60.4437 232.245 61.0192 233.162 61.2695C232.596 62.3781 232.296 63.6031 232.284 64.8476C232.25 65.2383 232.334 65.6303 232.525 65.9724C232.585 66.0966 232.678 66.2016 232.795 66.2751C232.911 66.3486 233.046 66.3876 233.184 66.3876C233.321 66.3876 233.456 66.3486 233.573 66.2751C233.689 66.2016 233.782 66.0966 233.842 65.9724C234.132 65.3149 234.497 64.6929 234.929 64.1184C235.49 63.4481 236.277 63.008 237.142 62.8824C240.386 62.5302 240.794 66.7757 239.496 68.537C237.37 71.4168 235.566 69.464 235.566 69.464C235.483 70.8139 235.688 72.166 236.168 73.4307C236.647 74.6954 237.39 75.8436 238.347 76.7994C240.653 77.4789 243.097 77.5408 245.435 76.9786C248.315 73.0174 250.126 71.0892 251.664 67.6718C254.915 60.4352 253.345 55.8931 250.83 53.9773C250.336 50.6464 247.709 49.1509 244.712 48.4649C240.238 47.4329 236.06 50.0902 231.623 49.0829C230.895 48.9305 230.175 48.7407 229.466 48.5144C229.193 48.3863 228.882 48.3665 228.595 48.4587C228.436 48.5644 228.311 48.7144 228.237 48.8901C228.162 49.0659 228.141 49.2597 228.175 49.4475C228.231 50.3003 229.096 51.2458 229.534 51.7031C228.565 51.7918 227.589 51.7356 226.636 51.5363C226.305 51.4743 225.966 51.4743 225.635 51.5363C225.272 51.6841 224.965 51.9432 224.759 52.2763C224.552 52.6094 224.457 52.9994 224.486 53.3902C224.489 54.001 224.621 54.6042 224.872 55.1609C225.123 55.7176 225.488 56.2154 225.944 56.6223Z" fill="#263238"/>
<path d="M250.913 55.0527L254.003 53.1987C253.757 52.789 253.359 52.4937 252.895 52.3778C252.431 52.2619 251.941 52.3349 251.531 52.5807C251.121 52.8266 250.826 53.2251 250.71 53.6887C250.594 54.1523 250.667 54.6429 250.913 55.0527Z" fill="#263238"/>
<path d="M210.643 103.731C209.942 100.979 209.267 98.2228 208.616 95.4625C207.998 92.9226 207.046 89.981 207.917 87.3855C208.413 86.2519 209.035 85.178 209.771 84.1843C210.409 83.1369 210.947 82.0321 211.378 80.8843C211.594 80.3281 211.792 79.7596 211.996 79.1972C212.2 78.6348 212.49 78.3135 212.354 77.7758C211.903 76.0146 209.629 78.3258 209.166 79.0489C208.96 79.4284 208.72 79.7884 208.449 80.1242C208.152 80.4393 207.429 80.8348 207.083 80.3714C206.968 80.1854 206.904 79.9721 206.898 79.7534C206.663 77.0404 207.639 74.6118 208.449 72.078C208.577 71.7454 208.654 71.3954 208.677 71.0398C208.692 70.8623 208.668 70.6836 208.607 70.5162C208.547 70.3487 208.45 70.1964 208.325 70.0696C208.124 69.915 207.885 69.8165 207.633 69.7839C207.382 69.7514 207.126 69.786 206.892 69.8842C206.434 70.0387 206.039 70.3291 205.581 70.4713C205.124 70.6134 204.784 70.6134 204.383 70.7185C203.43 70.9309 202.512 71.2784 201.657 71.7505C200.174 72.6219 199.519 73.8949 199.13 75.514C198.662 77.5028 198.503 79.5518 198.66 81.5888C198.765 82.9422 199.006 84.277 199.173 85.6118L199.729 90.0799C200.106 93.0585 200.217 107.94 200.73 110.9C201.243 113.86 202.232 115.844 204.574 116.826C207.973 118.21 213.467 111.956 216.588 108.718L210.643 103.731Z" fill="#FFA8A7"/>
<path d="M209.402 102.044C207.214 103.682 204.489 106.407 203.939 109.138C203.939 109.138 203.395 104.225 209.402 99.8687V102.044Z" fill="#F28F8F"/>
<path d="M225.752 85.5067C223.65 85.7045 220.19 85.7786 216.667 89.5669C212.582 93.9916 206.285 102.718 206.285 102.718C206.285 102.718 207.107 109.664 213.794 112.154C213.794 112.154 223.514 102.884 225.603 98.8922C227.692 94.9 228.162 88.2815 225.752 85.5067Z" fill="#37474F"/>
<path d="M222.95 70.8234L220.293 69.3959L221.819 68.0919L216.3 65.5088L218.711 64.1121L212.766 60.9481L216.3 64.0689L213.427 65.5088L219.909 68.3144L218.309 69.915L222.95 70.8234Z" fill="#2FA5A9"/>
<path d="M224.301 67.3195L222.571 65.6633L223.516 64.9649L221.996 63.1604L223.455 62.666L222.948 60.3795L223.974 62.8453L222.948 63.2902L224.592 65.0947L223.479 65.8857L224.301 67.3195Z" fill="#2FA5A9"/>
<path d="M223.296 73.4375L220.033 75.9836L218.828 74.21L215.973 75.7611L214.805 73.5673L210.387 74.6982L215.497 72.251L216.962 74.2718L219.335 72.9987L220.324 74.6982L223.296 73.4375Z" fill="#2FA5A9"/>
<path d="M200.611 119.001C200.711 118.919 200.838 118.879 200.967 118.891C201.096 118.902 201.214 118.964 201.297 119.063C201.929 119.773 202.75 120.288 203.664 120.548C204.577 120.809 205.546 120.804 206.457 120.534C206.52 120.512 206.585 120.503 206.651 120.507C206.717 120.511 206.781 120.529 206.84 120.559C206.899 120.588 206.951 120.63 206.993 120.68C207.036 120.731 207.068 120.789 207.087 120.852C207.106 120.915 207.112 120.981 207.105 121.047C207.098 121.112 207.078 121.176 207.046 121.233C207.013 121.291 206.97 121.341 206.917 121.381C206.865 121.421 206.805 121.451 206.742 121.467C205.649 121.79 204.487 121.795 203.392 121.479C202.297 121.164 201.315 120.542 200.562 119.687C200.519 119.639 200.487 119.583 200.467 119.523C200.446 119.462 200.438 119.398 200.443 119.334C200.447 119.27 200.465 119.208 200.493 119.151C200.522 119.094 200.562 119.043 200.611 119.001Z" fill="#E0E0E0"/>
<path d="M201.107 122.271C201.193 122.198 201.303 122.159 201.416 122.159C201.529 122.159 201.638 122.198 201.725 122.271C202.228 122.634 202.804 122.884 203.414 123.001C204.023 123.118 204.651 123.101 205.253 122.95C205.381 122.927 205.513 122.954 205.621 123.027C205.728 123.1 205.803 123.212 205.828 123.34C205.841 123.402 205.841 123.467 205.828 123.529C205.816 123.592 205.791 123.651 205.755 123.704C205.72 123.757 205.674 123.802 205.621 123.837C205.567 123.872 205.508 123.896 205.445 123.908C204.7 124.081 203.927 124.088 203.18 123.929C202.432 123.77 201.729 123.448 201.119 122.987C201.07 122.946 201.03 122.895 201.001 122.838C200.972 122.781 200.955 122.719 200.95 122.655C200.946 122.591 200.954 122.527 200.974 122.466C200.995 122.405 201.027 122.35 201.07 122.301C201.081 122.29 201.093 122.279 201.107 122.271Z" fill="#E0E0E0"/>
<path d="M261.787 84.8146C261.73 84.8442 261.668 84.8621 261.604 84.8673C261.54 84.8724 261.475 84.8646 261.414 84.8445C261.353 84.8243 261.297 84.7922 261.249 84.7499C261.2 84.7076 261.161 84.6561 261.132 84.5983C260.681 83.7621 260.002 83.0709 259.174 82.6049C258.346 82.1389 257.403 81.9173 256.454 81.9657C256.39 81.9694 256.326 81.9604 256.265 81.9392C256.205 81.9181 256.149 81.8852 256.101 81.8424C256.004 81.7561 255.946 81.6348 255.938 81.5054C255.931 81.3759 255.975 81.2488 256.062 81.152C256.148 81.0552 256.269 80.9967 256.399 80.9893C257.538 80.9297 258.67 81.1964 259.663 81.7579C260.656 82.3195 261.468 83.1526 262.004 84.1596C262.06 84.2754 262.069 84.4087 262.029 84.5311C261.988 84.6534 261.902 84.7552 261.787 84.8146Z" fill="#E0E0E0"/>
<path d="M262.06 81.5394C261.956 81.5938 261.837 81.6088 261.723 81.5815C261.609 81.5542 261.509 81.4865 261.442 81.391C261.043 80.925 260.548 80.5502 259.992 80.2921C259.435 80.0341 258.83 79.8988 258.216 79.8955C258.152 79.8931 258.089 79.878 258.031 79.8513C257.972 79.8245 257.92 79.7865 257.876 79.7394C257.833 79.6924 257.799 79.6372 257.777 79.577C257.754 79.5168 257.744 79.4529 257.746 79.3888C257.749 79.3247 257.764 79.2617 257.791 79.2034C257.817 79.1451 257.855 79.0926 257.903 79.049C257.95 79.0054 258.005 78.9715 258.065 78.9492C258.125 78.9269 258.189 78.9167 258.253 78.9191C259.015 78.9267 259.766 79.1011 260.454 79.4299C261.141 79.7587 261.749 80.234 262.233 80.8225C262.303 80.9271 262.329 81.0547 262.306 81.1782C262.283 81.3018 262.212 81.4114 262.109 81.4837L262.06 81.5394Z" fill="#E0E0E0"/>
<path d="M270.697 117.16C270.635 117.047 270.62 116.914 270.656 116.79C270.692 116.666 270.775 116.561 270.888 116.499C271.702 116.009 272.36 115.299 272.786 114.45C273.211 113.601 273.387 112.648 273.292 111.703C273.284 111.639 273.29 111.575 273.307 111.513C273.325 111.451 273.355 111.393 273.395 111.343C273.435 111.293 273.485 111.252 273.542 111.221C273.599 111.19 273.661 111.172 273.725 111.165C273.853 111.152 273.982 111.189 274.083 111.27C274.184 111.352 274.248 111.469 274.262 111.598C274.373 112.728 274.16 113.866 273.649 114.88C273.138 115.894 272.35 116.743 271.376 117.327C271.321 117.361 271.259 117.384 271.195 117.395C271.13 117.405 271.065 117.402 271.001 117.387C270.938 117.371 270.878 117.343 270.826 117.304C270.774 117.265 270.73 117.216 270.697 117.16Z" fill="#E0E0E0"/>
<path d="M273.979 117.277C273.924 117.177 273.905 117.06 273.927 116.947C273.948 116.834 274.008 116.733 274.096 116.659C274.545 116.24 274.897 115.728 275.128 115.16C275.36 114.591 275.465 113.979 275.437 113.365C275.437 113.236 275.489 113.112 275.58 113.02C275.672 112.929 275.796 112.877 275.926 112.877C276.055 112.877 276.179 112.929 276.271 113.02C276.362 113.112 276.414 113.236 276.414 113.365C276.44 114.126 276.302 114.884 276.007 115.586C275.713 116.288 275.269 116.918 274.708 117.432C274.658 117.472 274.6 117.501 274.538 117.518C274.477 117.536 274.412 117.541 274.349 117.534C274.285 117.526 274.223 117.506 274.167 117.475C274.111 117.444 274.062 117.402 274.022 117.351L273.979 117.277Z" fill="#E0E0E0"/>
<path d="M217.132 176.035C217.248 176.093 217.335 176.195 217.377 176.317C217.419 176.44 217.411 176.573 217.355 176.69C216.963 177.555 216.826 178.514 216.96 179.454C217.093 180.394 217.492 181.277 218.109 181.998C218.192 182.098 218.233 182.226 218.223 182.356C218.212 182.485 218.151 182.606 218.053 182.691C217.955 182.775 217.828 182.816 217.7 182.807C217.571 182.798 217.452 182.738 217.367 182.641C216.626 181.772 216.149 180.71 215.991 179.579C215.833 178.448 216.002 177.296 216.477 176.257C216.535 176.142 216.637 176.054 216.759 176.013C216.882 175.971 217.016 175.979 217.132 176.035Z" fill="#E0E0E0"/>
<path d="M214.365 177.796C214.47 177.846 214.554 177.932 214.602 178.039C214.65 178.145 214.658 178.265 214.624 178.377C214.494 178.977 214.496 179.599 214.63 180.198C214.763 180.798 215.025 181.361 215.397 181.85C215.47 181.956 215.498 182.087 215.476 182.214C215.454 182.341 215.384 182.454 215.279 182.53C215.174 182.604 215.043 182.634 214.915 182.612C214.788 182.59 214.674 182.518 214.6 182.413C214.141 181.802 213.822 181.098 213.664 180.351C213.506 179.603 213.513 178.831 213.685 178.087C213.704 178.025 213.735 177.967 213.776 177.917C213.818 177.867 213.869 177.826 213.926 177.796C213.984 177.766 214.047 177.748 214.112 177.743C214.176 177.738 214.241 177.745 214.303 177.765L214.365 177.796Z" fill="#E0E0E0"/>
<path d="M180.807 6.36801C180.777 5.79175 180.61 5.2309 180.321 4.7314C180.032 4.23191 179.629 3.80799 179.145 3.49439L177.797 2.70955C177.282 2.45177 176.714 2.31757 176.138 2.31757C175.562 2.31757 174.994 2.45177 174.479 2.70955L143.178 20.7979C142.694 21.1122 142.292 21.5363 142.003 22.0357C141.714 22.535 141.547 23.0955 141.516 23.6715V39.8565C141.547 40.4324 141.715 40.9927 142.003 41.4919C142.292 41.9912 142.695 42.4154 143.178 42.7301L144.531 43.5087C145.045 43.7708 145.614 43.9074 146.191 43.9074C146.767 43.9074 147.336 43.7708 147.85 43.5087L179.145 25.4266C179.629 25.113 180.032 24.6891 180.321 24.1896C180.61 23.6901 180.777 23.1292 180.807 22.553V6.36801Z" fill="#2FA5A9"/>
<path opacity="0.5" d="M180.807 6.36801C180.777 5.79175 180.61 5.2309 180.321 4.7314C180.032 4.23191 179.629 3.80799 179.145 3.49439L177.797 2.70955C177.282 2.45177 176.714 2.31757 176.138 2.31757C175.562 2.31757 174.994 2.45177 174.479 2.70955L143.178 20.7979C142.694 21.1122 142.292 21.5363 142.003 22.0357C141.714 22.535 141.547 23.0955 141.516 23.6715V39.8565C141.547 40.4324 141.715 40.9927 142.003 41.4919C142.292 41.9912 142.695 42.4154 143.178 42.7301L144.531 43.5087C145.045 43.7708 145.614 43.9074 146.191 43.9074C146.767 43.9074 147.336 43.7708 147.85 43.5087L179.145 25.4266C179.629 25.113 180.032 24.6891 180.321 24.1896C180.61 23.6901 180.777 23.1292 180.807 22.553V6.36801Z" fill="white"/>
<path opacity="0.2" d="M141.516 39.8565C141.547 40.4324 141.715 40.9927 142.003 41.492C142.292 41.9912 142.695 42.4154 143.178 42.7301L144.531 43.5088C144.999 43.7443 145.511 43.8783 146.034 43.9017C146.557 43.9251 147.079 43.8375 147.566 43.6447C146.781 43.9413 146.188 43.5026 146.188 42.5509V26.3659C146.208 25.7873 146.376 25.2235 146.676 24.7283L142.004 22.0339C141.703 22.5287 141.535 23.0927 141.516 23.6715V39.8565Z" fill="black"/>
<path opacity="0.3" d="M180.749 5.89836C180.558 5.19386 179.915 4.96521 179.149 5.41016L147.848 23.4923C147.355 23.7946 146.95 24.2207 146.674 24.7283L142.008 22.0339C142.284 21.5279 142.686 21.1021 143.176 20.7979L174.47 2.71576C174.984 2.4537 175.553 2.31708 176.13 2.31708C176.707 2.31708 177.275 2.4537 177.789 2.71576L179.149 3.49441C179.564 3.76607 179.92 4.11918 180.195 4.53237C180.47 4.94556 180.659 5.41026 180.749 5.89836Z" fill="white"/>
<path d="M146.195 31.6003L141.529 28.9059L135.906 34.3194C135.821 34.4046 135.757 34.5078 135.718 34.6214C135.679 34.735 135.667 34.8559 135.682 34.975C135.697 35.0941 135.739 35.2083 135.804 35.3088C135.87 35.4094 135.957 35.4937 136.06 35.5554L140.652 38.2251C140.842 38.3245 141.056 38.3695 141.27 38.3548L146.214 37.4093V31.6003H146.195Z" fill="#2FA5A9"/>
<path opacity="0.5" d="M146.195 31.6003L141.529 28.9059L135.906 34.3194C135.821 34.4046 135.757 34.5078 135.718 34.6214C135.679 34.735 135.667 34.8559 135.682 34.975C135.697 35.0941 135.739 35.2083 135.804 35.3088C135.87 35.4094 135.957 35.4937 136.06 35.5554L140.652 38.2251C140.842 38.3245 141.056 38.3695 141.27 38.3548L146.214 37.4093V31.6003H146.195Z" fill="white"/>
<path opacity="0.3" d="M140.65 38.225L138.178 36.8098L137.888 36.6183L136.565 35.852L136.405 35.7531L136.052 35.5491C135.949 35.4874 135.862 35.4031 135.796 35.3026C135.731 35.202 135.689 35.0879 135.674 34.9688C135.659 34.8497 135.672 34.7288 135.71 34.6152C135.749 34.5016 135.813 34.3983 135.898 34.3132L141.521 28.8997L146.193 31.6002L140.57 36.989C140.48 37.0684 140.41 37.1671 140.365 37.2776C140.32 37.3881 140.3 37.5075 140.308 37.6267C140.316 37.7459 140.35 37.8617 140.41 37.9654C140.469 38.0691 140.551 38.1579 140.65 38.225Z" fill="white"/>
<path d="M155.336 26.6255C154.69 27.0455 154.153 27.6119 153.767 28.2788C153.382 28.9456 153.159 29.6941 153.117 30.4632C153.117 31.8722 154.112 32.4469 155.336 31.7424C155.981 31.3221 156.517 30.7554 156.902 30.0886C157.286 29.4217 157.508 28.6734 157.548 27.9047C157.548 26.4834 156.559 25.921 155.336 26.6255Z" fill="white"/>
<path d="M163.498 21.9041C162.853 22.3244 162.316 22.8911 161.932 23.558C161.547 24.2249 161.326 24.9731 161.285 25.7418C161.285 27.1508 162.274 27.7255 163.498 27.0149C164.142 26.5952 164.678 26.0295 165.062 25.3637C165.446 24.698 165.668 23.951 165.71 23.1834C165.698 21.7682 164.721 21.1935 163.498 21.9041Z" fill="white"/>
<path d="M171.662 17.1765C171.018 17.5979 170.482 18.1649 170.098 18.8315C169.713 19.4982 169.491 20.2459 169.449 21.0142C169.449 22.4294 170.438 22.9979 171.662 22.2934C172.308 21.8728 172.846 21.3054 173.232 20.6374C173.617 19.9694 173.839 19.2198 173.88 18.4496C173.88 17.0468 172.885 16.472 171.662 17.1765Z" fill="white"/>
<path d="M241.053 38.0954L238.81 33.8993L240.615 28.6897V25.4824L235.09 28.6712V31.8599L237.463 35.9757C237.502 36.0372 237.558 36.0864 237.624 36.1178L241.053 38.0954Z" fill="#2FA5A9"/>
<path opacity="0.2" d="M241.053 38.0954L238.81 33.8993L240.615 28.6897V25.4824L235.09 28.6712V31.8599L237.463 35.9757C237.502 36.0372 237.558 36.0864 237.624 36.1178L241.053 38.0954Z" fill="black"/>
<path d="M257.831 4.71811C257.801 4.14348 257.635 3.58422 257.347 3.08591C257.059 2.58761 256.658 2.16436 256.175 1.85068L254.828 1.07202C254.315 0.810014 253.748 0.673401 253.172 0.673401C252.596 0.673401 252.028 0.810014 251.516 1.07202L220.289 19.1109C219.809 19.4285 219.409 19.8535 219.122 20.3522C218.834 20.851 218.667 21.4099 218.633 21.9845V38.1324C218.663 38.7071 218.829 39.2663 219.117 39.7646C219.405 40.2629 219.807 40.6862 220.289 40.9999L221.636 41.7785C222.151 42.0353 222.718 42.169 223.292 42.169C223.867 42.169 224.434 42.0353 224.949 41.7785L238.544 33.8683L240.917 37.9717C240.951 38.0266 241 38.0708 241.058 38.0994C241.116 38.1279 241.181 38.1396 241.245 38.1332C241.31 38.1268 241.371 38.1024 241.422 38.063C241.473 38.0235 241.513 37.9705 241.535 37.9099L244.044 30.6857L256.144 23.7334C256.627 23.4197 257.028 22.9965 257.316 22.4982C257.604 21.9999 257.77 21.4406 257.801 20.866L257.831 4.71811Z" fill="#2FA5A9"/>
<path d="M227.991 25.1115L252.958 10.694C253.699 10.2676 254.299 10.5704 254.299 11.3738C254.265 11.8229 254.126 12.2578 253.893 12.6433C253.66 13.0287 253.34 13.3538 252.958 13.5923L227.991 28.0099C227.256 28.4363 226.656 28.1335 226.656 27.3301C226.69 26.8816 226.828 26.4473 227.06 26.062C227.291 25.6766 227.611 25.3511 227.991 25.1115Z" fill="white"/>
<path d="M227.991 31.5324L252.958 17.1211C253.699 16.6947 254.299 16.9975 254.299 17.7947C254.266 18.2449 254.127 18.681 253.894 19.0676C253.661 19.4542 253.34 19.7803 252.958 20.0194L227.991 34.4308C227.256 34.8633 226.656 34.5543 226.656 33.7572C226.689 33.3076 226.826 32.872 227.058 32.4856C227.29 32.0991 227.61 31.7726 227.991 31.5324Z" fill="white"/>
<path opacity="0.2" d="M218.633 38.1325C218.663 38.7071 218.829 39.2664 219.117 39.7647C219.405 40.263 219.807 40.6862 220.289 40.9999L221.636 41.7786C222.103 42.0132 222.614 42.1467 223.136 42.1701C223.658 42.1935 224.178 42.1064 224.664 41.9145C223.886 42.205 223.292 41.7662 223.292 40.8207V24.6728C223.312 24.0969 223.478 23.5355 223.774 23.0413L219.115 20.3469C218.818 20.8433 218.653 21.4067 218.633 21.9846V38.1325Z" fill="black"/>
<path opacity="0.2" d="M257.78 4.23602C257.588 3.53152 256.946 3.30904 256.179 3.74781L224.953 21.7929C224.461 22.0946 224.058 22.5211 223.785 23.0289L219.125 20.3406C219.402 19.8355 219.804 19.41 220.293 19.1047L251.513 1.05959C252.029 0.801812 252.597 0.667603 253.173 0.667603C253.749 0.667603 254.317 0.801812 254.832 1.05959L256.179 1.83824C256.595 2.10785 256.952 2.4596 257.227 2.87191C257.502 3.28423 257.69 3.74842 257.78 4.23602Z" fill="white"/>
</svg>
