<svg width="17" height="12" viewBox="0 0 17 12" fill="none" xmlns="http://www.w3.org/2000/svg">
<path d="M8.5 1.875C11.3425 1.875 13.8775 3.4725 15.115 6C13.8775 8.5275 11.35 10.125 8.5 10.125C5.65 10.125 3.1225 8.5275 1.885 6C3.1225 3.4725 5.6575 1.875 8.5 1.875ZM8.5 0.375C4.75 0.375 1.5475 2.7075 0.25 6C1.5475 9.2925 4.75 11.625 8.5 11.625C12.25 11.625 15.4525 9.2925 16.75 6C15.4525 2.7075 12.25 0.375 8.5 0.375ZM8.5 4.125C9.535 4.125 10.375 4.965 10.375 6C10.375 7.035 9.535 7.875 8.5 7.875C7.465 7.875 6.625 7.035 6.625 6C6.625 4.965 7.465 4.125 8.5 4.125ZM8.5 2.625C6.64 2.625 5.125 4.14 5.125 6C5.125 7.86 6.64 9.375 8.5 9.375C10.36 9.375 11.875 7.86 11.875 6C11.875 4.14 10.36 2.625 8.5 2.625Z" fill="#D5D5D5"/>
</svg>
