<svg width="18" height="18" viewBox="0 0 18 18" fill="none" xmlns="http://www.w3.org/2000/svg">
<g clip-path="url(#clip0_4035_2887)">
<path d="M17.4915 9.1684C17.4915 8.43095 17.4337 7.8928 17.3085 7.33473H9.16895V10.6632H13.9467C13.8504 11.4904 13.3302 12.7361 12.1743 13.5732L12.1581 13.6846L14.7317 15.7473L14.91 15.7657C16.5475 14.201 17.4915 11.899 17.4915 9.1684Z" fill="#4285F4"/>
<path d="M9.16943 17.9382C11.5101 17.9382 13.4751 17.1409 14.9105 15.7657L12.1748 13.5732C11.4427 14.1014 10.4602 14.4701 9.16943 14.4701C6.87689 14.4701 4.93112 12.9055 4.23751 10.743L4.13584 10.7519L1.4598 12.8945L1.4248 12.9952C2.85041 15.9251 5.77873 17.9382 9.16943 17.9382Z" fill="#34A853"/>
<path d="M4.23741 10.743C4.05439 10.1849 3.94848 9.58692 3.94848 8.96908C3.94848 8.35117 4.05439 7.75325 4.22778 7.19519L4.22293 7.07633L1.51336 4.89929L1.42471 4.94292C0.837145 6.15874 0.5 7.52406 0.5 8.96908C0.5 10.4141 0.837145 11.7793 1.42471 12.9952L4.23741 10.743Z" fill="#FBBC05"/>
<path d="M9.16943 3.46802C10.7973 3.46802 11.8954 4.19551 12.5216 4.80346L14.9682 2.33196C13.4656 0.886946 11.5101 0 9.16943 0C5.77873 0 2.85041 2.01305 1.4248 4.94292L4.22788 7.19519C4.93112 5.03265 6.87689 3.46802 9.16943 3.46802Z" fill="#EB4335"/>
</g>
<defs>
<clipPath id="clip0_4035_2887">
<rect width="17" height="18" fill="white" transform="translate(0.5)"/>
</clipPath>
</defs>
</svg>
