<svg width="22" height="22" viewBox="0 0 22 22" fill="none" xmlns="http://www.w3.org/2000/svg">
<g clip-path="url(#clip0_4875_4963)">
<path d="M17.112 18.3333H3.66753V4.88889H11.7464L12.9686 3.66667H3.66753C3.34338 3.66667 3.0325 3.79544 2.80329 4.02465C2.57408 4.25386 2.44531 4.56474 2.44531 4.88889V18.3333C2.44531 18.6575 2.57408 18.9684 2.80329 19.1976C3.0325 19.4268 3.34338 19.5556 3.66753 19.5556H17.112C17.4361 19.5556 17.747 19.4268 17.9762 19.1976C18.2054 18.9684 18.3342 18.6575 18.3342 18.3333V9.16667L17.112 10.3889V18.3333Z" fill="#164E73"/>
<path d="M20.49 3.56889L18.4306 1.50945C18.3392 1.4178 18.2306 1.34509 18.111 1.29547C17.9915 1.24586 17.8633 1.22032 17.7339 1.22032C17.6045 1.22032 17.4763 1.24586 17.3568 1.29547C17.2372 1.34509 17.1286 1.4178 17.0372 1.50945L8.6589 9.93667L7.98057 12.8761C7.95167 13.0186 7.95471 13.1657 7.98947 13.3069C8.02422 13.4481 8.08983 13.5798 8.18158 13.6926C8.27333 13.8053 8.38893 13.8964 8.52007 13.9592C8.65121 14.0219 8.79463 14.0548 8.94001 14.0556C9.01516 14.0638 9.09098 14.0638 9.16613 14.0556L12.13 13.4017L20.49 4.96223C20.5817 4.87083 20.6544 4.76225 20.704 4.6427C20.7536 4.52315 20.7791 4.39499 20.7791 4.26556C20.7791 4.13613 20.7536 4.00797 20.704 3.88842C20.6544 3.76887 20.5817 3.66029 20.49 3.56889ZM11.4945 12.2711L9.25779 12.7661L9.77724 10.5478L16.0839 4.19834L17.8072 5.92167L11.4945 12.2711ZM18.4978 5.23112L16.7745 3.50778L17.7217 2.54223L19.4572 4.27778L18.4978 5.23112Z" fill="#164E73"/>
</g>
<defs>
<clipPath id="clip0_4875_4963">
<rect width="22" height="22" fill="white"/>
</clipPath>
</defs>
</svg>
