<svg width="24" height="20" viewBox="0 0 24 20" fill="none" xmlns="http://www.w3.org/2000/svg">
<path d="M24 2.7493C23.117 3.13066 22.1683 3.38844 21.1722 3.50412C22.1885 2.91053 22.9696 1.97048 23.3368 0.850997C22.3855 1.40057 21.3314 1.80015 20.2103 2.01451C19.3124 1.08297 18.0326 0.5 16.6164 0.5C13.8973 0.5 11.6925 2.64728 11.6925 5.29676C11.6925 5.67235 11.7362 6.03883 11.8203 6.39013C7.72801 6.19004 4.1001 4.2802 1.67152 1.3778C1.24764 2.08647 1.00484 2.91083 1.00484 3.78954C1.00484 5.45374 1.87411 6.92149 3.1953 7.78198C2.38837 7.75678 1.62913 7.54089 0.965261 7.182C0.964638 7.20204 0.964638 7.22178 0.964638 7.24242C0.964638 9.56581 2.66171 11.5045 4.91389 11.9457C4.50092 12.0547 4.06613 12.1136 3.617 12.1136C3.2994 12.1136 2.99116 12.0838 2.69039 12.0276C3.31686 13.9329 5.13518 15.3202 7.28979 15.3591C5.60456 16.6453 3.48173 17.4125 1.17471 17.4125C0.77732 17.4125 0.385543 17.3901 0 17.3454C2.17893 18.7063 4.76709 19.5 7.54755 19.5C16.6042 19.5 21.5568 12.1913 21.5568 5.85331C21.5568 5.64563 21.5518 5.43825 21.5424 5.23209C22.5052 4.5562 23.3402 3.7112 24 2.7493Z" fill="#00ACEE"/>
</svg>
