<svg width="648" height="500" viewBox="0 0 648 500" fill="none" xmlns="http://www.w3.org/2000/svg">
<g clip-path="url(#clip0)">
<path opacity="0.1" d="M215.433 499.719C246.99 499.719 272.572 495.243 272.572 489.722C272.572 484.201 246.99 479.725 215.433 479.725C183.876 479.725 158.294 484.201 158.294 489.722C158.294 495.243 183.876 499.719 215.433 499.719Z" fill="#6C63FF"/>
<path opacity="0.1" d="M526.034 500C565.412 500 597.335 495.524 597.335 490.003C597.335 484.482 565.412 480.006 526.034 480.006C486.655 480.006 454.733 484.482 454.733 490.003C454.733 495.524 486.655 500 526.034 500Z" fill="#6C63FF"/>
<path opacity="0.1" d="M8.11587 216.036H67.63V304.399H12.4729C12.3263 305.306 12.1855 306.219 12.0331 307.133H67.63V378.395C67.5303 378.363 67.4424 378.325 67.3485 378.287C65.777 377.609 64.2172 376.894 62.6573 376.127L61.6604 375.636C60.0967 374.831 58.5329 373.979 56.9692 373.08C56.4238 372.767 55.8785 372.442 55.339 372.11C46.6578 366.812 38.7713 360.1 31.9532 352.205C31.7538 351.994 31.5662 351.771 31.3668 351.566C30.4168 350.442 29.4844 349.305 28.5814 348.142L27.5845 346.865C26.5172 345.44 25.4852 343.978 24.4824 342.496C24.3358 342.278 24.1951 342.061 24.0426 341.857C19.9644 335.697 16.5783 329.028 13.9565 321.991C13.8744 321.78 13.804 321.55 13.7278 321.352C12.9224 319.095 12.209 316.817 11.5874 314.517C11.3176 313.552 11.0596 312.601 10.8368 311.598C10.7547 311.304 10.6843 311.016 10.6198 310.729C7.28904 296.567 6.89615 281.856 6.89615 267.247C6.89615 265.542 6.89615 263.83 6.89615 262.137C6.89615 256.228 6.96065 250.281 7.05448 244.34C7.05448 242.801 7.11312 241.268 7.14244 239.722C7.22453 235.8 7.34182 231.878 7.49428 227.956C7.52947 226.863 7.57638 225.777 7.62915 224.691C7.62915 224.065 7.65847 223.439 7.71712 222.813C7.85785 220.539 7.97513 218.284 8.11587 216.036Z" fill="#6C63FF"/>
<path opacity="0.1" d="M67.63 117.651H34.9849C40.2915 108.603 46.0896 99.9086 52.3483 91.6141C57.1978 85.1241 62.3172 78.8001 67.63 72.7061V117.651Z" fill="#6C63FF"/>
<path opacity="0.1" d="M67.63 120.385V213.302H8.3035C8.3035 213.034 8.34454 212.759 8.36214 212.491C8.41491 211.756 8.46769 211.022 8.52633 210.293C8.59083 209.437 8.6612 208.575 8.73744 207.738C8.81367 206.901 8.89577 205.879 8.98373 204.953C9.07169 204.027 9.15378 203.088 9.25347 202.162C9.35316 201.235 9.44112 200.309 9.54667 199.389C9.65223 198.469 9.74605 197.537 9.85747 196.617C9.94543 195.85 10.0393 195.09 10.1331 194.324C10.2679 193.244 10.4087 192.158 10.5612 191.085C10.5612 190.925 10.6022 190.759 10.6257 190.606C11.696 182.75 13.1543 174.963 14.9944 167.278C16.9205 159.216 19.38 151.317 22.3537 143.643C25.5142 135.614 29.2148 127.851 33.425 120.417L67.63 120.385Z" fill="#6C63FF"/>
<path opacity="0.1" d="M81.8386 216.03V304.399H208.953V216.03H81.8386ZM81.8386 307.126V383.013C82.5657 383.18 83.287 383.339 84.0024 383.473C84.9759 383.678 85.9434 383.863 86.9344 384.023C87.1221 384.055 87.3156 384.087 87.5208 384.106C87.9079 384.176 88.3066 384.234 88.6937 384.291C89.673 384.438 90.6464 384.559 91.6257 384.655C92.0889 384.706 92.5581 384.751 93.0272 384.789L94.1589 384.885C94.7747 384.936 95.3845 384.975 95.9885 384.994C96.3638 384.994 96.7391 385.032 97.1261 385.045C97.4193 385.045 97.7125 385.045 98.0175 385.045C98.3224 385.045 98.7563 385.045 99.1258 385.045C99.6301 385.045 100.134 385.045 100.633 385.045H101.307C101.812 385.045 102.316 385.045 102.814 384.994H102.849C103.195 384.994 103.547 384.994 103.899 384.943C103.997 384.949 104.095 384.949 104.192 384.943C104.486 384.943 104.779 384.943 105.06 384.898H105.265L107.23 384.732C107.875 384.668 108.526 384.585 109.183 384.508L110.52 384.336C115.959 383.506 121.338 382.259 126.616 380.605C138.473 377.003 150.073 371.963 161.924 368.27C177.247 363.512 194.176 361.174 208.983 366.993V307.126H81.8386ZM208.953 117.651V0.0063877C195.036 -0.157858 181.157 1.61527 167.653 5.28273C135.465 14.0915 106.585 33.1975 81.8386 57.599V117.644H88.2187V120.372H81.8386V213.302H208.953V120.378H114.413V117.651H208.953ZM372.226 77.9122C364.263 77.6056 356.346 74.8588 349.186 70.6173C335.494 62.5048 324.557 49.9783 312.336 39.4064C286.945 17.3876 255.455 4.10098 223.15 0.804865V117.651H404.613L405.064 117.133L372.226 77.9122ZM388.757 74.7183L406.284 95.6703V69.2248C400.414 70.0169 395.272 71.9013 388.78 74.6927L388.757 74.7183ZM406.284 401.858V307.126H368.936C368.836 306.724 368.737 306.315 368.619 305.906C368.731 306.315 368.825 306.724 368.93 307.126H223.174V375.636C224.558 376.753 225.924 377.929 227.279 379.123C228.739 380.401 230.181 381.749 231.63 383.071L233.09 384.387C233.788 385.026 234.491 385.664 235.201 386.265C236.608 387.508 238.029 388.735 239.464 389.944C240.174 390.583 240.901 391.158 241.622 391.758C253.073 401.295 265.152 409.902 277.762 417.508C280.589 419.211 283.44 420.874 286.318 422.497C288.235 423.563 290.164 424.624 292.1 425.652C295.008 427.198 297.94 428.689 300.896 430.124C328.144 443.448 356.957 452.591 386.511 457.291C393.074 458.347 399.664 459.178 406.278 459.782V401.851H406.865L406.284 401.858ZM223.174 120.378V213.302H406.308V120.378H223.174ZM223.174 216.03V304.399H406.308V216.03H223.174ZM420.522 69.1098V98.6087L442.893 71.8693C435.481 70.5662 428.024 69.6357 420.522 69.0779V69.1098ZM420.522 216.062V304.399H598.642V216.03L420.522 216.062ZM597.991 408.871L598.619 307.126H420.522V460.798C431.995 461.323 443.486 461.174 454.944 460.351H455.143C460.617 459.976 466.064 459.431 471.486 458.716H471.61C500.537 455.048 528.823 446.827 555.583 434.308L597.991 408.871ZM632.988 230.581C632.32 228.863 631.622 227.157 630.912 225.471C629.587 222.277 628.185 219.172 626.743 216.068H612.845V304.399H647.982C647.965 279.384 642.153 253.833 633.006 230.549L632.988 230.581ZM612.845 307.158V394.671C622.743 384.336 631.106 372.512 637.128 358.995C644.37 342.719 647.683 325.095 647.953 307.145L612.845 307.158ZM612.845 190.312V213.308H625.441C621.631 205.392 617.432 197.705 612.863 190.28L612.845 190.312ZM492.046 86.4463C491.119 86.0631 490.193 85.6734 489.26 85.2965C479.427 81.3407 469.378 78.0511 459.172 75.4465L424.938 116.373L424.281 117.133L424.721 117.657H546.564C529.594 104.933 511.3 94.4455 492.063 86.4144L492.046 86.4463ZM550.135 120.41H423.02L420.522 122.902V213.302H442.418H442.454H598.666V169.514C584.535 150.897 568.225 134.378 550.153 120.378L550.135 120.41Z" fill="#6C63FF"/>
<path opacity="0.1" d="M67.63 167.252V213.302H8.3035C8.3035 213.034 8.34454 212.759 8.36214 212.491C8.41491 211.756 8.46769 211.022 8.52633 210.293C8.59083 209.437 8.6612 208.575 8.73744 207.738C8.81367 206.901 8.89577 205.879 8.98373 204.953C9.07169 204.027 9.15378 203.088 9.25347 202.162C9.35316 201.235 9.44112 200.309 9.54667 199.389C9.65223 198.469 9.74605 197.537 9.85747 196.617C9.94543 195.85 10.0393 195.09 10.1331 194.324C10.2679 193.244 10.4087 192.158 10.5612 191.085C10.5612 190.925 10.6022 190.759 10.6257 190.606C11.696 182.75 13.1543 174.963 14.9944 167.278L67.63 167.252Z" fill="#6C63FF"/>
<path opacity="0.1" d="M8.11587 216.036H67.63V304.399H12.4729C12.3263 305.306 12.1855 306.219 12.0331 307.133H67.63V378.395C67.5303 378.363 67.4424 378.325 67.3485 378.287C65.777 377.609 64.2172 376.894 62.6573 376.127L61.6604 375.636C60.0967 374.831 58.5329 373.979 56.9692 373.08C56.4238 372.767 55.8785 372.442 55.339 372.11C46.6578 366.812 38.7713 360.1 31.9532 352.205C31.7538 351.994 31.5662 351.771 31.3668 351.566C30.4168 350.442 29.4844 349.305 28.5814 348.142L27.5845 346.865C26.5172 345.44 25.4852 343.978 24.4824 342.496C24.3358 342.278 24.1951 342.061 24.0426 341.857C19.9644 335.697 16.5783 329.028 13.9565 321.991C13.8744 321.78 13.804 321.55 13.7278 321.352C12.9224 319.095 12.209 316.817 11.5874 314.517C11.3176 313.552 11.0596 312.601 10.8368 311.598C10.7547 311.304 10.6843 311.016 10.6198 310.729C7.28904 296.567 6.89615 281.856 6.89615 267.247C6.89615 265.542 6.89615 263.83 6.89615 262.137C6.89615 256.228 6.96065 250.281 7.05448 244.34C7.05448 242.801 7.11312 241.268 7.14244 239.722C7.22453 235.8 7.34182 231.878 7.49428 227.956C7.52947 226.863 7.57638 225.777 7.62915 224.691C7.62915 224.065 7.65847 223.439 7.71712 222.813C7.85785 220.539 7.97513 218.284 8.11587 216.036Z" fill="#6C63FF"/>
<path opacity="0.1" d="M126.587 133.684V213.302H81.8386V133.684H88.2187V106.728H114.407V133.684H126.587Z" fill="#6C63FF"/>
<path opacity="0.1" d="M126.587 216.03H81.8444V304.392H126.587V216.03Z" fill="#6C63FF"/>
<path opacity="0.1" d="M81.8386 307.133H126.587V380.593C121.309 382.245 115.93 383.489 110.49 384.317L109.153 384.495C108.497 384.579 107.846 384.649 107.201 384.719C106.556 384.789 105.887 384.84 105.236 384.885H105.031C104.749 384.885 104.444 384.923 104.169 384.93H103.87C103.518 384.93 103.166 384.968 102.814 384.981C102.316 385.013 101.817 385.019 101.307 385.026C101.09 385.026 100.885 385.026 100.668 385.026C100.164 385.026 99.6653 385.026 99.161 385.026H98.0527C97.7536 385.026 97.4663 385.026 97.1555 385.026L96.0237 384.981C95.4373 384.981 94.804 384.911 94.1941 384.866L93.0682 384.777L91.6667 384.636C90.6816 384.54 89.7023 384.419 88.7347 384.272L87.5619 384.093L86.9755 384.004C85.9962 383.838 85.0286 383.659 84.0435 383.454C83.3222 383.32 82.6068 383.154 81.8796 382.994L81.8386 307.133Z" fill="#6C63FF"/>
<path opacity="0.1" d="M406.308 124.281H369.411V213.296H406.308V124.281Z" fill="#6C63FF"/>
<path opacity="0.1" d="M406.314 216.03V304.399H223.174V266.283H320.722V288.768H369.411V216.03H406.314Z" fill="#6C63FF"/>
<path opacity="0.1" d="M406.894 401.877H406.308V459.846C399.701 459.237 393.114 458.409 386.546 457.361C356.977 452.646 328.152 443.483 300.896 430.136C293.026 426.278 285.317 422.066 277.768 417.501C265.158 409.891 253.077 401.285 241.622 391.752C238.745 389.35 235.904 386.893 233.101 384.381C231.16 382.637 229.231 380.848 227.278 379.111C225.924 377.916 224.558 376.741 223.174 375.616V307.133H368.924C368.825 306.724 368.725 306.315 368.619 305.913C368.731 306.315 368.836 306.724 368.936 307.133H406.308V401.838C406.507 401.845 406.701 401.864 406.894 401.877Z" fill="#6C63FF"/>
<path opacity="0.1" d="M502.537 117.651H478.494V109.513H489.272V85.271C490.206 85.6415 491.137 86.0226 492.063 86.4144V109.513H502.537V117.651Z" fill="#6C63FF"/>
<path opacity="0.1" d="M560.462 213.302H442.43C442.43 213.302 442.43 213.302 442.471 213.334L442.418 213.302H420.522V124.288H426.726V190.082H455.079V151.117H478.5V120.385H502.542V151.142H525.963V190.108H560.462V213.302Z" fill="#6C63FF"/>
<path opacity="0.1" d="M420.522 216.03V304.399H560.462V216.03H420.522ZM598.449 408.418L598.642 338.471H560.462V307.171H420.522V460.798C431.995 461.323 443.486 461.174 454.944 460.351H455.143C460.617 459.976 466.064 459.431 471.487 458.716H471.61C500.537 455.048 528.823 446.827 555.583 434.308" fill="#6C63FF"/>
<path opacity="0.1" d="M615.331 307.133H647.977C647.689 325.076 644.382 342.7 637.146 358.976C631.123 372.499 622.755 384.323 612.869 394.652V338.439H615.331V307.133Z" fill="#6C63FF"/>
<path opacity="0.1" d="M647.994 304.399H615.331V230.549H633.006C642.154 253.833 647.965 279.384 647.994 304.399Z" fill="#6C63FF"/>
<path opacity="0.1" d="M406.314 149.028H386.546V176.936H406.314V149.028Z" fill="#6C63FF"/>
<path opacity="0.1" d="M406.314 206.876H386.546V213.302H406.314V206.876Z" fill="#6C63FF"/>
<path opacity="0.1" d="M406.314 216.03H386.546V234.778H406.314V216.03Z" fill="#6C63FF"/>
<path opacity="0.1" d="M406.314 264.724H386.546V292.632H406.314V264.724Z" fill="#6C63FF"/>
<path opacity="0.1" d="M406.314 322.572H386.546V350.48H406.314V322.572Z" fill="#6C63FF"/>
<path opacity="0.1" d="M406.308 401.838C406.507 401.838 406.701 401.838 406.894 401.877H406.308V408.36H386.546V380.42H406.308V401.838Z" fill="#6C63FF"/>
<path opacity="0.1" d="M406.308 438.255V459.814C399.701 459.205 393.114 458.377 386.546 457.329V438.255H406.308Z" fill="#6C63FF"/>
<path opacity="0.1" d="M307.891 302.348H223.174V304.399H307.891V302.348Z" fill="#6C63FF"/>
<path opacity="0.1" d="M307.891 307.126H223.174V314.983H307.891V307.126Z" fill="#6C63FF"/>
<path opacity="0.1" d="M307.891 340.739H223.174V353.374H307.891V340.739Z" fill="#6C63FF"/>
<path opacity="0.1" d="M307.886 379.13V391.765H241.622C238.745 389.372 235.903 386.914 233.096 384.393C231.155 382.649 229.231 380.861 227.273 379.13H307.886Z" fill="#6C63FF"/>
<path opacity="0.1" d="M307.886 417.514V430.136H300.89C293.028 426.274 285.321 422.06 277.768 417.495L307.886 417.514Z" fill="#6C63FF"/>
<path opacity="0.1" d="M471.627 224.596H454.95V242.763H471.627V224.596Z" fill="#6C63FF"/>
<path opacity="0.1" d="M110.531 139.951H93.854V158.118H110.531V139.951Z" fill="#6C63FF"/>
<path opacity="0.1" d="M110.531 182.149H93.854V200.316H110.531V182.149Z" fill="#6C63FF"/>
<path opacity="0.1" d="M110.531 224.347H93.854V242.513H110.531V224.347Z" fill="#6C63FF"/>
<path opacity="0.1" d="M110.531 266.538H93.854V284.705H110.531V266.538Z" fill="#6C63FF"/>
<path opacity="0.1" d="M110.531 308.736H93.854V326.903H110.531V308.736Z" fill="#6C63FF"/>
<path opacity="0.1" d="M110.531 350.934H93.854V369.101H110.531V350.934Z" fill="#6C63FF"/>
<path opacity="0.1" d="M535.293 224.596H518.616V242.763H535.293V224.596Z" fill="#6C63FF"/>
<path opacity="0.1" d="M471.627 269.406H454.95V287.573H471.627V269.406Z" fill="#6C63FF"/>
<path opacity="0.1" d="M535.293 269.406H518.616V287.573H535.293V269.406Z" fill="#6C63FF"/>
<path opacity="0.1" d="M471.627 314.21H454.95V332.377H471.627V314.21Z" fill="#6C63FF"/>
<path opacity="0.1" d="M535.293 314.21H518.616V332.377H535.293V314.21Z" fill="#6C63FF"/>
<path opacity="0.1" d="M471.627 359.021H454.95V377.188H471.627V359.021Z" fill="#6C63FF"/>
<path opacity="0.1" d="M535.293 359.021H518.616V377.188H535.293V359.021Z" fill="#6C63FF"/>
<path opacity="0.1" d="M471.627 403.831H454.95V421.998H471.627V403.831Z" fill="#6C63FF"/>
<path opacity="0.1" d="M535.293 403.831H518.616V421.998H535.293V403.831Z" fill="#6C63FF"/>
<path opacity="0.1" d="M454.95 460.351V448.636H471.621V458.684L454.95 460.351Z" fill="#6C63FF"/>
<path opacity="0.1" d="M10.5553 190.593V200.986H67.63V190.593H10.5553ZM16.2434 200.335H11.5873V191.232H16.2786L16.2434 200.335ZM21.9256 200.335H17.2344V191.232H21.9256V200.335ZM27.5962 200.335H22.9049V191.232H27.5962V200.335ZM33.2784 200.335H28.5931V191.232H33.2843L33.2784 200.335ZM38.9548 200.335H34.2636V191.232H38.9548V200.335ZM44.6371 200.335H39.9458V191.232H44.6371V200.335ZM50.3193 200.335H45.6281V191.232H50.3193V200.335ZM55.9957 200.335H51.3045V191.232H55.9957V200.335ZM61.6721 200.335H56.9809V191.232H61.6721V200.335ZM67.3485 200.335H62.6573V191.232H67.3485V200.335Z" fill="#6C63FF"/>
<path opacity="0.1" d="M10.5553 220.833V231.226H67.63V220.833H10.5553ZM16.2434 230.568H11.5873V221.491H16.2786L16.2434 230.568ZM21.9256 230.568H17.2344V221.491H21.9256V230.568ZM27.5962 230.568H22.9049V221.491H27.5962V230.568ZM33.2784 230.568H28.5931V221.491H33.2843L33.2784 230.568ZM38.9548 230.568H34.2636V221.491H38.9548V230.568ZM44.6371 230.568H39.9458V221.491H44.6371V230.568ZM50.3193 230.568H45.6281V221.491H50.3193V230.568ZM55.9957 230.568H51.3045V221.491H55.9957V230.568ZM61.6721 230.568H56.9809V221.491H61.6721V230.568ZM67.3485 230.568H62.6573V221.491H67.3485V230.568Z" fill="#6C63FF"/>
<path opacity="0.1" d="M10.5553 251.086V261.498H67.63V251.086H10.5553ZM16.2434 260.821H11.5873V251.737H16.2786L16.2434 260.821ZM21.9256 260.821H17.2344V251.737H21.9256V260.821ZM27.5962 260.821H22.9049V251.737H27.5962V260.821ZM33.2784 260.821H28.5931V251.737H33.2843L33.2784 260.821ZM38.9548 260.821H34.2636V251.737H38.9548V260.821ZM44.6371 260.821H39.9458V251.737H44.6371V260.821ZM50.3193 260.821H45.6281V251.737H50.3193V260.821ZM55.9957 260.821H51.3045V251.737H55.9957V260.821ZM61.6721 260.821H56.9809V251.737H61.6721V260.821ZM67.3485 260.821H62.6573V251.737H67.3485V260.821Z" fill="#6C63FF"/>
<path opacity="0.1" d="M10.5553 281.339V291.719H67.63V281.339H10.5553ZM16.2434 291.074H11.5873V281.984H16.2786L16.2434 291.074ZM21.9256 291.074H17.2344V281.984H21.9256V291.074ZM27.5962 291.074H22.9049V281.984H27.5962V291.074ZM33.2784 291.074H28.5931V281.984H33.2843L33.2784 291.074ZM38.9548 291.074H34.2636V281.984H38.9548V291.074ZM44.6371 291.074H39.9458V281.984H44.6371V291.074ZM50.3193 291.074H45.6281V281.984H50.3193V291.074ZM55.9957 291.074H51.3045V281.984H55.9957V291.074ZM61.6721 291.074H56.9809V281.984H61.6721V291.074ZM67.3485 291.074H62.6573V281.984H67.3485V291.074Z" fill="#6C63FF"/>
<path opacity="0.1" d="M10.8015 311.585C11.0302 312.562 11.2883 313.54 11.558 314.504V312.236H16.2492V321.32H13.7394C13.8157 321.531 13.8919 321.761 13.9681 321.959H67.63V311.585H10.8015ZM21.9432 321.32H17.252V312.236H21.9432V321.32ZM27.6137 321.32H22.9225V312.236H27.6137V321.32ZM33.296 321.32H28.593V312.236H33.2843L33.296 321.32ZM38.9724 321.32H34.2812V312.236H38.9724V321.32ZM44.6546 321.32H39.9634V312.236H44.6546V321.32ZM50.3369 321.32H45.6457V312.236H50.3369V321.32ZM56.0133 321.32H51.3221V312.236H56.0133V321.32ZM61.6897 321.32H56.9985V312.236H61.6897V321.32ZM67.3661 321.32H62.6748V312.236H67.3661V321.32Z" fill="#6C63FF"/>
<path opacity="0.1" d="M24.0543 341.838C24.2009 342.042 24.3417 342.272 24.4941 342.476H27.5962V346.839C27.9305 347.274 28.2588 347.708 28.599 348.117V342.451H33.2902V351.566H31.3902C31.5779 351.777 31.7597 352.001 31.9766 352.205H67.6476V341.838H24.0543ZM38.9548 351.566H34.2636V342.489H38.9548V351.566ZM44.6371 351.566H39.9459V342.489H44.6371V351.566ZM50.3193 351.566H45.6281V342.489H50.3193V351.566ZM55.9957 351.566H51.3045V342.489H55.9957V351.566ZM61.6721 351.566H56.9809V342.489H61.6721V351.566ZM67.3485 351.566H62.6573V342.489H67.3485V351.566Z" fill="#6C63FF"/>
<path opacity="0.1" d="M55.3624 372.084C55.896 372.416 56.4414 372.723 56.9926 373.055V372.736H61.6838V375.61L62.6807 376.115V372.736H67.372V378.261C67.4619 378.31 67.5562 378.348 67.6534 378.376V372.084H55.3624Z" fill="#6C63FF"/>
<path opacity="0.1" d="M442.43 213.302H442.465H442.43ZM406.308 401.832H406.894H406.308ZM368.62 305.906C368.731 306.315 368.825 306.724 368.93 307.126C368.836 306.724 368.737 306.315 368.62 305.906ZM442.43 213.283H442.465H442.43ZM88.2421 117.632V120.359H114.437V117.632H88.2421ZM406.308 401.832H406.894H406.308ZM368.62 305.906C368.731 306.315 368.825 306.724 368.93 307.126C368.836 306.724 368.737 306.315 368.62 305.906ZM442.43 213.283H442.465H442.43ZM406.308 401.813H406.894H406.308ZM368.62 305.906C368.731 306.315 368.825 306.724 368.93 307.126C368.836 306.724 368.737 306.315 368.62 305.906Z" fill="#6C63FF"/>
<path d="M270.684 242.526C270.684 242.526 268.374 242.175 268.374 238.508C268.374 234.842 266.72 227.994 266.72 227.994C266.72 227.962 265.289 216.068 263.313 214.177C261.337 212.286 258.798 201.184 258.798 201.184C258.798 201.184 258.364 195.161 257.478 193.864C256.593 192.567 255.397 189.392 253.632 184.863C251.866 180.334 244.507 177.198 244.507 177.198C244.507 177.198 231.202 168.792 227.431 166.051C227.088 165.826 226.768 165.563 226.475 165.266C225.818 164.327 222.957 164.307 222.957 164.307C222.658 162.251 222.37 159.887 222.276 157.747C222.276 157.517 222.276 157.287 222.247 157.057C226.452 154.35 229.618 150.081 231.166 145.035C231.237 144.793 231.295 144.537 231.36 144.294C231.612 144.204 231.844 144.057 232.041 143.864C232.237 143.67 232.395 143.434 232.503 143.17C232.843 142.346 232.849 141.382 233.272 140.615C233.764 139.708 234.702 139.222 235.441 138.539C237.306 136.814 237.787 133.908 237.699 131.263C237.64 129.123 237.324 126.964 237.447 124.837L237.482 124.301C237.517 123.981 237.558 123.662 237.611 123.355C237.898 121.771 238.526 120.276 238.878 118.705C239.229 117.133 239.265 115.364 238.444 114.01C237.241 112.023 234.738 111.627 232.539 111.423C230.046 111.193 227.818 111.493 226.223 109.238C225.476 108.06 224.637 106.954 223.713 105.936C223.385 105.603 220.195 103.483 220.195 103.342C217.081 101.771 213.552 101.476 210.255 102.512C208.602 103.035 207.042 103.891 205.365 104.319C201.746 105.252 197.583 104.243 194.51 106.498C192.798 107.775 191.772 109.807 190.81 111.787C190.028 113.418 189.235 115.047 188.429 116.673C187.133 119.35 185.814 122.071 185.268 125.035C185.154 125.68 185.083 126.333 185.057 126.99V127.022C185.057 127.258 185.057 127.494 185.057 127.731V128.031C185.057 128.255 185.057 128.472 185.093 128.67C185.128 128.868 185.122 128.932 185.139 129.066C185.157 129.2 185.186 129.5 185.222 129.705C185.257 129.909 185.327 130.267 185.398 130.548C185.427 130.669 185.468 130.784 185.503 130.899C185.562 131.116 185.632 131.327 185.708 131.538C185.749 131.647 185.79 131.762 185.837 131.87C185.925 132.094 186.031 132.311 186.136 132.509C186.183 132.598 186.218 132.681 186.265 132.764C186.429 133.061 186.609 133.347 186.805 133.62C188.06 135.326 189.907 136.412 191.273 138.009C191.273 138.073 191.273 138.137 191.273 138.194C191.273 138.373 191.273 138.545 191.273 138.724C191.346 142.286 192.216 145.774 193.808 148.886C195.401 151.997 197.667 154.638 200.409 156.578C200.409 156.821 200.439 157.07 200.451 157.313C200.565 159.209 200.543 161.112 200.386 163.004C200.147 162.698 199.848 162.454 199.511 162.29C199.174 162.127 198.808 162.048 198.439 162.059C198.187 162.046 197.935 162.069 197.689 162.129L197.636 162.084V162.142C196.346 162.487 194.757 163.95 193.238 168.108C193.238 168.108 188.617 173.781 185.098 173.544C181.58 173.308 172.673 179.447 172.673 179.447C172.673 179.447 163.982 185.592 162.117 191.852C161.075 195.401 159.825 198.875 158.376 202.251L147.633 226.365L145.651 245.497C145.651 245.497 146.748 254.005 146.531 255.302C146.314 256.599 151.04 268.295 151.04 268.295C151.04 268.295 166.656 298.183 173.036 299.716L173.494 299.365C173.766 299.52 174.056 299.638 174.356 299.716L175.669 298.707C175.748 299.832 175.715 300.963 175.569 302.08C174.69 305.031 175.898 324.29 177.434 328.065C178.971 331.841 178.425 381.34 178.425 381.34L178.208 385.709C178.208 385.709 178.208 385.85 178.261 386.092L178.208 387.127L178.367 387.217C178.531 388.603 178.477 390.009 178.208 391.375C177.657 393.291 177.434 398.708 177.434 398.708C177.434 398.708 173.042 429.293 175.124 435.438C177.205 441.583 178.976 448.316 178.976 448.316C178.976 448.316 181.175 455.982 179.082 457.291C176.988 458.601 171.036 460.798 172.262 463.992C173.376 466.943 177.604 474.851 178.232 476.007L178.179 476.614L177.317 486.79C177.456 488.134 177.791 489.444 178.308 490.674C179.252 492.89 181.087 495.19 184.577 494.941C185.163 494.896 185.843 494.819 186.5 494.724C192.886 493.791 200.75 490.687 200.75 490.687C200.341 490.404 199.967 490.067 199.635 489.684C199.322 489.352 199.073 488.955 198.904 488.516C198.736 488.077 198.652 487.605 198.656 487.129C198.75 485.276 195.566 476.448 194.774 474.276C194.651 473.963 194.586 473.784 194.586 473.784C194.586 473.784 201.846 465.519 200.638 458.192C200.638 458.192 192.604 453.081 195.249 450.277C197.894 447.473 202.62 439.418 202.62 439.418C202.62 439.418 202.837 409.299 202.62 404.802C202.394 401.681 202.53 398.541 203.025 395.457C203.113 394.991 203.218 394.537 203.33 394.09C206.987 394.685 210.68 394.99 214.378 395.003C215.726 395.003 217.099 395.003 218.482 394.914C218.482 395.34 218.5 395.8 218.535 396.294C218.84 403.755 219.409 416.837 219.872 421.698C220.529 428.667 224.159 447.447 224.159 447.447C224.159 447.447 217.233 452.289 225.367 464.222C225.367 464.222 225.367 468.546 224.827 469.172C224.251 471.219 223.787 473.301 223.438 475.407C223.097 477.655 222.957 479.929 223.508 481.111C224.827 483.935 232.744 483.705 232.744 483.705L232.937 483.666C234.432 483.498 235.942 483.655 237.381 484.127C238.819 484.6 240.157 485.379 241.317 486.419C244.325 489.051 255.743 487.895 261.923 487.058C264.345 486.726 265.964 486.419 265.964 486.419C266.042 486.121 266.07 485.809 266.046 485.5C265.981 483.845 264.791 480.217 256.722 476.978C256.722 476.978 249.134 471.421 249.239 466.579H249.081H248.201C248.841 466.541 249.251 466.579 249.251 466.579C249.251 466.579 246.278 454.761 247.492 453.803C248.706 452.845 245.07 439.75 245.07 439.75C245.07 439.75 242.988 417.776 242.877 416.237C242.882 414.915 243.065 413.602 243.422 412.34L242.877 400.293C242.877 400.293 242.771 396.287 242.877 394.984C242.859 393.853 242.775 392.724 242.625 391.605C242.572 391.158 242.519 390.692 242.46 390.232C245.305 389.446 247.152 388.718 247.152 388.718L246.823 346.782C249.239 341.672 249.685 330.461 249.673 322.508C249.673 317.398 249.462 313.616 249.462 313.616L252.764 307.746C252.764 307.746 253.526 300.719 252.318 299.18C251.784 298.483 252.025 297.762 252.465 297.168C252.693 296.97 252.934 296.791 253.186 296.631C253.186 296.631 253.151 296.574 253.11 296.491C253.34 296.281 253.585 296.091 253.843 295.922C253.843 295.922 252.67 293.942 253.719 293.105C254.705 293.833 255.584 294.383 256.253 294.83C256.206 295.296 256.159 295.564 256.159 295.564L256.44 294.925C257.085 295.322 257.478 295.564 257.478 295.564C257.478 295.564 262.65 284.341 262.539 282.686C262.428 281.032 266.057 274.063 266.057 274.063C266.057 274.063 266.497 270.403 268.479 268.87C270.461 267.337 270.016 256.228 270.016 256.228C270.016 256.228 270.567 250.441 271.886 248.077C273.206 245.714 270.684 242.526 270.684 242.526ZM171.723 237.601L171.822 240.278C171.236 239.249 170.814 238.508 170.814 238.508L171.723 237.601Z" fill="url(#paint0_linear)"/>
<path d="M257.76 290.716L256.493 296.593C256.493 296.593 246.348 290.952 244.519 283.785C242.689 276.618 247.58 273.897 247.58 273.897L257.033 278.26L257.76 290.716Z" fill="white"/>
<path opacity="0.1" d="M257.76 290.716L256.493 296.593C256.493 296.593 246.348 290.952 244.519 283.785C242.689 276.618 247.58 273.897 247.58 273.897L257.033 278.26L257.76 290.716Z" fill="black"/>
<path d="M200.826 490.725C200.826 490.725 191.443 494.481 184.993 494.954C181.568 495.203 179.768 492.916 178.842 490.712C178.335 489.487 178.009 488.183 177.874 486.848L178.713 476.723L179.158 471.331L192.862 467.454L194.803 473.919L194.985 474.41C195.765 476.569 198.891 485.353 198.797 487.186C198.793 487.655 198.876 488.121 199.041 488.554C199.207 488.988 199.451 489.381 199.759 489.709C200.073 490.096 200.432 490.437 200.826 490.725Z" fill="white"/>
<path d="M264.914 485.576C264.937 485.884 264.91 486.193 264.832 486.49C264.832 486.49 244.765 490.137 240.66 486.49C239.503 485.424 238.154 484.634 236.7 484.17C235.245 483.706 233.718 483.578 232.216 483.794C232.216 483.794 224.452 484.024 223.156 481.239C222.617 480.07 222.757 477.802 223.092 475.567C223.433 473.472 223.887 471.401 224.452 469.364L224.763 469.096L226.61 467.48L248.237 466.783H248.401C248.295 471.6 255.743 477.125 255.743 477.125C263.653 480.319 264.82 483.928 264.914 485.576Z" fill="white"/>
<path opacity="0.1" d="M264.914 485.576C264.934 485.884 264.905 486.193 264.826 486.49C264.826 486.49 244.765 490.137 240.66 486.49C239.504 485.425 238.156 484.635 236.702 484.171C235.249 483.707 233.723 483.578 232.222 483.794C232.222 483.794 224.452 484.024 223.162 481.239C222.622 480.064 222.757 477.802 223.092 475.567C226.082 475.892 230.803 476.704 232.656 478.639C235.459 481.584 240.209 484.522 243.123 484.752C245.404 484.912 259.05 485.385 264.914 485.576Z" fill="black"/>
<path opacity="0.1" d="M200.826 490.725C200.826 490.725 191.443 494.481 184.993 494.954C181.568 495.203 179.768 492.916 178.847 490.706C181.234 491.581 184.547 492.501 186.289 491.658C188.353 490.661 195.671 490.016 199.776 489.741C200.089 490.114 200.441 490.444 200.826 490.725Z" fill="black"/>
<path d="M214.747 188.038C207.006 184.761 197.049 173.934 199.536 168.875C200.088 167.598 200.416 166.22 200.503 164.812C200.663 162.901 200.687 160.978 200.574 159.063C200.399 155.926 200.053 152.803 199.536 149.711C199.536 149.711 223.701 150.305 222.294 154.183C221.884 155.32 221.819 157.294 221.93 159.504C222.042 161.714 222.335 164.212 222.64 166.326C223.062 169.226 223.484 171.436 223.484 171.436C223.484 171.436 222.007 173.691 221.139 173.813C220.271 173.934 225.854 192.708 214.747 188.038Z" fill="#CF6F80"/>
<path opacity="0.1" d="M194.968 474.41L194.786 474.628C187.561 465.11 178.824 476.972 178.824 476.972L178.695 476.723L179.141 471.331L192.845 467.454L194.786 473.919L194.968 474.41Z" fill="black"/>
<path opacity="0.1" d="M248.407 467.454C248.407 467.454 243.129 467.333 240.314 470.041C237.5 472.75 223.895 470.629 224.481 470.041C224.655 469.75 224.76 469.416 224.786 469.07L226.633 467.454L248.26 466.758C248.342 467.186 248.407 467.454 248.407 467.454Z" fill="black"/>
<path d="M203.957 392.71C203.564 393.769 203.266 394.866 203.066 395.987C202.577 399.057 202.441 402.181 202.661 405.288C202.878 409.759 202.661 439.725 202.661 439.725C202.661 439.725 198.023 447.716 195.437 450.533C192.851 453.35 200.714 458.409 200.714 458.409C201.887 465.691 194.78 473.919 194.78 473.919C187.555 464.401 178.818 476.269 178.818 476.269C178.818 476.269 174.068 467.326 172.884 464.132C171.699 460.938 177.522 458.728 179.569 457.432C181.615 456.135 179.469 448.489 179.469 448.489C179.469 448.489 177.739 441.788 175.687 435.675C173.634 429.562 177.95 399.13 177.95 399.13C177.95 399.13 178.173 393.726 178.707 391.841C178.976 390.482 179.029 389.082 178.865 387.702C178.83 387.236 178.789 386.846 178.759 386.584C178.73 386.322 178.707 386.201 178.707 386.201L178.789 386.048L181.721 380.094C181.721 380.094 205.365 388.961 203.957 392.71Z" fill="#6C63FF"/>
<path d="M248.407 466.751C248.407 466.751 243.129 466.63 240.314 469.307C237.5 471.983 223.895 469.894 224.481 469.307C225.068 468.719 225.021 464.369 225.021 464.369C217.04 452.5 223.848 447.684 223.848 447.684C223.848 447.684 220.283 428.999 219.638 422.069C219.186 417.227 218.629 404.215 218.33 396.786C218.201 393.592 218.125 391.394 218.125 391.394L224.646 389.963L225.484 389.778L241.211 386.342C241.211 386.342 241.645 389.536 241.939 392.148C242.085 393.264 242.167 394.388 242.185 395.514C242.079 396.792 242.185 400.791 242.185 400.791L242.719 412.781C242.37 414.038 242.19 415.344 242.185 416.658C242.29 418.185 244.337 440.044 244.337 440.044C244.337 440.044 247.896 453.088 246.683 454.027C245.469 454.966 248.407 466.751 248.407 466.751Z" fill="#6C63FF"/>
<path opacity="0.1" d="M222.294 154.183C221.884 155.32 221.819 157.294 221.931 159.504C218.694 161.627 214.972 162.713 211.195 162.636C207.417 162.559 203.736 161.323 200.574 159.069C200.4 155.93 200.053 152.805 199.536 149.711C199.536 149.711 223.701 150.293 222.294 154.183Z" fill="black"/>
<path d="M231.635 140.066C231.64 142.368 231.308 144.655 230.65 146.843C229.181 151.745 226.169 155.923 222.145 158.639C218.121 161.356 213.346 162.435 208.662 161.686C203.979 160.938 199.689 158.41 196.551 154.55C193.413 150.689 191.629 145.744 191.514 140.589C191.514 140.411 191.514 140.245 191.514 140.066C191.468 137.164 191.953 134.282 192.941 131.587C193.929 128.891 195.4 126.437 197.267 124.368C199.135 122.298 201.362 120.655 203.819 119.533C206.276 118.411 208.913 117.833 211.578 117.833C214.242 117.833 216.879 118.411 219.336 119.533C221.793 120.655 224.02 122.298 225.888 124.368C227.755 126.437 229.226 128.891 230.214 131.587C231.202 134.282 231.687 137.164 231.641 140.066H231.635Z" fill="#CF6F80"/>
<path opacity="0.1" d="M214.747 188.038C207.006 184.761 197.049 173.934 199.536 168.875C200.088 167.598 200.416 166.22 200.503 164.812L211.1 174.298L217.656 180.156L222.64 166.332C223.062 169.232 223.484 171.443 223.484 171.443C223.484 171.443 222.007 173.698 221.139 173.819C220.271 173.94 225.854 192.708 214.747 188.038Z" fill="black"/>
<path d="M242.15 229.961L233.301 391.893L221.76 392.717L191.877 298.822L196.78 187.348L197.812 163.796L211.1 175.684L217.661 181.542L222.793 167.316L232.333 176.374L242.15 229.961Z" fill="#6C63FF"/>
<path opacity="0.1" d="M203.957 392.71C203.564 393.769 203.266 394.866 203.066 395.987C194.668 394.575 186.513 391.799 178.871 387.753L178.712 387.664L178.765 386.635L178.795 386.099L181.727 380.145C181.727 380.145 205.365 388.961 203.957 392.71Z" fill="black"/>
<path opacity="0.1" d="M224.78 396.013C222.634 396.41 220.469 396.679 218.295 396.818C218.166 393.624 218.09 391.426 218.09 391.426L224.61 389.995L224.78 396.013Z" fill="black"/>
<path opacity="0.1" d="M241.903 392.18C237.734 393.362 231.295 394.69 225.531 393.86L225.449 389.81L241.176 386.374C241.176 386.374 241.61 389.535 241.903 392.18Z" fill="black"/>
<path opacity="0.1" d="M225.425 394.601C201.383 399.072 179.363 386.252 179.363 386.252L179.574 381.908C179.574 381.908 180.12 332.665 178.607 328.89C177.094 325.114 175.915 305.97 176.771 303.032C177.628 300.093 173.646 256.03 173.646 256.03L173.001 238.144L149.392 227.726L159.948 203.759C161.373 200.398 162.599 196.942 163.618 193.41C165.454 187.189 173.974 181.075 173.974 181.075C173.974 181.075 182.712 174.969 186.166 175.199C189.62 175.429 194.147 169.795 194.147 169.795C197.489 160.513 200.515 164.716 200.515 164.716C200.515 165.157 200.515 164.716 200.351 166.09C199.178 176.278 219.315 208.473 219.602 209.041L221.52 259.927L223.461 324.322L225.425 394.601Z" fill="black"/>
<path d="M224.78 394.601C200.738 399.072 178.712 386.252 178.712 386.252L178.929 381.908C178.929 381.908 179.475 332.665 177.956 328.89C176.437 325.114 175.264 305.97 176.126 303.032C176.988 300.093 173.001 256.03 173.001 256.03L172.35 238.144L148.73 227.687L159.285 203.72C160.707 200.359 161.934 196.902 162.956 193.372C164.785 187.15 173.312 181.037 173.312 181.037C173.312 181.037 182.049 174.93 185.497 175.16C188.945 175.39 193.478 169.756 193.478 169.756C196.827 160.475 200.515 164.678 200.515 164.678C200.515 165.119 200.163 165.317 200.351 166.051C202.931 175.933 218.67 208.434 218.957 209.003L220.898 259.888L222.839 324.284L224.78 394.601Z" fill="white"/>
<path opacity="0.1" d="M218.301 210.453C215.715 209.278 202.016 192.241 202.016 192.241V188.364C201.518 187.086 198.556 187.866 196.152 188.76L197.184 165.208L198.357 166.268C200.925 176.144 218.002 209.885 218.301 210.453Z" fill="black"/>
<path d="M218.952 209.041C216.36 207.866 202.661 190.83 202.661 190.83V186.952C202.163 185.675 199.201 186.454 196.797 187.348L197.835 163.796L199.008 164.857C201.582 174.732 218.664 208.479 218.952 209.041Z" fill="white"/>
<path opacity="0.1" d="M179.363 294.006C179.686 294.006 196.082 292.128 196.082 292.128C196.082 292.128 206.01 313.393 205.359 318.567C204.708 323.741 203.529 328.321 199.536 327.51C195.542 326.699 178.044 328.149 178.044 328.149L179.363 294.006Z" fill="black"/>
<path d="M178.713 292.594C179.035 292.594 195.431 290.716 195.431 290.716C195.431 290.716 205.353 311.987 204.708 317.155C204.063 322.323 202.872 326.909 198.885 326.098C194.897 325.287 177.393 326.737 177.393 326.737L178.713 292.594Z" fill="white"/>
<path d="M191.068 282.61C191.068 282.61 206.115 291.419 206.438 294.108C206.76 296.797 198.779 292.933 197.055 292.466C195.92 292.168 194.765 291.972 193.601 291.879L182.102 292.217L191.068 282.61Z" fill="#CF6F80"/>
<path opacity="0.1" d="M214.102 211.552C214.976 211.552 215.685 210.78 215.685 209.827C215.685 208.874 214.976 208.102 214.102 208.102C213.228 208.102 212.519 208.874 212.519 209.827C212.519 210.78 213.228 211.552 214.102 211.552Z" fill="black"/>
<path d="M214.102 210.849C214.976 210.849 215.685 210.077 215.685 209.124C215.685 208.172 214.976 207.4 214.102 207.4C213.228 207.4 212.519 208.172 212.519 209.124C212.519 210.077 213.228 210.849 214.102 210.849Z" fill="#3F3D56"/>
<path opacity="0.1" d="M217.016 286.212C217.891 286.212 218.6 285.44 218.6 284.488C218.6 283.535 217.891 282.763 217.016 282.763C216.142 282.763 215.433 283.535 215.433 284.488C215.433 285.44 216.142 286.212 217.016 286.212Z" fill="black"/>
<path d="M217.016 285.504C217.891 285.504 218.6 284.731 218.6 283.779C218.6 282.826 217.891 282.054 217.016 282.054C216.142 282.054 215.433 282.826 215.433 283.779C215.433 284.731 216.142 285.504 217.016 285.504Z" fill="#3F3D56"/>
<path opacity="0.1" d="M215.679 248.882C216.554 248.882 217.263 248.11 217.263 247.157C217.263 246.205 216.554 245.433 215.679 245.433C214.805 245.433 214.096 246.205 214.096 247.157C214.096 248.11 214.805 248.882 215.679 248.882Z" fill="black"/>
<path d="M215.679 248.179C216.554 248.179 217.263 247.407 217.263 246.455C217.263 245.502 216.554 244.73 215.679 244.73C214.805 244.73 214.096 245.502 214.096 246.455C214.096 247.407 214.805 248.179 215.679 248.179Z" fill="#3F3D56"/>
<path d="M252.177 291.521C252.177 291.521 253.256 293.284 252.177 294.108C251.098 294.932 252.283 296.925 252.283 296.925C252.283 296.925 249.591 298.643 250.776 300.189C251.96 301.735 251.21 308.717 251.21 308.717L247.973 314.555C247.973 314.555 248.166 318.318 248.178 323.402C248.178 331.336 247.75 342.489 245.381 347.574L245.709 389.293C245.709 389.293 234.374 393.803 224.886 392.429L223.479 325.485C223.479 325.485 225.531 287.522 226.287 280.24C226.73 276.459 226.91 272.648 226.827 268.838C226.827 268.838 226.504 257.442 225.42 252.153C225.42 252.153 224.247 229.24 224.13 222.896C224.077 219.862 224.223 211.009 224.388 202.59C224.569 193.385 224.775 184.704 224.775 184.704L222.634 166.256C222.634 166.256 224.775 166.019 225.42 166.958C225.709 167.252 226.023 167.516 226.358 167.744C230.052 170.465 243.106 178.833 243.106 178.833C243.106 178.833 250.33 181.963 252.06 186.448C253.79 190.932 254.992 194.113 255.83 195.391C256.669 196.668 257.126 202.673 257.126 202.673C257.126 202.673 259.613 213.724 261.554 215.595C263.495 217.467 264.914 229.374 264.914 229.374L247.762 244.066C247.762 244.066 246.255 268.506 245.932 269.451C245.609 270.396 252.177 291.521 252.177 291.521Z" fill="white"/>
<path d="M252.828 291.521C252.828 291.521 253.901 293.284 252.828 294.108C251.755 294.932 252.928 296.925 252.928 296.925C252.928 296.925 250.254 298.662 251.427 300.208C252.599 301.754 251.861 308.736 251.861 308.736L248.624 314.574C248.624 314.574 248.817 318.337 248.835 323.422C248.835 331.355 248.407 342.508 246.038 347.593L246.36 389.312C246.36 389.312 235.007 393.822 225.531 392.448L224.13 325.504C224.13 325.504 226.182 287.541 226.938 280.259C227.382 276.479 227.56 272.667 227.472 268.857C227.472 268.857 227.15 257.461 226.071 252.172C226.071 252.172 224.898 229.259 224.775 222.916C224.722 219.881 224.874 211.028 225.033 202.609C225.214 193.404 225.42 184.723 225.42 184.723L222.593 166.026C222.593 166.026 225.42 166.026 226.071 166.978C226.357 167.275 226.671 167.538 227.009 167.763C230.703 170.484 243.762 178.852 243.762 178.852C243.762 178.852 250.981 181.983 252.711 186.467C254.441 190.951 255.643 194.132 256.487 195.41C257.332 196.687 257.777 202.692 257.777 202.692C257.777 202.692 260.264 213.743 262.205 215.614C264.146 217.486 265.547 229.367 265.547 229.367L248.395 244.059C248.395 244.059 246.888 268.499 246.56 269.444C246.231 270.39 252.828 291.521 252.828 291.521Z" fill="white"/>
<path opacity="0.1" d="M232.286 190.146L233.834 195.065L225.683 204.008C225.865 194.809 226.071 186.122 226.071 186.122L223.244 167.425C223.244 167.425 226.071 167.425 226.721 168.376C227.007 168.673 227.321 168.935 227.66 169.156L234.591 190.938L232.286 190.146Z" fill="black"/>
<path d="M231.635 188.734L233.189 193.653L225.038 202.596C225.22 193.391 225.426 184.71 225.426 184.71L222.593 166.013C222.593 166.013 225.426 166.013 226.071 166.965C226.358 167.26 226.673 167.524 227.009 167.75L233.946 189.527L231.635 188.734Z" fill="white"/>
<path opacity="0.1" d="M231.635 140.066C231.64 142.368 231.308 144.655 230.65 146.843C230.54 146.862 230.426 146.856 230.318 146.827C230.209 146.797 230.107 146.744 230.017 146.671C229.865 140.922 227.267 135.524 224.071 130.931C223.174 129.544 222.086 128.316 220.846 127.29C219.592 126.264 218.032 125.784 216.471 125.942C214.712 126.204 213.158 127.507 211.381 127.673C209.035 127.884 206.936 126.115 204.608 126.025C203.662 126.035 202.728 126.265 201.87 126.699C201.011 127.133 200.247 127.761 199.63 128.542C198.407 130.118 197.498 131.954 196.961 133.933C196.039 136.935 195.537 140.07 195.472 143.234C195.443 145.023 195.284 147.265 193.76 147.916C193.874 146.601 193.737 145.274 193.357 144.019C192.976 142.765 192.361 141.61 191.549 140.628L191.514 140.589C191.514 140.411 191.514 140.245 191.514 140.066C191.468 137.164 191.953 134.282 192.941 131.587C193.929 128.891 195.4 126.437 197.267 124.368C199.135 122.298 201.362 120.655 203.819 119.533C206.276 118.411 208.913 117.833 211.578 117.833C214.242 117.833 216.879 118.411 219.336 119.533C221.793 120.655 224.02 122.298 225.888 124.368C227.755 126.437 229.226 128.891 230.214 131.587C231.202 134.282 231.687 137.164 231.641 140.066H231.635Z" fill="black"/>
<path d="M219.884 105.361C216.837 103.799 213.371 103.504 210.138 104.53C208.514 105.054 206.983 105.904 205.335 106.332C201.817 107.258 197.712 106.255 194.692 108.497C193.015 109.775 192.006 111.793 191.068 113.754L188.722 118.622C187.444 121.285 186.154 123.994 185.62 126.926C185.087 129.858 185.409 133.141 187.116 135.498C188.359 137.217 190.194 138.296 191.543 139.912C192.351 140.895 192.964 142.05 193.343 143.303C193.723 144.556 193.861 145.881 193.748 147.194C195.278 146.556 195.425 144.307 195.46 142.519C195.526 139.355 196.028 136.219 196.95 133.218C197.485 131.238 198.394 129.402 199.618 127.827C200.236 127.046 201 126.418 201.858 125.984C202.717 125.55 203.65 125.32 204.596 125.31C206.942 125.399 209.047 127.162 211.369 126.951C213.129 126.792 214.688 125.482 216.459 125.227C218.021 125.066 219.581 125.547 220.834 126.575C222.074 127.599 223.16 128.828 224.053 130.216C227.255 134.808 229.853 140.193 230.005 145.955C230.668 146.485 231.624 145.796 231.952 144.978C232.281 144.16 232.292 143.202 232.709 142.423C233.189 141.522 234.11 141.043 234.831 140.366C236.661 138.648 237.118 135.754 237.048 133.128C236.978 130.503 236.509 127.839 236.966 125.259C237.242 123.675 237.863 122.193 238.203 120.628C238.543 119.063 238.584 117.306 237.781 115.958C236.608 113.978 234.139 113.588 231.987 113.403C229.542 113.173 227.355 113.467 225.795 111.225C225.063 110.055 224.239 108.956 223.332 107.941C223.021 107.609 219.884 105.501 219.884 105.361Z" fill="#512E4E"/>
<path opacity="0.1" d="M156.148 240.067L150.02 227.726L148.079 246.768C148.079 246.768 149.158 255.225 148.941 256.522C148.724 257.819 153.362 269.445 153.362 269.445C153.362 269.445 168.685 299.173 174.942 300.707L196.082 284.251L190.476 276.497C190.476 276.497 188.535 275.673 188.048 276.497C188.048 276.497 177.639 256.988 176.56 255.577C175.481 254.165 175.693 251.348 175.693 251.348C175.693 251.348 174.074 249.47 174.614 247.707C175.153 245.944 171.488 239.831 171.488 239.831L174.831 236.426L156.148 240.067Z" fill="black"/>
<path d="M150.342 226.32L148.724 227.726L146.783 246.768C146.783 246.768 147.862 255.225 147.645 256.522C147.428 257.819 152.072 269.445 152.072 269.445C152.072 269.445 167.389 299.173 173.646 300.707L194.792 284.251L189.18 276.497C189.18 276.497 187.239 275.673 186.752 276.497C186.752 276.497 176.343 256.988 175.264 255.577C174.185 254.165 174.402 251.348 174.402 251.348C174.402 251.348 172.784 249.47 173.323 247.707C173.863 245.944 170.192 239.831 170.192 239.831L173.535 236.426L150.342 226.32Z" fill="white"/>
<path opacity="0.1" d="M250.776 300.917C251.948 302.47 251.21 309.439 251.21 309.439L247.973 315.277C247.973 315.277 248.166 319.046 248.178 324.124L242.736 325.977C242.244 326.144 241.723 326.181 241.215 326.084C240.708 325.987 240.229 325.76 239.819 325.42C239.408 325.081 239.079 324.639 238.857 324.133C238.635 323.626 238.527 323.069 238.543 322.508L239.482 289.541L252.177 294.83C251.098 295.647 252.283 297.653 252.283 297.653C252.283 297.653 249.591 299.365 250.776 300.917Z" fill="black"/>
<path d="M251.427 300.208C252.599 301.76 251.861 308.736 251.861 308.736L248.624 314.574C248.624 314.574 248.817 318.337 248.835 323.422L243.293 325.306C242.812 325.469 242.301 325.504 241.804 325.409C241.308 325.314 240.839 325.091 240.437 324.758C240.036 324.426 239.713 323.994 239.496 323.498C239.279 323.002 239.173 322.457 239.188 321.908L240.132 288.838L252.834 294.127C251.749 294.945 252.934 296.944 252.934 296.944C252.934 296.944 250.254 298.662 251.427 300.208Z" fill="white"/>
<path d="M255.631 284.494C255.631 284.494 254.769 290.492 252.611 290.844C250.453 291.195 249.486 300.547 247.334 300.215C245.181 299.882 246.606 291.521 246.683 289.898C246.759 288.276 244.337 281.556 246.149 280.029C247.961 278.502 253.696 280.029 253.696 280.029L255.631 284.494Z" fill="#CF6F80"/>
<path opacity="0.1" d="M260.223 238.304L264.292 229.361C264.292 229.361 265.911 236.177 265.911 239.818C265.911 243.459 268.174 243.817 268.174 243.817C268.174 243.817 270.655 247.01 269.347 249.336C268.039 251.661 267.512 257.448 267.512 257.448C267.512 257.448 267.94 268.493 265.999 270.019C264.058 271.546 263.653 275.194 263.653 275.194C263.653 275.194 260.088 282.124 260.199 283.772C260.311 285.42 255.238 296.58 255.238 296.58C255.238 296.58 257.719 282.712 243.264 276.72C243.264 276.72 243.152 272.012 244.231 270.722C245.31 269.432 246.993 268.844 245.938 262.322C244.882 255.8 245.633 248.007 245.633 246.442C245.633 244.877 248.87 235.116 248.87 235.116L260.223 238.304Z" fill="black"/>
<path d="M261.982 228.083L265.535 229.361C265.535 229.361 267.16 236.177 267.16 239.818C267.16 243.459 269.423 243.817 269.423 243.817C269.423 243.817 271.904 247.01 270.596 249.336C269.288 251.661 268.767 257.448 268.767 257.448C268.767 257.448 269.195 268.493 267.254 270.019C265.313 271.546 264.879 275.194 264.879 275.194C264.879 275.194 261.319 282.124 261.431 283.772C261.542 285.42 256.464 296.58 256.464 296.58C256.464 296.58 258.95 282.712 244.49 276.72C244.49 276.72 244.384 272.012 245.463 270.722C246.542 269.432 248.225 268.844 247.169 262.322C246.114 255.8 246.864 248.007 246.864 246.442C246.864 244.877 250.101 235.116 250.101 235.116L261.982 228.083Z" fill="white"/>
<path opacity="0.1" d="M183.492 459.878C183.492 459.878 189.156 456.001 192.874 458.818C196.592 461.635 183.492 459.878 183.492 459.878Z" fill="black"/>
<path opacity="0.1" d="M227.507 447.888C227.507 447.888 232.521 447.186 236.731 452.123C240.942 457.061 227.507 447.888 227.507 447.888Z" fill="black"/>
<g opacity="0.1">
<path opacity="0.1" d="M234.843 138.967C234.122 139.644 233.195 140.13 232.714 141.03C232.304 141.803 232.292 142.755 231.964 143.585C231.635 144.416 230.68 145.093 230.017 144.569C229.865 138.82 227.261 133.422 224.065 128.823C223.171 127.435 222.085 126.207 220.846 125.182C219.591 124.154 218.028 123.674 216.465 123.834C214.706 124.096 213.158 125.399 211.381 125.559C209.035 125.776 206.93 124.007 204.602 123.917C203.656 123.928 202.723 124.158 201.865 124.593C201.008 125.028 200.245 125.658 199.63 126.44C198.405 128.013 197.497 129.847 196.961 131.825C196.04 134.827 195.538 137.962 195.472 141.126C195.437 142.908 195.284 145.131 193.771 145.796C193.807 146.267 193.807 146.742 193.771 147.214C195.296 146.575 195.448 144.326 195.484 142.538C195.549 139.374 196.051 136.238 196.973 133.237C197.508 131.257 198.417 129.421 199.641 127.846C200.258 127.066 201.021 126.438 201.879 126.004C202.736 125.57 203.669 125.34 204.614 125.329C206.96 125.418 209.071 127.181 211.393 126.971C213.152 126.811 214.712 125.501 216.477 125.246C218.04 125.085 219.602 125.566 220.857 126.594C222.097 127.618 223.183 128.847 224.077 130.235C227.273 134.828 229.876 140.213 230.029 145.974C230.691 146.505 231.647 145.815 231.976 144.997C232.304 144.179 232.316 143.221 232.726 142.442C233.207 141.541 234.134 141.062 234.855 140.385C236.684 138.667 237.142 135.773 237.071 133.148C237.071 133.065 237.071 132.982 237.071 132.905C236.96 135.179 236.403 137.498 234.843 138.967Z" fill="black"/>
<path opacity="0.1" d="M191.555 138.513C190.206 136.897 188.365 135.818 187.127 134.106C186.086 132.59 185.491 130.766 185.421 128.874C185.236 131.238 185.842 133.595 187.127 135.511C188.365 137.229 190.206 138.309 191.555 139.925C192.85 141.506 193.627 143.51 193.766 145.623C193.855 144.337 193.706 143.044 193.326 141.823C192.946 140.601 192.344 139.475 191.555 138.513Z" fill="black"/>
<path opacity="0.1" d="M238.215 119.229C237.869 120.794 237.253 122.282 236.972 123.86C236.805 124.914 236.744 125.985 236.79 127.054C236.81 126.445 236.87 125.839 236.972 125.24C237.253 123.655 237.869 122.173 238.215 120.608C238.417 119.745 238.482 118.851 238.408 117.964C238.372 118.39 238.307 118.813 238.215 119.229Z" fill="black"/>
</g>
<path opacity="0.1" d="M77.8334 485.851C109.39 485.851 134.973 481.375 134.973 475.854C134.973 470.333 109.39 465.857 77.8334 465.857C46.2763 465.857 20.6942 470.333 20.6942 475.854C20.6942 481.375 46.2763 485.851 77.8334 485.851Z" fill="#6C63FF"/>
<path d="M79.6747 284.347H75.998V374.524H79.6747V284.347Z" fill="#535461"/>
<path d="M102.779 374.249L102.55 378.312L102.222 384.061L102.087 386.45L101.765 392.199L101.624 394.588L101.295 400.337L97.5894 465.538C97.4283 468.343 96.292 470.976 94.4117 472.901C92.5313 474.826 90.0484 475.898 87.4681 475.899H68.1988C65.6191 475.898 63.1368 474.825 61.2574 472.9C59.3781 470.975 58.243 468.342 58.0833 465.538L54.3949 400.293L54.0665 394.544L53.9316 392.154L53.6032 386.405L53.4683 384.016L53.14 378.267L52.9054 374.205C52.8647 373.423 52.971 372.64 53.2179 371.905C53.4648 371.169 53.8471 370.496 54.3413 369.927C54.8355 369.358 55.4312 368.906 56.0918 368.597C56.7524 368.287 57.4641 368.129 58.183 368.13H97.5953C98.3115 368.137 99.0189 368.303 99.6738 368.619C100.329 368.935 100.917 369.394 101.403 369.968C101.889 370.541 102.261 371.217 102.498 371.953C102.735 372.69 102.83 373.471 102.779 374.249Z" fill="#3F3D56"/>
<path d="M102.55 378.312L102.222 384.042H53.4448L53.1165 378.312H102.55Z" fill="#9D9CB5"/>
<path d="M102.087 386.431L101.765 392.167H53.9081L53.5797 386.431H102.087Z" fill="#9D9CB5"/>
<path d="M101.624 394.563L101.301 400.293H54.3714L54.043 394.563H101.624Z" fill="#9D9CB5"/>
<path d="M47.5046 318.145C68.9142 335.022 77.851 361.416 77.851 361.416C77.851 361.416 52.0492 360.452 30.6338 343.575C9.21828 326.699 0.299072 300.31 0.299072 300.31C0.299072 300.31 26.0891 301.269 47.5046 318.145Z" fill="#2FA5A9"/>
<path d="M0.281464 300.31C0.281464 300.31 27.0684 316.504 35.6592 329.912C44.25 343.32 77.851 361.416 77.851 361.416" stroke="#535461" stroke-width="2" stroke-miterlimit="10"/>
<path d="M61.3261 284.149C72.978 293.329 77.851 307.695 77.851 307.695C77.851 307.695 63.8066 307.171 52.1489 297.992C40.4912 288.812 35.6299 274.44 35.6299 274.44C35.6299 274.44 49.6684 274.964 61.3261 284.149Z" fill="#2FA5A9"/>
<path d="M35.6299 274.44C35.6299 274.44 50.2079 283.255 54.8816 290.55C59.5552 297.845 77.851 307.695 77.851 307.695" stroke="#535461" stroke-width="2" stroke-miterlimit="10"/>
<path d="M94.7688 306.967C81.3812 322.994 78.5488 343.939 78.5488 343.939C78.5488 343.939 97.4252 338.893 110.801 322.859C124.177 306.826 127.021 285.887 127.021 285.887C127.021 285.887 108.156 290.939 94.7688 306.967Z" fill="#2FA5A9"/>
<path d="M127.033 285.893C127.033 285.893 109.593 302.323 105.16 313.642C100.727 324.961 78.5488 343.939 78.5488 343.939" stroke="#535461" stroke-width="2" stroke-miterlimit="10"/>
<path d="M586.211 301.326C586.211 301.326 576.529 248.857 580.235 242.328C580.235 242.328 580.37 236.26 580.147 228.524C580.147 228.23 580.147 227.936 580.147 227.636C580.799 228.11 581.479 228.537 582.182 228.914C585.597 230.825 589.517 231.376 593.265 230.472L590.333 226.914C589.629 226.065 588.896 225.145 588.744 224.021C588.591 222.896 589.014 221.894 589.377 220.891C592.163 213.225 592.309 203.586 586.944 197.735C582.411 192.816 581.308 186.467 576.388 181.976C572.794 178.686 570.818 173.864 568.953 169.201C567.375 165.259 565.786 161.286 564.883 157.108C564.179 153.844 563.898 150.465 562.93 147.278C561.963 144.09 560.151 140.992 557.319 139.567C556.31 139.063 555.19 138.775 554.269 138.105C553.061 137.217 552.334 135.773 551.46 134.508C547.021 128.12 532.156 131.883 525.119 134.476C523.206 135.129 521.434 136.199 519.912 137.619L519.976 137.504C520.029 137.408 520.094 137.313 520.152 137.217C519.382 137.895 518.717 138.704 518.182 139.612C517.156 141.382 516.728 143.445 515.871 145.361C514.839 147.629 509.098 153.959 511.567 156.508C511.74 156.679 511.939 156.817 512.154 156.917C513.08 157.337 514.101 157.448 515.086 157.236L514.98 157.511C514.137 159.76 513.705 162.166 513.708 164.595C513.708 175.09 521.653 183.599 531.464 183.599C533.308 183.601 535.142 183.292 536.9 182.685C536.941 182.928 536.976 183.171 537.017 183.413C537.017 183.509 537.047 183.605 537.058 183.701L536.747 184.174C536.732 184.144 536.714 184.117 536.695 184.091L527.488 198.105C526.081 199.185 517.977 205.573 517.519 210.364C517.038 215.608 516.558 221.747 516.558 221.747L516.493 223.063C516.091 223.429 515.62 223.696 515.114 223.844C514.608 223.993 514.078 224.021 513.561 223.925C510.688 223.414 510.688 235.423 510.688 235.423C510.688 235.423 508.776 237.339 507.462 235.679C506.149 234.018 502.677 239.645 502.677 239.645L480.922 240.667L480.423 240.699L479.251 236.745C479.124 236.328 478.852 235.982 478.493 235.782C478.134 235.583 477.717 235.545 477.333 235.679C477.242 235.711 477.154 235.752 477.069 235.8L476.987 235.851L476.835 235.966L476.758 236.043C476.716 236.084 476.677 236.129 476.641 236.177L476.571 236.266L476.535 236.305C476.4 236.508 476.31 236.744 476.274 236.993C476.237 237.241 476.254 237.496 476.324 237.735L477.333 241.127C473.134 242.047 468.842 244.641 472.343 251.782L454.598 248.211L460.339 253.462L489.976 260.125C489.583 260.891 489.841 262.003 491.067 263.568C496.344 270.32 505.961 272.153 509.831 272.626C510.854 275.116 512.13 277.473 513.637 279.652L513.303 286.379C513.303 286.379 503.504 337.647 501.71 340.247C502.616 339.129 503.445 337.94 504.19 336.689C501.346 347.223 497.37 361.64 496.327 363.799C494.649 367.248 493.096 381.206 495.007 382.1C495.594 382.375 497.271 382.241 499.663 382.043V383.199L499.558 427.013C499.558 427.013 500.039 453.886 498.719 456.448C497.4 459.009 497.048 464.382 497.048 464.382C497.048 464.382 491.77 474.979 487.589 479.24C487.561 479.273 487.529 479.303 487.495 479.329L487.366 478.333C487.366 478.333 482.341 485.244 471.223 484.854C471.223 484.854 464.532 489.594 474.454 489.85C484.376 490.105 497.048 489.466 497.048 489.466C497.048 489.466 505.897 474.775 513.309 476.691V487.825H515.578V476.512C516.631 475.757 517.531 474.778 518.226 473.632C518.92 472.487 519.394 471.2 519.619 469.849C519.813 468.457 519.671 467.034 519.206 465.72C518.741 464.406 517.97 463.247 516.968 462.357C516.518 461.913 516.157 461.374 515.908 460.771C515.659 460.169 515.526 459.517 515.52 458.856L515.438 458.933C515.438 458.709 515.385 458.479 515.361 458.243C514.71 452.494 513.895 440.632 516.775 431.855C520.721 419.82 521.917 403.058 519.044 393.081C518.117 389.891 517.355 386.648 516.763 383.365C516.692 382.95 516.628 382.554 516.569 382.183C518.533 382.473 520.478 382.899 522.392 383.461C529.048 385.46 543.608 385.831 556.04 385.722C556.069 386.092 556.105 386.482 556.146 386.872C556.367 389.58 556.831 392.259 557.53 394.869C559.089 399.98 559.805 422.509 559.805 422.509C559.805 422.509 561.816 441.034 560.72 448.572C560.133 452.762 559.547 456.972 559.213 461.2V461.283C559.213 461.283 555.917 471.504 553.507 477.055C553.448 477.195 553.384 477.336 553.325 477.47C552.683 477.534 552.05 477.686 551.443 477.924C551.443 477.924 548.212 484.95 544.992 486.113C541.773 487.275 542.84 491.102 550.129 489.696C557.418 488.291 568.425 487.141 568.425 487.141L568.9 479.974L571.14 476.921L570.554 484.069L572.94 483.558L572.624 474.864L576.289 469.869C576.289 469.869 580.716 465.576 574.137 457.131V457.317C574.066 457.195 574.002 457.067 573.925 456.946V456.908C572.835 455.068 571.967 451.638 573.556 445.55C576.429 434.55 578.101 424.566 578.101 424.566C578.101 424.566 584.516 397.82 576.805 385.166H577.145C576.355 383.386 575.796 381.494 575.485 379.545C575.446 379.315 575.411 379.079 575.38 378.836C581.085 378.478 586.686 377.354 591.254 374.927C591.236 374.901 588.486 311.432 586.211 301.326ZM513.772 257.059V257.186L512.599 257.25L513.772 257.059ZM509.749 257.665C509.557 257.712 509.376 257.806 509.222 257.94C508.717 258.717 508.401 259.62 508.301 260.565L506.471 260.118C506.471 260.118 505.187 259.818 503.34 259.48L502.466 258.521C504.871 258.304 507.369 257.985 509.749 257.665Z" fill="url(#paint1_linear)"/>
<path d="M570.284 474.953L569.586 484.005L571.926 483.494L571.574 473.676L570.284 474.953Z" fill="#1D2366"/>
<path d="M516.903 431.976C514.083 440.727 514.88 452.539 515.514 458.275C515.748 460.396 515.965 461.686 515.965 461.686C515.965 461.686 511.749 472.149 511.397 472.545C511.045 472.941 498.989 480.958 498.989 480.958L490.562 486.317C490.562 486.317 482.013 482.235 486.111 480.83C486.949 480.464 487.703 479.904 488.322 479.188C492.427 474.941 497.582 464.382 497.582 464.382C497.582 464.382 497.933 459.022 499.223 456.473C500.514 453.925 500.044 427.141 500.044 427.141L500.144 383.48V377.788L516.182 377.916C516.283 379.848 516.515 381.77 516.874 383.665C517.45 386.937 518.196 390.17 519.108 393.349C521.935 403.308 520.762 419.986 516.903 431.976Z" fill="#FFB0B1"/>
<path opacity="0.1" d="M515.965 461.686C515.965 461.686 511.749 472.149 511.397 472.545C511.045 472.941 498.989 480.958 498.989 480.958L490.562 486.317C490.562 486.317 482.013 482.235 486.111 480.83C486.949 480.464 487.703 479.904 488.322 479.188L488.686 481.98L491.495 481.852L515.537 458.288C515.748 460.396 515.965 461.686 515.965 461.686Z" fill="black"/>
<path d="M515.672 458.882L491.495 482.606L488.686 482.734L488.099 478.262C488.099 478.262 483.185 485.148 472.266 484.765C472.266 484.765 465.71 489.486 475.427 489.741C485.144 489.997 497.552 489.358 497.552 489.358C497.552 489.358 506.219 474.666 513.473 476.582V487.678H515.701V476.48C516.737 475.72 517.622 474.74 518.301 473.598C518.98 472.457 519.44 471.177 519.654 469.837C519.847 468.456 519.71 467.044 519.257 465.738C518.804 464.431 518.05 463.273 517.068 462.376C516.629 461.928 516.279 461.386 516.039 460.786C515.799 460.185 515.674 459.537 515.672 458.882Z" fill="#1D2366"/>
<path d="M572.512 445.621C570.952 451.689 571.803 455.106 572.87 456.94V456.978C574.239 459.242 575.191 461.773 575.673 464.433L575.767 465.008L564.766 482.478L558.796 485.033C558.796 485.033 549.197 481.463 550.95 480.441C551.39 480.191 552.076 478.863 552.862 477.029C555.207 471.504 558.444 461.309 558.444 461.309V461.226C558.784 457.016 559.324 452.82 559.922 448.642C560.995 441.123 559.025 422.669 559.025 422.669C559.025 422.669 558.321 400.229 556.797 395.125C556.108 392.53 555.651 389.869 555.43 387.178C555.114 383.984 555.043 381.353 555.043 381.353C555.043 381.353 561.365 371.771 572.952 382.119C573.879 382.945 574.694 383.908 575.374 384.981C583.378 397.386 576.934 424.713 576.934 424.713C576.934 424.713 575.321 434.653 572.512 445.621Z" fill="#FFB0B1"/>
<path opacity="0.1" d="M575.784 465.008L564.783 482.478L558.814 485.033C558.814 485.033 549.214 481.463 550.968 480.441C551.407 480.191 552.094 478.863 552.879 477.029C556.943 476.991 559.048 481.207 559.048 481.207L564.197 480.313C564.197 480.313 570.988 465.774 572.512 464.886C574.037 463.998 572.747 458.249 572.747 458.249V456.786C572.788 456.838 572.823 456.895 572.87 456.946V456.984C574.239 459.248 575.191 461.78 575.673 464.439L575.784 465.008Z" fill="black"/>
<path d="M559.4 481.584C559.4 481.584 556.468 475.72 550.85 477.885C550.85 477.885 547.69 484.912 544.529 486.049C541.368 487.186 542.424 491.019 549.566 489.62C556.709 488.221 567.475 487.065 567.475 487.065L567.944 479.917L575.204 469.843C575.204 469.843 579.531 465.57 573.093 457.157V458.62C573.093 458.62 574.383 464.369 572.858 465.257C571.334 466.145 564.566 480.69 564.566 480.69L559.4 481.584Z" fill="#1D2366"/>
<path opacity="0.1" d="M516.2 377.903C516.301 379.835 516.532 381.757 516.892 383.652C510.289 382.598 504.161 383.122 500.144 383.467V377.776L516.2 377.903Z" fill="black"/>
<path opacity="0.1" d="M576.025 386.572C576.025 386.572 566.642 387.07 555.454 387.172C555.137 383.978 555.067 381.346 555.067 381.346C555.067 381.346 561.388 371.765 572.975 382.113C573.902 382.938 574.717 383.902 575.397 384.975C575.579 385.519 575.788 386.052 576.025 386.572Z" fill="black"/>
<path d="M576.025 385.422C576.025 385.422 534.93 387.587 522.404 383.761C509.878 379.935 497.464 383.25 495.594 382.362C493.723 381.474 495.242 367.568 496.884 364.125C498.526 360.682 507.533 325.862 507.533 325.862L516.2 276.637L525.33 273.897L525.975 273.699L541.884 268.921L553.542 265.414C553.542 265.414 576.723 363.997 574.735 371.266C574.013 374.05 573.896 376.978 574.395 379.82C574.698 381.76 575.247 383.645 576.025 385.422Z" fill="#1D2366"/>
<path d="M485.988 242.973C485.988 242.973 477.779 252.555 483.994 257.895C490.21 263.236 494.298 258.406 494.298 258.406L485.988 242.973Z" fill="#C7DAF5"/>
<path opacity="0.1" d="M485.988 242.973C485.988 242.973 477.779 252.555 483.994 257.895C490.21 263.236 494.298 258.406 494.298 258.406L485.988 242.973Z" fill="black"/>
<path d="M552.316 179.977C552.316 179.977 551.355 180.973 549.906 182.442C547.842 184.544 544.787 187.617 542.078 190.191C538.325 193.749 535.229 196.361 536.337 194.132C537.445 191.903 537.234 188.019 536.683 184.384C536.642 184.142 536.607 183.899 536.566 183.663C536.109 180.993 535.504 178.357 534.754 175.767C534.754 175.767 540.817 167.233 544.171 163.867C545.42 162.589 546.294 162.065 546.347 162.953C546.405 164.148 547.226 166.786 548.247 169.584C548.276 169.673 548.305 169.756 548.341 169.846C549.021 171.762 549.789 173.729 550.463 175.429C551.495 178.035 552.316 179.977 552.316 179.977Z" fill="#FFB0B1"/>
<path opacity="0.1" d="M548.341 169.846C547.771 173.184 546.388 176.295 544.338 178.852C542.287 181.41 539.643 183.32 536.683 184.384C536.217 181.468 535.572 178.59 534.754 175.767C534.754 175.767 546.171 159.702 546.347 162.953C546.388 164.186 547.279 166.92 548.341 169.846Z" fill="black"/>
<path opacity="0.1" d="M535.545 188.677L537.023 186.409C537.023 186.409 538.002 192.912 541.603 190.044C545.203 187.176 545.379 211.628 545.379 211.628L541.515 274.568L513.59 272.747L514.382 242.335L517.543 227.004L525.359 204.717L530.01 197.352L535.545 188.677Z" fill="black"/>
<path d="M545.379 212.018L541.861 268.927L541.491 274.957L525.922 273.942L525.336 273.903L513.608 273.137L514.4 242.718L517.56 227.387L525.377 205.1L530.027 197.735L535.563 189.028L537.041 186.767C537.041 186.767 538.02 193.27 541.62 190.402L541.697 190.344C545.215 187.917 545.379 212.018 545.379 212.018Z" fill="#1D2366"/>
<path d="M517.953 222.06C517.953 222.06 516.552 225.254 513.737 224.736C510.922 224.219 510.928 236.234 510.928 236.234C510.928 236.234 509.057 238.151 507.767 236.49C506.477 234.829 503.076 240.444 503.076 240.444L481.766 241.466C481.766 241.466 491.248 246.186 489.389 260.47C489.389 260.47 521.583 258.298 522.638 254.982C523.694 251.667 517.953 222.06 517.953 222.06Z" fill="white"/>
<path opacity="0.03" d="M517.953 222.06C517.953 222.06 516.552 225.254 513.737 224.736C510.922 224.219 510.928 236.234 510.928 236.234C510.928 236.234 509.057 238.151 507.767 236.49C506.477 234.829 503.076 240.444 503.076 240.444L481.766 241.466C481.766 241.466 491.248 246.186 489.389 260.47C489.389 260.47 521.583 258.298 522.638 254.982C523.694 251.667 517.953 222.06 517.953 222.06Z" fill="black"/>
<path d="M456.023 248.972L461.641 254.197L507.885 264.781L502.15 258.406L456.023 248.972Z" fill="white"/>
<path d="M535.633 190.689C534.865 191.967 532.666 198.508 530.83 204.219C529.3 208.977 528.022 213.161 528.022 213.161C528.022 213.161 525.037 234.331 523.512 238.157C521.988 241.983 522.814 256.905 522.814 256.905L517.132 293.757C517.132 293.757 514.558 312.76 510.582 324.111C506.659 335.284 502.29 340.522 502.155 340.688C503.915 338.094 513.502 287.03 513.502 287.03L516.669 222.628C516.669 222.628 517.132 216.509 517.601 211.277C518.07 206.045 527.57 198.904 527.57 198.904L536.73 184.717C537.65 186.058 537.035 188.396 535.633 190.689Z" fill="white"/>
<path d="M511.749 273.456C511.749 273.456 498.262 272.817 491.729 264.27C485.197 255.723 506.829 260.859 506.829 260.859L512.453 262.265L511.749 273.456Z" fill="#FFB0B1"/>
<path opacity="0.1" d="M574.735 371.273C574.013 374.056 573.896 376.985 574.395 379.826C559.682 380.963 543.943 376.632 543.943 376.632C541.011 379.57 533.288 383.901 533.288 383.901L529.077 327.05C526.386 319.384 525.33 279.224 525.33 279.224C525.33 279.224 525.571 277.123 525.916 273.973C525.916 273.897 525.916 273.814 525.946 273.737C526.995 264.941 529.077 248.429 530.098 246.199C531.505 243.133 525.77 234.976 525.77 234.976L528.379 210.734L528.696 207.808C534.197 205.132 538.413 196.585 538.413 196.585L541.65 190.408C545.168 187.949 545.35 212.05 545.35 212.05L541.831 268.959L553.489 265.452C553.489 265.452 576.723 364.003 574.735 371.273Z" fill="black"/>
<path d="M589.835 375.201C573.796 383.876 544.646 375.84 544.646 375.84C541.714 378.778 533.991 383.109 533.991 383.109L529.775 326.258C527.089 318.592 526.034 278.432 526.034 278.432C526.034 278.432 529.423 248.467 530.831 245.407C531.241 244.513 531.042 243.184 530.555 241.753C528.162 234.943 527.282 227.612 527.986 220.361L529.112 209.942L529.423 207.023C534.93 204.34 539.146 195.793 539.146 195.793L542.078 190.197L547.473 179.887L550.029 175.007L550.463 175.435L553.777 178.706C553.777 178.706 555.184 179.983 557.295 181.899C561.887 186.115 569.821 193.538 573.914 198.08C577.514 202.079 578.652 217.633 578.98 229.342C579.197 237.052 579.068 243.095 579.068 243.095C575.438 249.604 584.932 301.863 584.932 301.863C587.143 311.962 589.835 375.201 589.835 375.201Z" fill="white"/>
<path opacity="0.03" d="M559.048 195.665C559.048 195.665 548.042 218.489 549.32 227.164C550.598 235.838 554.234 245.656 552.481 247.95C551.878 248.818 551.099 249.524 550.205 250.01C549.311 250.497 548.326 250.751 547.326 250.754C545.567 250.882 540.876 254.452 540.876 254.836C540.876 255.219 536.542 255.219 532.666 257.007C528.79 258.796 523.067 259.812 523.067 259.812C523.067 259.812 511.925 259.428 510.887 260.578C509.849 261.728 508.782 268.608 511.004 274.095C513.227 279.582 515.696 283.677 517.56 284.424C519.425 285.171 531.259 280.853 540.858 279.831C550.458 278.809 560.878 270.524 560.878 270.524C560.878 270.524 572.354 266.053 574.365 258.534C576.377 251.016 571.908 209.693 571.908 209.693C571.908 209.693 568.531 190.434 559.048 195.665Z" fill="black"/>
<path opacity="0.03" d="M557.641 193.749C557.641 193.749 546.634 216.579 547.924 225.247C549.214 233.915 552.838 243.74 551.079 246.04C550.479 246.909 549.701 247.615 548.808 248.102C547.914 248.589 546.929 248.843 545.93 248.844C544.171 248.972 539.48 252.542 539.48 252.926C539.48 253.309 535.146 253.309 531.27 255.091C527.394 256.873 521.671 257.895 521.671 257.895C521.671 257.895 510.529 257.512 509.497 258.662C508.465 259.812 507.386 266.698 509.614 272.179C511.843 277.659 514.306 281.76 516.17 282.508C518.035 283.255 529.869 278.937 539.468 277.921C549.068 276.905 559.488 268.608 559.488 268.608C559.488 268.608 570.958 264.136 572.946 256.624C574.934 249.112 570.489 207.777 570.489 207.777C570.489 207.777 567.123 188.524 557.641 193.749Z" fill="black"/>
<path d="M558.702 194.515C558.702 194.515 547.696 217.345 548.986 226.014C550.276 234.682 553.9 244.506 552.146 246.8C551.546 247.672 550.768 248.379 549.873 248.867C548.979 249.355 547.992 249.609 546.992 249.61C545.233 249.738 540.541 253.309 540.541 253.686C540.541 254.063 536.214 254.069 532.332 255.858C528.45 257.646 522.732 258.662 522.732 258.662C522.732 258.662 511.591 258.279 510.553 259.428C509.515 260.578 508.448 267.464 510.67 272.945C512.892 278.426 515.361 282.527 517.226 283.274C519.091 284.021 530.924 279.703 540.524 278.681C550.123 277.659 560.544 269.374 560.544 269.374C560.544 269.374 572.02 264.903 574.031 257.384C576.042 249.866 571.603 208.543 571.603 208.543C571.603 208.543 568.179 189.316 558.702 194.515Z" fill="white"/>
<path opacity="0.1" d="M558.462 255.749C558.462 255.749 549.666 253.833 552.727 257.027C555.788 260.221 555.77 263.018 559.518 262.891C563.265 262.763 558.462 255.749 558.462 255.749Z" fill="black"/>
<path opacity="0.1" d="M573.327 324.469C573.327 324.469 569.351 327.401 576.957 334.159C584.563 340.918 573.327 324.469 573.327 324.469Z" fill="black"/>
<path opacity="0.1" d="M565.739 348.57C565.739 348.954 564.332 362.624 569.598 366.041C574.864 369.459 565.739 348.57 565.739 348.57Z" fill="black"/>
<path d="M482.13 241.434C477.884 241.594 468.713 243.005 473.469 252.67C477.673 261.223 484.739 255.506 488.715 251.169C487.745 247.125 485.388 243.641 482.13 241.434Z" fill="#FFB0B1"/>
<path d="M488.768 251.091L488.943 250.894L488.768 251.091Z" fill="#FFB0B1"/>
<path opacity="0.1" d="M557.295 182.289C552.791 185.643 549.015 188.473 548.276 189.06C546.259 190.689 542.412 200.252 539.932 205.132C537.955 209.06 531.534 210.07 529.112 210.319L529.423 207.4C534.93 204.717 539.146 196.17 539.146 196.17L550.029 175.384L553.777 179.095C553.777 179.095 555.184 180.373 557.295 182.289Z" fill="black"/>
<path d="M557.295 181.906C552.791 185.259 549.015 188.089 548.276 188.683C546.259 190.306 542.412 199.868 539.932 204.749C537.955 208.677 531.534 209.686 529.112 209.936L529.423 207.016C534.93 204.333 539.146 195.787 539.146 195.787L550.029 175.001L553.777 178.699C553.777 178.699 555.184 179.964 557.295 181.906Z" fill="#DCE7FF"/>
<path d="M548.628 165.63C548.63 169.464 547.563 173.209 545.567 176.368C543.21 180.102 539.701 182.793 535.679 183.95C531.657 185.108 527.386 184.657 523.643 182.679C519.9 180.701 516.932 177.326 515.277 173.168C513.622 169.009 513.391 164.343 514.625 160.014C515.859 155.686 518.476 151.983 522.002 149.577C525.528 147.171 529.729 146.221 533.842 146.901C537.956 147.58 541.709 149.843 544.422 153.28C547.135 156.716 548.627 161.098 548.628 165.63Z" fill="#FFB0B1"/>
<path opacity="0.1" d="M578.98 229.348C576.599 227.752 574.659 225.483 573.368 222.782C572.389 220.674 571.738 218.24 570.067 216.745C568.56 215.404 566.548 215.078 564.672 214.477C558.503 212.491 553.331 206.358 553.137 199.357C553.044 196.061 553.988 192.772 553.56 189.507C553.316 187.66 552.642 185.911 551.601 184.429C551.084 183.72 550.518 183.056 549.906 182.442C549.085 181.599 548.223 180.782 547.473 179.887C547 179.334 546.587 178.723 546.241 178.067C545.962 177.53 545.736 176.963 545.567 176.374C544.394 172.465 545.461 167.827 544.171 163.873L544.101 163.656C543.614 162.251 542.623 160.845 541.245 160.737C539.867 160.628 538.688 161.874 537.375 162.429C534.625 163.592 531.657 161.612 529.365 159.593C527.072 157.575 524.486 155.269 521.571 155.716C519.642 156.016 518.117 157.447 516.341 158.188C515.939 158.357 515.525 158.487 515.103 158.578C516.607 154.493 519.37 151.106 522.917 148.998C526.464 146.891 530.574 146.196 534.541 147.031C538.507 147.866 542.083 150.18 544.654 153.575C547.225 156.97 548.63 161.235 548.628 165.636C548.63 166.965 548.502 168.291 548.247 169.59C548.276 169.68 548.305 169.763 548.341 169.852C549.021 171.768 549.789 173.736 550.463 175.435L553.777 178.706C553.777 178.706 555.184 179.983 557.295 181.899C561.887 186.115 569.821 193.538 573.914 198.08C577.514 202.091 578.64 217.639 578.98 229.348Z" fill="black"/>
<path d="M516.135 146.517C516.974 144.658 517.39 142.576 518.393 140.813C519.865 138.258 522.433 136.623 525.072 135.633C531.962 133.045 546.523 129.289 550.874 135.633C551.73 136.91 552.44 138.328 553.624 139.21C554.527 139.88 555.618 140.168 556.609 140.673C559.383 142.091 561.154 145.182 562.098 148.338C563.042 151.493 563.323 154.879 564.015 158.13C564.901 162.302 566.455 166.256 568.003 170.184C569.826 174.822 571.762 179.632 575.28 182.909C580.083 187.38 581.144 193.711 585.601 198.616C590.878 204.442 590.708 214.056 587.987 221.689C587.63 222.692 587.225 223.74 587.366 224.806C587.507 225.873 588.234 226.844 588.92 227.694L591.805 231.239C584.979 233.034 577.256 229.15 574.078 222.334C573.099 220.226 572.448 217.799 570.771 216.298C569.269 214.956 567.252 214.637 565.382 214.037C559.213 212.044 554.04 205.905 553.847 198.904C553.753 195.614 554.697 192.324 554.269 189.067C554.031 187.207 553.354 185.446 552.305 183.956C550.692 181.663 548.259 180.124 546.945 177.569C544.723 173.295 546.411 167.744 544.81 163.158C544.318 161.752 543.333 160.347 541.955 160.238C540.577 160.13 539.398 161.375 538.079 161.931C535.334 163.094 532.367 161.12 530.074 159.095C527.781 157.07 525.195 154.77 522.275 155.224C520.346 155.518 518.827 156.949 517.05 157.696C515.737 158.245 513.074 158.737 511.925 157.53C509.497 155.096 515.121 148.791 516.135 146.517Z" fill="#591D4B"/>
<path opacity="0.1" d="M575.708 220.226C574.723 218.118 574.078 215.691 572.401 214.196C570.9 212.855 568.882 212.529 567.006 211.929C560.843 209.942 555.671 203.803 555.471 196.802C555.377 193.513 556.322 190.216 555.899 186.959C555.654 185.111 554.977 183.362 553.935 181.88C552.316 179.587 549.883 178.048 548.575 175.492C546.353 171.225 548.042 165.674 546.435 161.082C545.948 159.683 544.957 158.277 543.585 158.162C542.213 158.047 541.022 159.306 539.709 159.862C536.964 161.024 533.991 159.044 531.704 157.025C529.417 155.007 526.82 152.701 523.905 153.148C521.976 153.448 520.451 154.879 518.68 155.62C517.367 156.169 514.699 156.668 513.549 155.46C511.133 152.905 516.757 146.613 517.766 144.352C518.604 142.487 519.02 140.411 520.029 138.648C520.082 138.552 520.14 138.456 520.199 138.36C519.445 139.041 518.794 139.847 518.27 140.749C517.267 142.512 516.851 144.582 516.012 146.453C514.998 148.715 509.374 155.026 511.796 157.562C512.969 158.776 515.608 158.277 516.921 157.728C518.68 156.981 520.217 155.55 522.146 155.256C525.078 154.802 527.658 157.108 529.945 159.127C532.232 161.145 535.223 163.126 537.955 161.963C539.269 161.407 540.418 160.155 541.826 160.27C543.233 160.385 544.171 161.784 544.681 163.19C546.282 167.776 544.594 173.327 546.816 177.6C548.13 180.111 550.563 181.682 552.176 183.988C553.225 185.478 553.902 187.239 554.14 189.099C554.568 192.356 553.624 195.646 553.718 198.936C553.911 205.962 559.084 212.076 565.253 214.069C567.111 214.669 569.14 214.988 570.642 216.33C572.325 217.831 572.987 220.258 573.949 222.366C577.127 229.182 584.85 233.066 591.676 231.271L590.315 229.597C584.399 229.693 578.411 226.027 575.708 220.226Z" fill="black"/>
<path opacity="0.1" d="M535.281 191.072C534.513 192.35 532.314 198.891 530.479 204.602C528.761 203.874 527.201 199.23 527.201 199.23L536.36 185.036C537.299 186.441 536.683 188.773 535.281 191.072Z" fill="black"/>
<path d="M535.633 190.689C534.865 191.967 532.666 198.508 530.831 204.218C529.112 203.497 527.553 198.846 527.553 198.846L536.712 184.659C537.65 186.058 537.035 188.396 535.633 190.689Z" fill="#DCE7FF"/>
<path d="M482.376 255.947L477.298 238.502C477.238 238.298 477.215 238.083 477.232 237.869C477.248 237.655 477.303 237.447 477.393 237.256C477.484 237.066 477.608 236.897 477.759 236.759C477.909 236.62 478.083 236.516 478.271 236.451C478.649 236.323 479.058 236.362 479.41 236.561C479.761 236.759 480.026 237.101 480.148 237.512L485.226 254.938L484.722 258.585L482.376 255.947Z" fill="#BE8B87"/>
<path opacity="0.1" d="M477.779 236.969C478.157 236.838 478.568 236.877 478.921 237.075C479.274 237.274 479.54 237.617 479.661 238.029L484.739 255.455L484.358 258.189L484.727 258.611L485.232 254.963L480.124 237.537C480.003 237.127 479.738 236.785 479.386 236.586C479.035 236.388 478.626 236.348 478.248 236.477C477.93 236.589 477.655 236.814 477.468 237.116C477.567 237.058 477.671 237.008 477.779 236.969Z" fill="white"/>
<path d="M482.376 255.947L485.226 254.963L484.81 257.953L484.722 258.611L483.889 257.665L482.376 255.947Z" fill="#EFC8C4"/>
<path d="M483.889 257.665C483.939 257.597 484 257.541 484.071 257.499C484.112 257.471 484.16 257.456 484.209 257.456C484.257 257.456 484.305 257.471 484.346 257.499C484.386 257.552 484.42 257.61 484.446 257.672C484.485 257.742 484.538 257.802 484.601 257.848C484.663 257.893 484.735 257.922 484.81 257.934L484.722 258.572L483.889 257.665Z" fill="#727A9C"/>
<path d="M477.268 244.698C477.268 244.698 487.454 244.634 485.056 249.355C482.657 254.075 478.91 254.644 478.91 254.644L477.268 244.698Z" fill="#FFB0B1"/>
<path d="M413.919 32.8462H413.479C395.981 32.8462 380.506 42.9325 371.604 57.8161C362.703 42.9325 347.227 32.8462 329.729 32.8462H329.289C316.157 32.9825 303.605 38.7587 294.361 48.9197C285.117 59.0806 279.927 72.8051 279.92 87.1107C279.92 104.875 287.062 130.081 300.99 150.823C327.524 190.344 371.604 224.921 371.604 224.921C371.604 224.921 415.684 190.351 442.213 150.823C456.146 130.081 463.283 104.875 463.283 87.1107C463.276 72.8062 458.087 59.0826 448.844 48.9219C439.601 38.7611 427.05 32.9842 413.919 32.8462ZM407.627 153.863C405.634 153.855 403.69 153.191 402.05 151.957C400.41 150.724 399.151 148.979 398.438 146.952H387.977C387.288 146.947 386.617 146.708 386.059 146.268C385.501 145.829 385.083 145.21 384.863 144.499L381.649 133.953L371.481 172.656C371.283 173.401 370.869 174.056 370.3 174.523C369.731 174.989 369.038 175.242 368.326 175.243H368.121C367.378 175.204 366.67 174.889 366.115 174.349C365.56 173.81 365.192 173.079 365.072 172.279L354.593 103.623L346.934 144.25C346.759 145.021 346.351 145.707 345.776 146.197C345.201 146.686 344.492 146.952 343.762 146.952H329.025C328.584 146.972 328.143 146.895 327.729 146.725C327.315 146.555 326.938 146.295 326.618 145.962C326.299 145.629 326.045 145.228 325.872 144.785C325.698 144.342 325.609 143.866 325.609 143.384C325.609 142.902 325.698 142.426 325.872 141.983C326.045 141.54 326.299 141.14 326.618 140.806C326.938 140.473 327.315 140.214 327.729 140.043C328.143 139.873 328.584 139.796 329.025 139.817H341.182L352.03 85.1943C352.208 84.3867 352.638 83.6716 353.247 83.1712C353.855 82.6708 354.604 82.4162 355.366 82.4509C356.128 82.4856 356.855 82.8075 357.423 83.3615C357.991 83.9155 358.365 84.6672 358.481 85.4882L369.182 155.524L378.295 120.896C378.485 120.167 378.886 119.524 379.439 119.063C379.992 118.603 380.666 118.349 381.362 118.341H381.427C382.116 118.341 382.787 118.578 383.345 119.019C383.903 119.459 384.32 120.08 384.534 120.794L390.346 139.836H398.309C398.875 137.962 399.906 136.295 401.287 135.019C402.668 133.743 404.345 132.907 406.135 132.604C407.924 132.301 409.756 132.542 411.427 133.302C413.099 134.061 414.545 135.308 415.607 136.907C416.668 138.505 417.304 140.391 417.443 142.358C417.583 144.325 417.221 146.296 416.397 148.052C415.574 149.809 414.32 151.284 412.776 152.314C411.231 153.344 409.456 153.889 407.645 153.889L407.627 153.863Z" fill="#2FA5A9"/>
</g>
<defs>
<linearGradient id="paint0_linear" x1="208.953" y1="494.973" x2="208.953" y2="101.905" gradientUnits="userSpaceOnUse">
<stop stop-color="#808080" stop-opacity="0.25"/>
<stop offset="0.54" stop-color="#808080" stop-opacity="0.12"/>
<stop offset="1" stop-color="#808080" stop-opacity="0.1"/>
</linearGradient>
<linearGradient id="paint1_linear" x1="130895" y1="296575" x2="130895" y2="94809.8" gradientUnits="userSpaceOnUse">
<stop stop-color="#808080" stop-opacity="0.25"/>
<stop offset="0.54" stop-color="#808080" stop-opacity="0.12"/>
<stop offset="1" stop-color="#808080" stop-opacity="0.1"/>
</linearGradient>
<clipPath id="clip0">
<rect width="648" height="500" fill="white"/>
</clipPath>
</defs>
</svg>
