<svg width="49" height="37" viewBox="0 0 49 37" fill="none" xmlns="http://www.w3.org/2000/svg">
<path d="M45.9375 37C45.9375 37 49 37 49 33.9167C49 30.8333 45.9375 21.5833 33.6875 21.5833C21.4375 21.5833 18.375 30.8333 18.375 33.9167C18.375 37 21.4375 37 21.4375 37H45.9375ZM21.5049 33.9167C21.4823 33.9135 21.4598 33.9094 21.4375 33.9043C21.4406 33.0903 21.9489 30.7285 23.765 28.601C25.4555 26.6061 28.4261 24.6667 33.6875 24.6667C38.9458 24.6667 41.9164 26.6092 43.61 28.601C45.4261 30.7285 45.9314 33.0934 45.9375 33.9043L45.913 33.9105C45.8988 33.9129 45.8845 33.915 45.8701 33.9167H21.5049ZM33.6875 15.4167C35.312 15.4167 36.8699 14.767 38.0185 13.6105C39.1672 12.454 39.8125 10.8855 39.8125 9.25C39.8125 7.6145 39.1672 6.04598 38.0185 4.88951C36.8699 3.73303 35.312 3.08333 33.6875 3.08333C32.063 3.08333 30.5051 3.73303 29.3565 4.88951C28.2078 6.04598 27.5625 7.6145 27.5625 9.25C27.5625 10.8855 28.2078 12.454 29.3565 13.6105C30.5051 14.767 32.063 15.4167 33.6875 15.4167ZM42.875 9.25C42.875 10.4647 42.6374 11.6676 42.1756 12.7898C41.7139 13.9121 41.0372 14.9318 40.184 15.7907C39.3309 16.6497 38.3181 17.331 37.2034 17.7959C36.0887 18.2607 34.894 18.5 33.6875 18.5C32.481 18.5 31.2863 18.2607 30.1716 17.7959C29.0569 17.331 28.0441 16.6497 27.191 15.7907C26.3378 14.9318 25.6611 13.9121 25.1994 12.7898C24.7376 11.6676 24.5 10.4647 24.5 9.25C24.5 6.79675 25.468 4.44397 27.191 2.70926C28.9139 0.974551 31.2508 0 33.6875 0C36.1242 0 38.4611 0.974551 40.184 2.70926C41.907 4.44397 42.875 6.79675 42.875 9.25ZM21.2415 22.4467C20.0164 22.0583 18.7536 21.803 17.4746 21.6851C16.756 21.6163 16.0344 21.5823 15.3125 21.5833C3.0625 21.5833 0 30.8333 0 33.9167C0 35.9732 1.01981 37 3.0625 37H15.974C15.52 36.0374 15.2936 34.9821 15.3125 33.9167C15.3125 30.8025 16.4671 27.6205 18.6506 24.9627C19.3948 24.0562 20.2615 23.2082 21.2415 22.4467ZM15.0675 24.6667C13.255 27.4086 12.2758 30.6231 12.25 33.9167H3.0625C3.0625 33.115 3.56475 30.7408 5.39 28.601C7.05906 26.64 9.95925 24.7283 15.0675 24.6698V24.6667ZM4.59375 10.7917C4.59375 8.33841 5.56172 5.98564 7.28471 4.25093C9.0077 2.51622 11.3446 1.54167 13.7812 1.54167C16.2179 1.54167 18.5548 2.51622 20.2778 4.25093C22.0008 5.98564 22.9688 8.33841 22.9688 10.7917C22.9688 13.2449 22.0008 15.5977 20.2778 17.3324C18.5548 19.0671 16.2179 20.0417 13.7812 20.0417C11.3446 20.0417 9.0077 19.0671 7.28471 17.3324C5.56172 15.5977 4.59375 13.2449 4.59375 10.7917ZM13.7812 4.625C12.1568 4.625 10.5989 5.2747 9.45022 6.43117C8.30156 7.58765 7.65625 9.15617 7.65625 10.7917C7.65625 12.4272 8.30156 13.9957 9.45022 15.1522C10.5989 16.3086 12.1568 16.9583 13.7812 16.9583C15.4057 16.9583 16.9636 16.3086 18.1123 15.1522C19.2609 13.9957 19.9062 12.4272 19.9062 10.7917C19.9062 9.15617 19.2609 7.58765 18.1123 6.43117C16.9636 5.2747 15.4057 4.625 13.7812 4.625Z" fill="#2FA5A9"/>
</svg>
