<svg width="32" height="37" viewBox="0 0 32 37" fill="none" xmlns="http://www.w3.org/2000/svg">
<path d="M23.1111 19.381C18.2044 19.381 14.2222 23.3276 14.2222 28.1905C14.2222 33.0533 18.2044 37 23.1111 37C28.0178 37 32 33.0533 32 28.1905C32 23.3276 28.0178 19.381 23.1111 19.381ZM26.0444 32.331L22.2222 28.5429V22.9048H24V27.8205L27.2889 31.08L26.0444 32.331ZM24.8889 3.52381H19.2356C18.4889 1.48 16.5333 0 14.2222 0C11.9111 0 9.95556 1.48 9.20889 3.52381H3.55556C1.6 3.52381 0 5.10952 0 7.04762V33.4762C0 35.4143 1.6 37 3.55556 37H14.4178C13.366 35.9882 12.5104 34.7939 11.8933 33.4762H3.55556V7.04762H7.11111V12.3333H21.3333V7.04762H24.8889V15.9981C26.1511 16.1743 27.3422 16.5443 28.4444 17.0552V7.04762C28.4444 5.10952 26.8444 3.52381 24.8889 3.52381ZM14.2222 7.04762C13.2444 7.04762 12.4444 6.25476 12.4444 5.28571C12.4444 4.31667 13.2444 3.52381 14.2222 3.52381C15.2 3.52381 16 4.31667 16 5.28571C16 6.25476 15.2 7.04762 14.2222 7.04762Z" fill="#2FA5A9"/>
</svg>
